<?xml version="1.0" encoding="UTF-8"?><svg id="Layer_7" xmlns="http://www.w3.org/2000/svg" viewBox="0 0 156.49 253.28"><defs><style>.cls-1{fill:#e30613;}.cls-2{fill:#1d1d1b;}</style></defs><path class="cls-2" d="M55.3,124.61c0-13.26,2.64-25.21,6.87-33.61,.73-1.45,6.77,23.68,7.97,22.92,1.02-.65-3.96-29.27-3.06-30.25,2.96-3.22,6.31-5.04,9.86-5.04,11.95,0,21.64,20.59,21.64,45.98s-9.69,45.98-21.64,45.98-21.64-20.59-21.64-45.98Z"/><g><path class="cls-1" d="M155.16,126.55v.41h-8.87v-4.84l8.87,4.43Z"/><path class="cls-1" d="M155.16,126.96c0,.14,0,.27,0,.41l-8.86,4.43v-4.84h8.87Z"/><path class="cls-1" d="M155.15,126.14c0,.14,0,.28,0,.41l-8.87-4.43v-4.83h.01l8.85,8.85Z"/><path class="cls-1" d="M155.15,127.37c0,.14,0,.28,0,.41l-8.83,8.83h-.04v-4.81l8.86-4.43Z"/><path class="cls-1" d="M146.33,136.61l8.83-8.83c-.02,2.97-.14,5.91-.36,8.83h-8.46Z"/><path class="cls-1" d="M155.15,126.14l-8.85-8.85h8.49c.22,2.92,.35,5.87,.36,8.85Z"/><path class="cls-1" d="M154.79,117.29h-8.5v-9.68h7.38c.5,3.19,.87,6.42,1.12,9.68Z"/><path class="cls-1" d="M146.33,136.61h8.46c-.25,3.26-.62,6.48-1.12,9.67h-7.38v-9.63l.04-.04Z"/><path class="cls-1" d="M153.67,107.6h-7.38v-9.67h5.48c.75,3.18,1.39,6.4,1.9,9.67Z"/><path class="cls-1" d="M146.29,146.28h7.38c-.51,3.27-1.14,6.5-1.9,9.68h-5.48v-9.68Z"/><path class="cls-1" d="M151.77,97.93h-5.48v-9.68h2.76c1.03,3.17,1.94,6.4,2.72,9.68Z"/><path class="cls-1" d="M146.29,155.95h5.48c-.78,3.28-1.68,6.51-2.72,9.68h-2.76v-9.68Z"/><path class="cls-1" d="M149.05,88.26h-2.76v-7.63c1,2.5,1.92,5.05,2.76,7.63Z"/><path class="cls-1" d="M146.29,165.63h2.76c-.83,2.58-1.76,5.12-2.76,7.62v-7.62Z"/><path class="cls-1" d="M146.29,165.63v7.62c-.27,.69-.55,1.37-.84,2.05h-8.83v-6.56c.4-1.03,.79-2.06,1.17-3.11h8.51Z"/><path class="cls-1" d="M146.29,155.95v9.68h-8.51c1.14-3.16,2.14-6.39,3-9.68h5.51Z"/><path class="cls-1" d="M146.29,146.28v9.68h-5.51c.83-3.17,1.53-6.4,2.09-9.68h3.42Z"/><path class="cls-1" d="M146.29,136.65v9.63h-3.42c.41-2.38,.74-4.78,1-7.21l2.42-2.42Z"/><path class="cls-1" d="M146.29,136.61v.04l-2.42,2.42c.09-.82,.16-1.64,.23-2.46h2.19Z"/><path class="cls-1" d="M146.29,131.8v4.81h-2.19c.11-1.28,.19-2.56,.26-3.84l1.94-.97Z"/><path class="cls-1" d="M146.29,126.96v4.84l-1.94,.97c.1-1.93,.15-3.86,.15-5.81h1.79Z"/><path class="cls-1" d="M146.29,122.12v4.84h-1.79c0-1.95-.05-3.89-.15-5.81l1.94,.97Z"/><path class="cls-1" d="M146.29,117.29v4.83l-1.94-.97c-.07-1.29-.15-2.58-.26-3.86h2.2Z"/><path class="cls-1" d="M146.29,117.28h0s-2.2,.01-2.2,.01c-.07-.81-.14-1.62-.23-2.43l2.42,2.42Z"/><path class="cls-1" d="M146.29,107.6v9.67l-2.42-2.42c-.26-2.44-.59-4.86-1-7.25h3.43Z"/><path class="cls-1" d="M146.29,97.93v9.67h-3.43c-.56-3.27-1.25-6.5-2.09-9.67h5.51Z"/><path class="cls-1" d="M146.29,88.26v9.68h-5.51c-.86-3.28-1.86-6.51-3-9.68h8.52Z"/><path class="cls-1" d="M146.29,80.63v7.63h-8.52c-.37-1.04-.76-2.06-1.16-3.08v-6.6h8.83c.29,.68,.57,1.36,.84,2.05Z"/><path class="cls-1" d="M145.45,78.57h-8.83v-9.68h4.27c1.65,3.15,3.18,6.38,4.57,9.68Z"/><path class="cls-1" d="M136.62,175.3h8.83c-1.38,3.3-2.91,6.53-4.57,9.67h-4.27v-9.67Z"/><path class="cls-1" d="M140.89,68.9h-4.27v-7.48c1.5,2.44,2.93,4.93,4.27,7.48Z"/><path class="cls-1" d="M136.62,184.98h4.27c-1.34,2.55-2.76,5.04-4.27,7.48v-7.48Z"/><path class="cls-1" d="M136.62,184.98v7.48c-.45,.74-.92,1.47-1.39,2.2h-8.28v-6.83c.59-.94,1.18-1.9,1.75-2.86h7.93Z"/><path class="cls-1" d="M136.62,175.3v9.67h-7.93c1.85-3.13,3.55-6.36,5.1-9.67h2.83Z"/><path class="cls-1" d="M136.62,168.74v6.56h-2.83c1.01-2.15,1.95-4.34,2.83-6.56Z"/><path class="cls-1" d="M136.62,78.57v6.6c-.88-2.23-1.83-4.44-2.84-6.6h2.84Z"/><path class="cls-1" d="M136.62,68.9v9.68h-2.84c-1.55-3.31-3.26-6.54-5.11-9.68h7.95Z"/><path class="cls-1" d="M136.62,61.42v7.48h-7.95c-.56-.95-1.13-1.89-1.72-2.81v-6.86h8.29c.47,.72,.93,1.45,1.38,2.19Z"/><path class="cls-1" d="M135.24,59.22h-8.29v-.05l3.46-6.91c1.68,2.26,3.3,4.58,4.83,6.96Z"/><path class="cls-1" d="M126.95,194.66h8.28c-1.53,2.37-3.14,4.69-4.83,6.95l-3.46-6.92v-.03Z"/><path class="cls-1" d="M126.95,194.69l3.46,6.92c-.68,.92-1.38,1.83-2.1,2.73h-1.36v-9.64Z"/><path class="cls-1" d="M130.4,52.27l-3.46,6.91v-9.63h1.36c.71,.9,1.4,1.8,2.09,2.72Z"/><path class="cls-1" d="M128.31,49.55h-1.36v-1.69c.46,.56,.92,1.13,1.36,1.69Z"/><path class="cls-1" d="M126.95,204.33h1.36c-.45,.57-.9,1.13-1.36,1.69v-1.69Z"/><path class="cls-1" d="M126.95,204.33v1.69c-2.26,2.76-4.63,5.42-7.12,7.98h-2.57v-9.67h9.68Z"/><path class="cls-1" d="M126.95,194.69v9.64h-9.68v-3.33c1.75-2.05,3.43-4.16,5.02-6.34h4.65l.02,.03Z"/><path class="cls-1" d="M126.95,187.83v6.83h-.02l-1.93-3.85c.66-.98,1.31-1.97,1.94-2.97Z"/><path class="cls-1" d="M126.95,59.22v6.86c-.63-1.01-1.29-2.01-1.95-3l1.93-3.86h.03Z"/><path class="cls-1" d="M126.95,49.55v9.63l-.03,.05h-4.66c-1.59-2.16-3.26-4.27-5-6.3v-3.37h9.68Z"/><path class="cls-1" d="M126.95,47.85v1.69h-9.68v-9.67h2.57c2.48,2.56,4.86,5.21,7.12,7.97Z"/><path class="cls-1" d="M125.01,190.81l1.93,3.85h-4.65c.94-1.26,1.84-2.55,2.72-3.85Z"/><path class="cls-1" d="M126.92,59.22l-1.93,3.86c-.89-1.31-1.8-2.6-2.73-3.86h4.66Z"/><path class="cls-1" d="M119.83,39.88h-2.57l1.29-1.29c.43,.43,.86,.86,1.27,1.29Z"/><path class="cls-1" d="M117.27,214h2.56c-.42,.43-.84,.86-1.27,1.29l-1.29-1.29Z"/><path class="cls-1" d="M118.56,215.28h0c-.43,.43-.86,.86-1.29,1.28v-2.57h0l1.29,1.29Z"/><path class="cls-1" d="M117.27,37.31c.44,.42,.87,.85,1.29,1.28l-1.29,1.29v-2.57Z"/><path class="cls-1" d="M117.27,213.99h0s-9.67,0-9.67,0v-2.95c1.17-1.07,2.31-2.17,3.43-3.29l6.24,6.24Z"/><path class="cls-1" d="M117.27,214v2.57c-2.55,2.48-5.21,4.85-7.96,7.1h-1.71v-9.67h9.67Z"/><path class="cls-1" d="M117.27,204.33v9.66l-6.24-6.24c1.12-1.12,2.21-2.26,3.28-3.43h2.95Z"/><path class="cls-1" d="M117.27,201v3.33h-2.95c1.01-1.09,1.99-2.2,2.95-3.33Z"/><path class="cls-1" d="M117.27,49.55v3.37c-.97-1.15-1.97-2.27-2.99-3.37h2.99Z"/><path class="cls-1" d="M117.27,39.88v9.67h-2.99c-1.07-1.16-2.16-2.3-3.27-3.41l6.26-6.26Z"/><path class="cls-1" d="M117.27,37.31v2.57h-9.67v-9.68h1.69c2.76,2.26,5.42,4.63,7.97,7.11Z"/><path class="cls-1" d="M117.27,39.88l-6.26,6.26c-1.11-1.12-2.25-2.21-3.41-3.27v-2.99h9.67Z"/><path class="cls-1" d="M107.6,223.66h1.71c-.56,.46-1.13,.92-1.71,1.37v-1.37Z"/><path class="cls-1" d="M109.29,30.2h-1.69v-1.36c.57,.44,1.14,.9,1.69,1.36Z"/><path class="cls-1" d="M107.6,223.66v1.37c-.9,.72-1.82,1.42-2.74,2.11l-6.94-3.47v-.02h9.68Z"/><path class="cls-1" d="M107.6,214v9.67h-9.68v-4.64c2.17-1.6,4.29-3.27,6.34-5.02h3.33Z"/><path class="cls-1" d="M107.6,211.04v2.95h-3.33c1.13-.96,2.24-1.95,3.33-2.95Z"/><path class="cls-1" d="M107.6,39.88v2.99c-1.11-1.02-2.24-2.02-3.38-2.99h3.38Z"/><path class="cls-1" d="M107.6,30.2v9.68h-3.38c-2.04-1.74-4.13-3.4-6.29-4.98v-4.67l.06-.03h9.62Z"/><path class="cls-1" d="M107.6,28.84v1.36h-9.62l6.91-3.45c.92,.68,1.82,1.38,2.72,2.09Z"/><path class="cls-1" d="M104.88,26.75l-6.91,3.45h-.06v-8.29c2.38,1.53,4.7,3.15,6.96,4.84Z"/><path class="cls-1" d="M97.92,223.68l6.94,3.47c-2.25,1.68-4.57,3.29-6.94,4.82v-8.28Z"/><path class="cls-1" d="M97.92,223.68v8.28c-.72,.47-1.46,.93-2.19,1.38h-7.48v-7.93c.97-.57,1.92-1.16,2.87-1.76h6.77l.04,.02Z"/><path class="cls-1" d="M97.92,219.02v4.64h-.04l-3.83-1.92c1.31-.88,2.6-1.79,3.87-2.73Z"/><path class="cls-1" d="M97.92,30.22v4.67c-1.27-.94-2.57-1.85-3.88-2.73l3.88-1.94Z"/><path class="cls-1" d="M97.92,30.2v.03l-3.88,1.94c-1-.67-2-1.33-3.02-1.97h6.9Z"/><path class="cls-1" d="M97.92,21.91v8.29h-6.9c-.92-.58-1.84-1.15-2.78-1.7v-7.97h7.48c.73,.45,1.47,.92,2.19,1.38Z"/><path class="cls-1" d="M97.89,223.66h-6.77c.99-.62,1.97-1.26,2.94-1.92l3.83,1.92Z"/><path class="cls-1" d="M95.73,20.53h-7.48v-4.27c2.55,1.34,5.04,2.76,7.48,4.27Z"/><path class="cls-1" d="M88.25,233.35h7.48c-2.44,1.5-4.93,2.93-7.48,4.27v-4.27Z"/><path class="cls-1" d="M88.25,233.35v4.27c-3.15,1.65-6.38,3.18-9.68,4.57v-8.83h9.68Z"/><path class="cls-1" d="M88.25,225.42v7.93h-9.68v-2.82c3.31-1.55,6.54-3.26,9.68-5.11Z"/><path class="cls-1" d="M88.25,20.53v7.97c-3.13-1.85-6.36-3.55-9.68-5.11v-2.87h9.68Z"/><path class="cls-1" d="M88.25,16.26v4.27h-9.68V11.69c3.3,1.38,6.53,2.91,9.68,4.57Z"/><path class="cls-1" d="M78.57,233.35v8.83c-.68,.29-1.36,.57-2.05,.84h-7.63v-8.51c1.05-.37,2.08-.76,3.11-1.17h6.57Z"/><path class="cls-1" d="M78.57,230.52v2.82h-6.57c2.23-.88,4.42-1.82,6.57-2.82Z"/><path class="cls-1" d="M78.57,20.53v2.87c-2.19-1.03-4.43-1.98-6.69-2.87h6.69Z"/><path class="cls-1" d="M78.57,11.69v8.83h-6.69c-.99-.39-1.98-.76-2.99-1.12V10.85h7.63c.69,.27,1.37,.55,2.05,.84Z"/><path class="cls-1" d="M76.52,10.85h-7.63v-2.77c2.59,.84,5.13,1.77,7.63,2.77Z"/><path class="cls-1" d="M68.89,243.02h7.63c-2.5,1-5.04,1.92-7.63,2.77v-2.77Z"/><path class="cls-1" d="M68.89,243.02v2.77c-3.17,1.03-6.4,1.94-9.68,2.72v-5.48h9.68Z"/><path class="cls-1" d="M68.89,234.51v8.51h-9.68v-5.5c3.28-.86,6.51-1.86,9.68-3Z"/><path class="cls-1" d="M68.89,10.85v8.55c-3.16-1.14-6.39-2.14-9.68-3v-5.55h9.68Z"/><path class="cls-1" d="M68.89,8.09v2.77h-9.68V5.37c3.28,.78,6.51,1.69,9.68,2.72Z"/><path class="cls-1" d="M59.21,243.02v5.48c-3.18,.75-6.4,1.39-9.67,1.9v-7.38h9.67Z"/><path class="cls-1" d="M59.21,237.52v5.5h-9.67v-3.42c3.27-.56,6.5-1.25,9.67-2.08Z"/><path class="cls-1" d="M59.21,10.85v5.55c-3.17-.83-6.4-1.52-9.67-2.08v-3.47h9.67Z"/><path class="cls-1" d="M59.21,5.37v5.48h-9.67V3.48c3.27,.51,6.49,1.14,9.67,1.9Z"/><path class="cls-1" d="M49.54,243.02v7.38c-3.19,.5-6.42,.87-9.68,1.12v-8.39l.11-.11h9.58Z"/><path class="cls-1" d="M49.54,239.6v3.42h-9.58l2.43-2.43c2.4-.25,4.79-.58,7.14-.99Z"/><path class="cls-1" d="M49.54,10.85v3.47c-2.38-.41-4.79-.74-7.23-1l-2.45-2.45v-.02h9.68Z"/><path class="cls-1" d="M49.54,3.48v7.38h-9.68V2.35c3.26,.25,6.49,.62,9.68,1.12Z"/><path class="cls-1" d="M42.4,240.58l-2.43,2.43h-.11v-2.19c.85-.07,1.7-.15,2.54-.24Z"/><path class="cls-1" d="M39.86,10.87l2.45,2.45c-.81-.09-1.63-.16-2.45-.23v-2.22Z"/><path class="cls-1" d="M39.86,243.12v8.39c-2.89,.22-5.81,.34-8.75,.36l8.75-8.76Z"/><path class="cls-1" d="M39.86,243.02v.11l-8.75,8.76c-.16,0-.31,0-.46,0l4.43-8.86h4.78Z"/><path class="cls-1" d="M39.86,240.83v2.19h-4.78l.97-1.94c1.28-.06,2.55-.15,3.81-.25Z"/><path class="cls-1" d="M39.86,10.87v2.22c-1.28-.11-2.56-.19-3.85-.26l-.99-1.98h4.82l.02,.02Z"/><path class="cls-1" d="M39.86,2.35V10.85h-.02L30.98,1.99c2.99,.02,5.95,.14,8.88,.36Z"/><path class="cls-1" d="M30.98,1.99l8.86,8.86h-4.82L30.58,1.99c.13,0,.27,0,.4,0Z"/><path class="cls-1" d="M36.05,241.08l-.97,1.94h-4.89v-1.79h.02c1.96,0,3.91-.05,5.84-.15Z"/><path class="cls-1" d="M35.02,10.85l.99,1.98c-1.92-.1-3.85-.15-5.8-.15h-.02v-1.84h4.83Z"/><path class="cls-1" d="M35.08,243.02l-4.43,8.86c-.15,0-.29,0-.44,0h-.02v-8.87h4.89Z"/><path class="cls-1" d="M35.02,10.85h-4.83V1.99h.39l4.44,8.87Z"/><path class="cls-1" d="M30.19,243.02v8.87c-.15,0-.31,0-.46,0l-4.43-8.86h4.89Z"/><path class="cls-1" d="M30.19,241.23v1.79h-4.89l-.97-1.94c1.94,.1,3.89,.15,5.86,.15Z"/><path class="cls-1" d="M30.19,10.85v1.84c-1.95,0-3.89,.05-5.81,.15l.99-1.99h4.82Z"/><path class="cls-1" d="M30.19,1.99V10.85h-4.82L29.8,1.99c.13,0,.26,0,.39,0Z"/><path class="cls-1" d="M29.8,1.99l-4.43,8.86h-4.83S29.4,1.99,29.4,1.99c.13,0,.27,0,.4,0Z"/><path class="cls-1" d="M29.73,251.88c-.16,0-.31,0-.46,0l-8.73-8.74v-.13h4.76l4.43,8.86Z"/><path class="cls-1" d="M29.4,1.99l-8.86,8.86V2.35c2.93-.22,5.88-.35,8.86-.36Z"/><path class="cls-1" d="M20.54,243.14l8.73,8.74c-2.94-.02-5.85-.14-8.73-.36v-8.37Z"/><path class="cls-1" d="M25.36,10.85l-.99,1.99c-1.29,.06-2.57,.15-3.84,.26v-2.24h4.83Z"/><path class="cls-1" d="M24.33,241.08l.97,1.94h-4.76v-2.2c1.26,.11,2.52,.2,3.79,.26Z"/><path class="cls-1" d="M20.54,243.14v8.37c-3.26-.25-6.48-.62-9.67-1.12v-7.38h9.54l.13,.13Z"/><path class="cls-1" d="M20.54,240.82v2.2h-.13l-2.44-2.44c.85,.09,1.71,.17,2.57,.24Z"/><path class="cls-1" d="M20.54,10.85v2.24c-.83,.07-1.65,.15-2.48,.23l2.47-2.47h0Z"/><path class="cls-1" d="M20.54,2.35V10.85h0s0,0,0,0H10.87V3.48c3.18-.5,6.41-.87,9.67-1.12Z"/><path class="cls-1" d="M20.53,10.85l-2.47,2.47c-2.42,.26-4.81,.59-7.19,1v-3.47h9.66Z"/><path class="cls-1" d="M20.41,243.02H10.87v-3.43c2.34,.4,4.71,.73,7.1,.99l2.44,2.44Z"/><path class="cls-1" d="M10.87,250.4v2.28H1.19v-4.18c3.18,.76,6.41,1.39,9.68,1.9Z"/><path class="cls-1" d="M10.87,243.02v7.38c-3.27-.51-6.5-1.14-9.68-1.9v-5.48H10.87Z"/><path class="cls-1" d="M10.87,239.59v3.43H1.19v-5.51c3.17,.83,6.4,1.53,9.68,2.08Z"/><path class="cls-1" d="M10.87,233.48v6.12c-3.27-.55-6.5-1.25-9.68-2.08v-4.16H10.74l.13,.13Z"/><path class="cls-1" d="M10.87,228.7v4.64h-.13l-5.99-5.99c2.02,.51,4.06,.96,6.12,1.35Z"/><path class="cls-1" d="M10.87,223.66v5.04c-2.06-.39-4.1-.84-6.12-1.35l-3.56-3.56v-.13H10.87Z"/><path class="cls-1" d="M10.87,217.84v5.82H1.19v-8.42c3.15,1.04,6.39,1.91,9.68,2.6Z"/><path class="cls-1" d="M10.87,214.13v3.71c-3.29-.69-6.52-1.56-9.68-2.6v-1.25H10.8l.07,.14Z"/><path class="cls-1" d="M10.87,206.9v7.1h-.07l-4.11-8.22c1.37,.41,2.77,.78,4.17,1.12Z"/><path class="cls-1" d="M10.87,204.33v2.57c-1.41-.34-2.8-.71-4.17-1.12l-.72-1.45h4.89Z"/><polygon class="cls-1" points="10.87 199.48 10.87 204.33 5.98 204.33 5.01 202.41 10.87 199.48"/><path class="cls-1" d="M10.87,195.87v3.61l-5.85,2.93-3.82-7.65v-.1H6.98c1.28,.44,2.58,.84,3.89,1.21Z"/><path class="cls-1" d="M10.87,194.66v1.21c-1.31-.37-2.61-.77-3.89-1.21h3.89Z"/><path class="cls-1" d="M10.87,184.98v9.68h-3.89c-1.97-.67-3.9-1.43-5.78-2.27v-7.41H10.87Z"/><path class="cls-1" d="M10.87,184.7v.28H1.19v-4.48c3.07,1.67,6.31,3.08,9.68,4.2Z"/><path class="cls-1" d="M10.87,180.17v4.53c-3.36-1.12-6.6-2.53-9.68-4.2v-5.16l9.68,4.83Z"/><polygon class="cls-1" points="10.87 175.3 10.87 180.17 1.19 175.34 1.19 175.3 10.87 175.3"/><path class="cls-1" d="M10.87,173.31v2H1.19v-7.36c3,2.13,6.24,3.93,9.68,5.37Z"/><path class="cls-1" d="M10.87,165.63v7.68c-3.44-1.43-6.68-3.24-9.68-5.37v-2.31H10.87Z"/><path class="cls-1" d="M10.87,161.45v4.18H1.19v-9.68H3.33c2.28,2.12,4.81,3.96,7.54,5.49Z"/><path class="cls-1" d="M10.87,155.95v5.49c-2.73-1.53-5.26-3.37-7.54-5.49h7.54Z"/><path class="cls-1" d="M10.87,152.32v3.64H3.33c-.37-.34-.73-.69-1.09-1.05l5.41-5.41c1.01,1.01,2.09,1.95,3.22,2.82Z"/><path class="cls-1" d="M10.87,146.28v6.04c-1.14-.87-2.21-1.81-3.22-2.82l3.22-3.22Z"/><path class="cls-1" d="M10.87,141.61v4.67H4.83c-1.42-1.87-2.65-3.89-3.64-6.05v-3.62H7.94c.78,1.79,1.77,3.47,2.93,4.99Z"/><path class="cls-1" d="M10.87,136.61v4.99c-1.16-1.53-2.15-3.21-2.93-4.99h2.93Z"/><path class="cls-1" d="M10.87,126.96v9.65h-2.93c-1.28-2.96-2-6.22-2-9.65h4.93Z"/><path class="cls-1" d="M10.87,117.29v9.67H5.94v-.02c0-3.43,.71-6.69,2-9.65h2.93Z"/><path class="cls-1" d="M10.87,112.27v5.01h-2.93c.77-1.8,1.77-3.48,2.93-5.01Z"/><path class="cls-1" d="M10.87,107.6v4.67c-1.17,1.54-2.16,3.22-2.93,5.01H1.19v-3.64c.99-2.15,2.21-4.18,3.63-6.04h6.05Z"/><path class="cls-1" d="M10.87,107.59h0s-6.05,.01-6.05,.01c.87-1.14,1.81-2.22,2.82-3.23l3.22,3.22Z"/><path class="cls-1" d="M10.87,101.55v6.04l-3.22-3.22c1.01-1.01,2.09-1.95,3.22-2.82Z"/><path class="cls-1" d="M10.87,97.93v3.62c-1.14,.87-2.21,1.81-3.22,2.82l-5.4-5.4c.35-.36,.71-.7,1.08-1.04h7.55Z"/><path class="cls-1" d="M10.87,92.43v5.5H3.32c2.28-2.12,4.81-3.97,7.55-5.5Z"/><path class="cls-1" d="M10.87,88.26v4.17c-2.74,1.53-5.27,3.38-7.55,5.5H1.21l-.02-.02v-9.66H10.87Z"/><path class="cls-1" d="M10.87,80.55v7.71H1.19v-2.34c3-2.13,6.24-3.93,9.68-5.37Z"/><path class="cls-1" d="M10.87,78.57v1.98c-3.44,1.43-6.68,3.24-9.68,5.37v-7.34H10.87Z"/><polygon class="cls-1" points="10.87 73.73 10.87 78.57 1.19 78.57 10.87 73.73"/><path class="cls-1" d="M10.87,69.18v4.55l-9.68,4.84v-5.19c3.07-1.67,6.31-3.08,9.68-4.2Z"/><path class="cls-1" d="M10.87,68.9v.29c-3.36,1.12-6.6,2.53-9.68,4.2v-4.49H10.87Z"/><path class="cls-1" d="M10.87,59.22v9.67H1.19v-7.41c1.88-.83,3.81-1.59,5.77-2.26h3.91Z"/><path class="cls-1" d="M10.87,58.01v1.22h-3.91c1.29-.44,2.59-.85,3.91-1.22Z"/><path class="cls-1" d="M10.87,54.41v3.6c-1.32,.37-2.62,.77-3.91,1.22H1.19v-.02l3.85-7.71,5.82,2.91Z"/><polygon class="cls-1" points="10.87 49.55 10.87 54.41 5.04 51.5 6.02 49.55 10.87 49.55"/><path class="cls-1" d="M10.87,46.97v2.58H6.02l.73-1.47c1.36-.41,2.73-.77,4.11-1.11Z"/><path class="cls-1" d="M10.87,39.88v7.09c-1.38,.33-2.76,.7-4.11,1.11l4.1-8.2h.02Z"/><path class="cls-1" d="M10.87,36.02v3.83l-.02,.03H1.19v-1.26c3.15-1.04,6.39-1.91,9.68-2.6Z"/><path class="cls-1" d="M10.87,30.2v5.82c-3.29,.69-6.52,1.56-9.68,2.6v-8.42H10.87Z"/><path class="cls-1" d="M10.87,25.15v5.05H1.19s3.74-3.75,3.74-3.75c1.96-.49,3.94-.93,5.94-1.3Z"/><path class="cls-1" d="M10.87,20.53v4.62c-2,.38-3.98,.81-5.94,1.3l5.93-5.92h.01Z"/><path class="cls-1" d="M10.87,14.32v6.19h-.01s-9.67,.01-9.67,.01v-4.12c3.17-.83,6.4-1.53,9.68-2.08Z"/><path class="cls-1" d="M10.87,10.85v3.47c-3.27,.55-6.5,1.25-9.68,2.08v-5.55H10.87Z"/><path class="cls-1" d="M10.87,3.48v7.38H1.19V5.38c3.18-.76,6.41-1.39,9.68-1.9Z"/><path class="cls-1" d="M10.87,1.2V3.48c-3.27,.51-6.5,1.14-9.68,1.9V1.2H10.87Z"/><path class="cls-1" d="M10.87,146.28l-3.22,3.22c-1.01-1.01-1.95-2.09-2.82-3.22h6.04Z"/><path class="cls-1" d="M10.86,20.53l-5.93,5.92c-1.26,.32-2.5,.65-3.74,1.02v-6.94H10.86Z"/><path class="cls-1" d="M10.85,39.88l-4.1,8.2c-1.51,.45-3,.94-4.47,1.47H1.19v-9.67H10.85Z"/><path class="cls-1" d="M10.8,214H1.19v-9.67h1.1c1.45,.52,2.91,1.01,4.4,1.45l4.11,8.22Z"/><path class="cls-1" d="M4.75,227.36l5.99,5.99H1.19v-6.96c1.18,.35,2.36,.67,3.56,.97Z"/><path class="cls-1" d="M7.94,136.61H1.19v-9.65H5.94c0,3.43,.72,6.69,2,9.65Z"/><path class="cls-1" d="M1.19,117.29H7.94c-1.29,2.96-2,6.22-2,9.65v.02H1.19v-9.67Z"/><path class="cls-1" d="M7.64,149.5l-5.41,5.41c-.36-.36-.7-.72-1.05-1.09v-7.54h3.64c.87,1.14,1.81,2.21,2.82,3.22Z"/><path class="cls-1" d="M2.24,98.97l5.4,5.4c-1.01,1.01-1.96,2.09-2.82,3.23H1.19v-7.54c.34-.37,.69-.73,1.05-1.09h0Z"/><path class="cls-1" d="M6.98,194.66H1.19v-2.27c1.89,.84,3.81,1.59,5.78,2.27Z"/><path class="cls-1" d="M1.19,59.22H6.96c-1.96,.67-3.89,1.43-5.77,2.26v-2.26Z"/><path class="cls-1" d="M6.75,48.08l-.73,1.47H2.29c1.47-.53,2.96-1.02,4.47-1.47Z"/><path class="cls-1" d="M5.98,204.33l.72,1.45c-1.49-.44-2.95-.93-4.4-1.45h3.68Z"/><path class="cls-1" d="M6.02,49.55l-.98,1.95-3.42-1.71c.22-.09,.44-.17,.66-.24h3.73Z"/><path class="cls-1" d="M5.98,204.33H2.29c-.22-.08-.43-.16-.65-.24l3.37-1.68,.96,1.92Z"/><path class="cls-1" d="M5.04,51.5l-3.85,7.71v-9.26c.15-.06,.29-.11,.43-.16l3.42,1.71Z"/><path class="cls-1" d="M5.01,202.41l-3.37,1.68c-.15-.06-.3-.11-.45-.17v-9.16l3.82,7.65Z"/><path class="cls-1" d="M4.93,26.45l-3.74,3.74v-2.72c1.23-.36,2.48-.7,3.74-1.02Z"/><path class="cls-1" d="M4.83,146.28H1.19v-6.05c.99,2.16,2.21,4.18,3.64,6.05Z"/><path class="cls-1" d="M1.19,107.6h3.63c-1.42,1.86-2.65,3.89-3.63,6.04v-6.04Z"/><path class="cls-1" d="M1.19,223.79l3.56,3.56c-1.2-.3-2.38-.62-3.56-.97v-2.59Z"/><path class="cls-1" d="M3.33,155.95H1.19l1.05-1.05c.36,.36,.72,.7,1.09,1.05Z"/><path class="cls-1" d="M1.21,97.93H3.32c-.37,.34-.72,.68-1.08,1.04h0l-1.03-1.04Z"/><path class="cls-1" d="M2.29,204.33H1.19s.45-.24,.45-.24c.22,.08,.43,.16,.65,.24Z"/><path class="cls-1" d="M1.21,97.93l1.03,1.04c-.36,.36-.7,.72-1.05,1.09v-2.13h.02Z"/><path class="cls-1" d="M2.24,154.91l-1.05,1.05v-2.14c.34,.37,.69,.73,1.05,1.09Z"/><path class="cls-1" d="M1.64,204.09l-.45,.23v-.4c.15,.06,.3,.12,.45,.17Z"/></g></svg>