<?xml version="1.0" encoding="UTF-8"?><svg id="Layer_7" xmlns="http://www.w3.org/2000/svg" viewBox="0 0 149.81 251.21"><defs><style>.cls-1{fill:none;stroke:#e30613;stroke-miterlimit:10;}.cls-2{fill:#e30613;}.cls-3{fill:#1d1d1b;}</style></defs><path class="cls-3" d="M80.56,126.01c0-4.19,.83-7.96,2.17-10.61,.23-.46,2.14,7.48,2.52,7.24,.32-.2-1.25-9.24-.97-9.55,.93-1.02,1.99-1.59,3.11-1.59,3.77,0,6.83,6.5,6.83,14.52s-3.06,14.52-6.83,14.52-6.83-6.5-6.83-14.52Z"/><g><g><path class="cls-2" d="M149.62,125.52l-2.14,4.28c.11-1.42,.16-2.87,.16-4.32h1.96l.02,.04Z"/><path class="cls-2" d="M147.49,121.26l2.11,4.23h-1.96v-.02c0-1.41-.05-2.82-.15-4.21Z"/><path class="cls-2" d="M147.63,125.47v.02h-2.85v-9.63l2.71,5.41c.1,1.39,.15,2.8,.15,4.21Z"/><path class="cls-2" d="M144.78,125.49h2.85c0,1.45-.05,2.89-.16,4.32l-2.65,5.3h-.05v-9.62Z"/><path class="cls-2" d="M144.78,125.49v9.62h-8.72c.61-3.11,.93-6.33,.93-9.62h7.79Z"/><path class="cls-2" d="M144.78,115.86v9.63h-7.79v-.03c0-3.29-.32-6.5-.93-9.61h8.72Z"/><path class="cls-2" d="M136.99,125.46v.03h-1.85v-9.64h.93c.61,3.11,.93,6.32,.93,9.61Z"/><path class="cls-2" d="M135.13,125.49h1.85c0,3.29-.32,6.51-.93,9.62h-.92v-9.62Z"/><path class="cls-2" d="M135.13,125.49v9.62h-9.65v-1.39c.57-2.66,.87-5.41,.87-8.23h8.78Z"/><path class="cls-2" d="M135.13,115.85v9.64h-8.78v-.02c0-2.83-.3-5.59-.87-8.25v-1.37h9.65Z"/><path class="cls-2" d="M126.35,125.47v.02h-.87v-8.27c.57,2.66,.87,5.42,.87,8.25Z"/><path class="cls-2" d="M125.49,125.49h.87c0,2.82-.3,5.57-.87,8.23v-8.23Z"/><path class="cls-2" d="M125.49,133.72v1.39h-.33c.12-.46,.23-.92,.33-1.39Z"/><path class="cls-2" d="M125.49,125.49v8.23c-.1,.47-.21,.93-.33,1.39h-7.9c.97-3.03,1.49-6.27,1.49-9.62h6.74Z"/><path class="cls-2" d="M125.49,117.22v8.27h-6.74v-.02c0-3.35-.52-6.58-1.48-9.62h7.89c.12,.45,.23,.91,.32,1.37Z"/><path class="cls-2" d="M125.49,115.85v1.37c-.1-.46-.2-.92-.32-1.37h.32Z"/><path class="cls-2" d="M118.75,125.47v.02h-2.91v-9.64h1.43c.96,3.04,1.48,6.27,1.48,9.62Z"/><path class="cls-2" d="M115.84,125.49h2.91c0,3.35-.52,6.59-1.49,9.62h-1.42v-9.62Z"/><path class="cls-2" d="M117.27,115.85h-1.43v-3.68c.55,1.19,1.03,2.42,1.43,3.68Z"/><path class="cls-2" d="M115.84,135.11h1.42c-.4,1.26-.87,2.48-1.42,3.66v-3.66Z"/><path class="cls-2" d="M115.84,135.11v3.66c-.98,2.13-2.19,4.13-3.6,5.97h-6.03v-4.65c1.16-1.53,2.15-3.2,2.93-4.98h6.71Z"/><path class="cls-2" d="M115.84,125.49v9.62h-6.71c1.28-2.95,1.99-6.2,1.99-9.62h4.71Z"/><path class="cls-2" d="M115.84,115.85v9.64h-4.71v-.02c0-3.42-.71-6.67-1.99-9.62h6.7Z"/><path class="cls-2" d="M115.84,112.17v3.68h-6.7c-.78-1.79-1.76-3.47-2.93-5v-4.65h6.04c1.41,1.84,2.62,3.84,3.59,5.96Z"/><path class="cls-2" d="M112.24,106.2h-6.04l3.22-3.22h0c1.01,1.01,1.95,2.09,2.81,3.22Z"/><path class="cls-2" d="M106.21,144.74h6.02c-.86,1.14-1.8,2.21-2.81,3.21l-3.21-3.21Z"/><path class="cls-2" d="M109.43,102.98l-3.22,3.22v-6.04c1.14,.87,2.22,1.81,3.22,2.82Z"/><path class="cls-2" d="M106.21,144.74l3.21,3.21c-1.01,1.01-2.09,1.95-3.22,2.82v-6.03h.01Z"/><path class="cls-2" d="M106.2,144.74v6.03c-1.85,1.41-3.87,2.63-6.01,3.61h-3.63v-6.72c1.79-.77,3.46-1.76,5-2.92h4.65Z"/><path class="cls-2" d="M106.2,144.73h0s-4.65,.01-4.65,.01c.88-.67,1.71-1.39,2.49-2.17l2.17,2.16Z"/><path class="cls-2" d="M106.2,140.09v4.64l-2.17-2.16h0c.78-.78,1.5-1.6,2.17-2.48Z"/><path class="cls-2" d="M106.2,106.2v4.65c-.67-.88-1.39-1.7-2.17-2.48l2.17-2.17Z"/><path class="cls-2" d="M106.2,100.16v6.04h-4.65c-1.53-1.17-3.21-2.16-5-2.93v-6.71h3.66c2.13,.98,4.14,2.19,5.98,3.59Z"/><path class="cls-2" d="M106.2,106.2l-2.17,2.17c-.78-.78-1.6-1.5-2.48-2.17h4.65Z"/><path class="cls-2" d="M100.22,96.56h-3.66v-1.42c1.26,.4,2.48,.87,3.66,1.42Z"/><path class="cls-2" d="M96.55,154.39h3.63c-1.17,.54-2.39,1.01-3.63,1.4v-1.4Z"/><path class="cls-2" d="M96.55,241.15v.18l-8.64,8.66c-.16,0-.33,0-.49,0l4.41-8.83h4.72Z"/><path class="cls-2" d="M96.55,154.39v1.4c-3.03,.96-6.27,1.48-9.61,1.48h-.03v-2.88h9.64Z"/><path class="cls-2" d="M96.55,147.66v6.72h-9.64v-4.73h.02c3.42,0,6.67-.71,9.62-1.99Z"/><path class="cls-2" d="M96.55,96.56v6.71c-2.95-1.28-6.2-1.99-9.62-1.99h-.02v-4.72h9.64Z"/><path class="cls-2" d="M96.55,95.14v1.42h-9.64v-2.9h.03c3.35,0,6.58,.52,9.61,1.48Z"/><path class="cls-2" d="M96.55,9.63v.16h-4.82L87.32,.95c.19,0,.38,0,.57,0l8.67,8.68Z"/><path class="cls-2" d="M91.84,241.15l-4.41,8.83c-.17,0-.33,0-.49,0h-.02v-8.84h4.92Z"/><path class="cls-2" d="M87.32,.95l4.42,8.84h-4.82V.95h.41Z"/><path class="cls-2" d="M87.92,249.98l-.8,.8h-.1l.4-.8c.17,0,.33,0,.49,0Z"/><path class="cls-2" d="M87.32,.95h-.41V.16h.18l.79,.79c-.19,0-.38,0-.57,0Z"/><path class="cls-2" d="M87.43,249.98l-.4,.8h-.11v-.79h.02c.17,0,.33,0,.49,0Z"/><path class="cls-2" d="M86.92,249.99v.79h-.07l-.4-.8c.16,0,.32,0,.47,0Z"/><path class="cls-2" d="M86.92,241.15v8.84c-.16,0-.32,0-.47,0l-4.42-8.83h4.89Z"/><path class="cls-2" d="M86.92,154.39v2.88c-3.35,0-6.59-.53-9.62-1.49v-1.39h9.62Z"/><path class="cls-2" d="M86.92,149.65v4.73h-9.62v-6.73c2.95,1.28,6.2,1.99,9.62,1.99Z"/><path class="cls-2" d="M86.92,96.56v4.72c-3.42,0-6.67,.72-9.62,1.99v-6.71h9.62Z"/><path class="cls-2" d="M86.92,93.67v2.9h-9.62v-1.41c3.03-.96,6.27-1.48,9.62-1.49Z"/><path class="cls-2" d="M86.92,.95V9.78h-4.82L86.51,.95c.14,0,.27,0,.4,0Z"/><path class="cls-2" d="M86.92,.16V.95c-.14,0-.27,0-.4,0l.4-.79h0Z"/><path class="cls-2" d="M86.91,.16l-.4,.79c-.16,0-.31,0-.46,0l.79-.79h.07Z"/><path class="cls-2" d="M86.84,.16l-.79,.79c-2.95,.02-5.86,.14-8.76,.36V.16h9.55Z"/><path class="cls-2" d="M86.84,250.78h-.1l-.8-.8c.16,0,.33,0,.49,0l.4,.8Z"/><path class="cls-2" d="M85.95,249.98l.8,.8h-9.45v-1.16c2.86,.22,5.74,.34,8.66,.36Z"/><path class="cls-2" d="M86.51,.95l-4.42,8.83h-4.8v-.06L86.05,.95c.16,0,.31,0,.46,0Z"/><path class="cls-2" d="M82.03,241.15l4.42,8.83c-.17,0-.33,0-.49,0l-8.66-8.67v-.16h4.73Z"/><path class="cls-2" d="M86.05,.95l-8.76,8.77V1.31c2.89-.22,5.81-.34,8.76-.36Z"/><path class="cls-2" d="M77.3,241.31l8.66,8.67c-2.91-.02-5.8-.15-8.66-.36v-8.31Z"/><path class="cls-2" d="M77.3,249.62v1.16h-9.63v-2.28c3.17,.5,6.39,.87,9.63,1.12Z"/><path class="cls-2" d="M77.3,241.31v8.31c-3.25-.25-6.46-.62-9.63-1.12v-7.35h9.47l.16,.16Z"/><path class="cls-2" d="M77.3,154.39v1.39c-1.23-.39-2.44-.86-3.6-1.39h3.6Z"/><path class="cls-2" d="M77.3,147.66v6.73h-3.6c-2.15-.99-4.17-2.21-6.03-3.62v-6.02h4.66c1.52,1.16,3.2,2.14,4.98,2.92Z"/><path class="cls-2" d="M77.3,96.56v6.71c-1.78,.78-3.45,1.76-4.98,2.93h-4.65v-6.03c1.85-1.41,3.86-2.63,6-3.61h3.63Z"/><path class="cls-2" d="M77.3,95.15v1.41h-3.63c1.17-.54,2.39-1.01,3.63-1.41Z"/><path class="cls-2" d="M77.3,1.31V9.72l-.06,.06h-9.57V2.43c3.17-.5,6.39-.87,9.63-1.12Z"/><path class="cls-2" d="M77.3,.16V1.31c-3.25,.25-6.46,.62-9.63,1.12V.16h9.63Z"/><path class="cls-2" d="M72.32,144.74h-4.66l2.17-2.17c.78,.78,1.61,1.5,2.49,2.17Z"/><path class="cls-2" d="M67.67,106.2h4.64c-.88,.66-1.7,1.38-2.48,2.17h0l-2.16-2.17Z"/><path class="cls-2" d="M67.67,106.2l2.16,2.17c-.78,.78-1.5,1.61-2.17,2.49v-4.65h.01Z"/><path class="cls-2" d="M69.83,142.57l-2.17,2.17v-4.66c.67,.88,1.39,1.71,2.17,2.49Z"/><path class="cls-2" d="M67.66,248.5v2.28h-9.64v-4.17c3.17,.76,6.39,1.39,9.64,1.89Z"/><path class="cls-2" d="M67.66,241.15v7.35c-3.26-.51-6.48-1.14-9.64-1.89v-5.46h9.64Z"/><path class="cls-2" d="M67.66,144.74v6.02c-1.13-.86-2.21-1.8-3.21-2.81h0s3.21-3.21,3.21-3.21Z"/><path class="cls-2" d="M67.66,140.09v4.66h-6.01c-1.43-1.86-2.65-3.88-3.63-6.03v-3.6h6.73c.78,1.78,1.76,3.45,2.92,4.98Z"/><path class="cls-2" d="M67.66,106.2v4.65c-1.16,1.53-2.15,3.21-2.92,5h-6.72v-3.62c.98-2.15,2.2-4.17,3.62-6.03h6.02Z"/><path class="cls-2" d="M67.66,106.19h0s-6.02,.01-6.02,.01c.86-1.13,1.8-2.21,2.81-3.22l3.21,3.21Z"/><path class="cls-2" d="M67.66,100.17v6.02l-3.21-3.21c1-1,2.07-1.94,3.21-2.81Z"/><path class="cls-2" d="M67.66,2.43v7.35h-9.64V4.32c3.17-.76,6.39-1.39,9.64-1.89Z"/><path class="cls-2" d="M67.66,.16V2.43c-3.26,.51-6.48,1.14-9.64,1.89V.16h9.64Z"/><path class="cls-2" d="M67.66,144.74l-3.21,3.21c-1.01-1-1.95-2.08-2.81-3.21h6.01Z"/><path class="cls-2" d="M64.75,135.11h-6.73v-9.62h4.73c0,3.42,.72,6.67,1.99,9.62Z"/><path class="cls-2" d="M58.02,115.85h6.72c-1.28,2.95-1.99,6.2-1.99,9.62v.02h-4.73v-9.64Z"/><path class="cls-2" d="M58.02,246.61v4.17h-9.64v-6.88c3.16,1.03,6.38,1.93,9.64,2.71Z"/><path class="cls-2" d="M58.02,241.15v5.46c-3.27-.77-6.49-1.68-9.64-2.71v-2.75h9.64Z"/><path class="cls-2" d="M58.02,135.11v3.6c-.54-1.16-1-2.37-1.39-3.6h1.39Z"/><path class="cls-2" d="M58.02,125.49v9.62h-1.39c-.97-3.03-1.49-6.27-1.49-9.62h2.88Z"/><path class="cls-2" d="M58.02,115.85v9.64h-2.88v-.02c0-3.35,.52-6.58,1.48-9.62h1.4Z"/><path class="cls-2" d="M58.02,112.23v3.62h-1.4c.4-1.24,.86-2.45,1.4-3.62Z"/><path class="cls-2" d="M58.02,4.32v5.46h-9.64v-2.75c3.16-1.03,6.38-1.93,9.64-2.71Z"/><path class="cls-2" d="M58.02,.16V4.32c-3.27,.77-6.49,1.68-9.64,2.71V.16h9.64Z"/><path class="cls-2" d="M56.63,135.11h-7.91c-.13-.48-.24-.96-.34-1.44v-8.18h6.76c0,3.35,.52,6.59,1.49,9.62Z"/><path class="cls-2" d="M48.71,115.85h7.91c-.96,3.04-1.48,6.27-1.48,9.62v.02h-6.76v-8.22c.1-.48,.21-.95,.33-1.42Z"/><path class="cls-2" d="M48.71,135.11h-.34v-1.44c.1,.48,.21,.96,.34,1.44Z"/><path class="cls-2" d="M48.37,115.85h.33c-.13,.47-.23,.94-.33,1.42v-1.42Z"/><path class="cls-2" d="M48.37,243.9v6.88h-9.64v-9.63h2.05c2.49,1,5.02,1.91,7.59,2.75Z"/><path class="cls-2" d="M48.37,241.15v2.75c-2.57-.84-5.1-1.75-7.59-2.75h7.59Z"/><path class="cls-2" d="M48.37,133.67v1.44h-9.64v-9.62h8.78c0,2.8,.3,5.54,.86,8.18Z"/><path class="cls-2" d="M48.37,125.49v8.18c-.56-2.64-.86-5.38-.86-8.18h.86Z"/><path class="cls-2" d="M48.37,117.27v8.22h-.86v-.02c0-2.81,.3-5.55,.86-8.2Z"/><path class="cls-2" d="M48.37,115.85v1.42c-.56,2.65-.86,5.39-.86,8.2v.02h-8.78v-9.64h9.64Z"/><path class="cls-2" d="M48.37,7.03v2.75h-7.59c2.49-1,5.02-1.91,7.59-2.75Z"/><path class="cls-2" d="M48.37,.16V7.03c-2.57,.84-5.1,1.75-7.59,2.75h-2.05V.16h9.64Z"/><rect class="cls-2" x="29.1" y="241.15" width="9.64" height="9.63"/><path class="cls-2" d="M38.74,125.49v9.62h-.93c-.61-3.11-.93-6.33-.93-9.62h1.86Z"/><path class="cls-2" d="M38.74,115.85v9.64h-1.86v-.03c0-3.29,.32-6.5,.93-9.61h.94Z"/><rect class="cls-2" x="29.1" y=".16" width="9.64" height="9.62"/><path class="cls-2" d="M37.8,135.11h-8.71v-9.62h7.77c0,3.29,.32,6.51,.93,9.62Z"/><path class="cls-2" d="M29.1,115.85h8.7c-.61,3.11-.93,6.32-.93,9.61v.03h-7.77v-9.64Z"/><rect class="cls-2" x="19.45" y="241.15" width="9.65" height="9.63"/><path class="cls-2" d="M29.1,125.49v9.62h-.07l-2.62-5.25c-.11-1.44-.16-2.9-.16-4.37h2.85Z"/><path class="cls-2" d="M29.1,115.85v9.64h-2.85v-.02c0-1.43,.05-2.86,.15-4.27l2.68-5.36h.02Z"/><rect class="cls-2" x="19.45" y=".16" width="9.65" height="9.62"/><path class="cls-2" d="M29.08,115.85l-2.68,5.36c.12-1.81,.33-3.6,.61-5.36h2.07Z"/><path class="cls-2" d="M29.03,135.11h-2.02c-.28-1.72-.48-3.47-.6-5.25l2.62,5.25Z"/><path class="cls-2" d="M19.45,115.85h7.56c-.29,1.76-.49,3.55-.61,5.36l-2.14,4.28h-.04l-4.77-9.54v-.1Z"/><path class="cls-2" d="M27.01,135.11h-7.56l4.79-9.58,2.17,4.33c.12,1.77,.33,3.52,.6,5.25Z"/><path class="cls-2" d="M26.41,129.86l-2.17-4.33,.02-.04h1.99c0,1.47,.06,2.93,.16,4.37Z"/><path class="cls-2" d="M24.26,125.49l2.14-4.28c-.1,1.41-.15,2.83-.15,4.27v.02h-1.99Z"/><polygon class="cls-2" points="24.22 125.49 24.23 125.53 19.45 135.11 19.45 125.49 24.22 125.49"/><polygon class="cls-2" points="24.22 125.49 19.45 125.49 19.45 115.95 24.22 125.49"/><polygon class="cls-2" points="19.45 241.15 19.45 250.78 9.81 250.78 9.81 250.71 9.81 241.15 19.45 241.15"/><path class="cls-2" d="M19.45,125.49v9.62h-3.2c-.43-3.15-.65-6.36-.65-9.62h3.84Z"/><path class="cls-2" d="M19.45,115.95v9.54h-3.84v-.02c0-3.26,.22-6.47,.64-9.62h3.15l.05,.1Z"/><rect class="cls-2" x="9.81" y=".16" width="9.64" height="9.62"/><path class="cls-2" d="M16.25,135.11h-6.44v-9.62h5.79c0,3.26,.22,6.47,.65,9.62Z"/><path class="cls-2" d="M9.81,115.85h6.44c-.42,3.15-.64,6.36-.64,9.62v.02h-5.79v-9.64Z"/><path class="cls-2" d="M9.81,48.34h0s-6.66,0-6.66,0c1.07-1.15,2.16-2.29,3.26-3.4l3.39,3.39Z"/><path class="cls-2" d="M9.81,154.39h0s-4.82,9.64-4.82,9.64H2.71c-.92-1.99-1.76-4.03-2.54-6.1v-3.54H9.81Z"/><polygon class="cls-2" points="9.81 250.71 9.81 250.78 .18 250.78 .18 250.63 .18 241.15 9.81 241.15 9.81 250.71"/><rect class="cls-2" x=".18" y="231.51" width="9.63" height="9.64"/><polygon class="cls-2" points="9.81 226.68 9.81 231.51 .18 231.51 .18 231.5 9.81 226.68"/><path class="cls-2" d="M9.81,223.23v3.46L.18,231.5v-9.64h7.93c.56,.46,1.13,.92,1.7,1.36Z"/><path class="cls-2" d="M9.81,221.86v1.36c-.57-.45-1.14-.9-1.7-1.36h1.7Z"/><path class="cls-2" d="M9.81,212.23v9.63h-1.7c-2.75-2.25-5.39-4.61-7.93-7.08v-2.56H9.81Z"/><path class="cls-2" d="M9.81,209.29v2.94H.18l6.22-6.22c1.11,1.11,2.26,2.21,3.41,3.27Z"/><path class="cls-2" d="M9.81,202.6v6.69c-1.16-1.07-2.3-2.16-3.41-3.27h0s3.41-3.42,3.41-3.42Z"/><path class="cls-2" d="M9.81,194.08v8.52H3.12c-1-1.09-1.98-2.2-2.94-3.32v-6.32H8.82c.33,.38,.66,.75,.99,1.12Z"/><path class="cls-2" d="M9.81,192.96v1.12c-.33-.37-.66-.75-.99-1.12h.99Z"/><path class="cls-2" d="M9.81,183.31v9.65h-.99c-2.65-3.06-5.13-6.29-7.4-9.65H9.81Z"/><path class="cls-2" d="M9.81,176.75v6.56H1.42c-.43-.62-.84-1.24-1.24-1.87v-7.76H7.85c.63,1.04,1.28,2.07,1.96,3.08Z"/><path class="cls-2" d="M9.81,173.72v3.02c-.68-1.01-1.33-2.04-1.96-3.08h1.9l.06,.06Z"/><path class="cls-2" d="M9.81,164.02v9.64h-.06l-4.48-4.49c-.5-.93-.98-1.86-1.45-2.81l1.17-2.34h4.82Z"/><polygon class="cls-2" points="9.81 154.39 9.81 164.02 4.99 164.02 9.81 154.39"/><path class="cls-2" d="M9.81,153.28v1.1H.18v-9.49l8.23,4.14c.43,1.43,.9,2.86,1.4,4.26Z"/><path class="cls-2" d="M9.81,149.73v3.55c-.51-1.4-.98-2.82-1.4-4.26l1.4,.71Z"/><path class="cls-2" d="M9.81,144.74v4.99l-1.4-.71c-.43-1.41-.81-2.84-1.16-4.29h2.56Z"/><path class="cls-2" d="M9.81,135.11v9.63h-2.56c-.76-3.14-1.34-6.36-1.72-9.63h4.28Z"/><path class="cls-2" d="M9.81,125.49v9.62H5.53c-.37-3.16-.56-6.37-.56-9.62h4.84Z"/><path class="cls-2" d="M9.81,115.85v9.64H4.97v-.02c0-3.25,.19-6.47,.56-9.62h4.28Z"/><path class="cls-2" d="M9.81,106.2v9.65H5.53c.38-3.28,.96-6.5,1.72-9.65h2.56Z"/><path class="cls-2" d="M9.81,101.5v4.7h-2.56c.32-1.33,.67-2.64,1.05-3.94l1.51-.75Z"/><path class="cls-2" d="M9.81,97.65v3.85l-1.51,.75c.46-1.55,.96-3.09,1.51-4.61Z"/><path class="cls-2" d="M9.81,96.66v.99c-.55,1.51-1.05,3.05-1.51,4.61l-7.9,3.94H.18v-9.64H9.76l.05,.1Z"/><polygon class="cls-2" points="9.81 86.92 9.81 96.56 9.76 96.56 4.94 86.92 9.81 86.92"/><path class="cls-2" d="M9.81,77.32v9.59H4.94l-1.14-2.29c.43-.88,.88-1.75,1.33-2.61l4.68-4.69Z"/><path class="cls-2" d="M9.81,77.27v.06l-4.68,4.69c.86-1.61,1.76-3.19,2.72-4.75h1.96Z"/><path class="cls-2" d="M9.81,74.18v3.09h-1.96c.63-1.04,1.29-2.08,1.96-3.09Z"/><path class="cls-2" d="M9.81,67.63v6.56c-.68,1.01-1.33,2.05-1.96,3.09H.18v-7.79c.4-.62,.81-1.24,1.23-1.85H9.81Z"/><path class="cls-2" d="M9.81,57.99v9.64H1.4c2.28-3.36,4.75-6.58,7.39-9.64h1.01Z"/><path class="cls-2" d="M9.81,56.83v1.15h-1.01c.34-.39,.67-.77,1.01-1.15Z"/><path class="cls-2" d="M9.81,48.34v8.49c-.34,.38-.68,.77-1.01,1.15H.18v-6.28c.97-1.14,1.96-2.26,2.98-3.36h6.66Z"/><path class="cls-2" d="M9.81,41.69v6.65l-3.39-3.39c1.11-1.11,2.24-2.2,3.39-3.25Z"/><path class="cls-2" d="M9.81,38.71v2.98c-1.15,1.06-2.29,2.15-3.39,3.25L.18,38.71H9.81Z"/><path class="cls-2" d="M9.81,29.06v9.65H.18v-2.56c2.55-2.47,5.19-4.84,7.94-7.09h1.69Z"/><path class="cls-2" d="M9.81,27.71v1.35h-1.69c.56-.46,1.12-.91,1.69-1.35Z"/><path class="cls-2" d="M9.81,24.35v3.36c-.57,.44-1.13,.9-1.69,1.35H.18v-9.53l9.63,4.82Z"/><polygon class="cls-2" points="9.81 19.42 9.81 24.35 .18 19.53 .18 19.42 9.81 19.42"/><rect class="cls-2" x=".18" y="9.78" width="9.63" height="9.64"/><rect class="cls-2" x=".18" y=".16" width="9.63" height="9.62"/><path class="cls-2" d="M9.81,202.6l-3.41,3.41c-1.12-1.11-2.21-2.26-3.28-3.41h6.69Z"/><path class="cls-2" d="M4.94,86.92l4.82,9.64H.18v-3.56c.77-2.07,1.61-4.1,2.53-6.09h2.23Z"/><path class="cls-2" d="M5.27,169.18l4.48,4.49h-1.9c-.9-1.47-1.76-2.97-2.58-4.49Z"/><path class="cls-2" d="M8.82,192.96H.18v-9.65H1.42c2.28,3.36,4.75,6.59,7.4,9.65Z"/><path class="cls-2" d="M.18,57.99H8.8c-2.65,3.06-5.12,6.28-7.39,9.64H.18v-9.64Z"/><path class="cls-2" d="M8.41,149.03L.18,144.89v-.15H7.25c.35,1.44,.73,2.87,1.16,4.29Z"/><path class="cls-2" d="M.4,106.2l7.9-3.94c-.39,1.3-.74,2.62-1.05,3.94H.4Z"/><path class="cls-2" d="M.18,29.06h7.94c-2.75,2.25-5.4,4.62-7.94,7.09v-7.09Z"/><path class="cls-2" d="M8.11,221.86H.18v-7.08c2.54,2.47,5.19,4.83,7.93,7.08Z"/><path class="cls-2" d="M7.85,173.67H.18s3.19-6.4,3.19-6.4l1.9,1.9c.82,1.52,1.67,3.02,2.58,4.49Z"/><path class="cls-2" d="M.18,77.27H7.84c-.95,1.55-1.86,3.14-2.72,4.75l-1.76,1.76L.18,77.39v-.12Z"/><path class="cls-2" d="M.4,106.2H7.25c-.76,3.15-1.34,6.37-1.72,9.65H.18v-9.53l.23-.12Z"/><path class="cls-2" d="M7.25,144.74H.18v-9.63H5.53c.38,3.27,.96,6.49,1.72,9.63Z"/><path class="cls-2" d="M6.42,44.94c-1.11,1.11-2.2,2.25-3.26,3.4H.18v-9.63h0l6.24,6.24Z"/><path class="cls-2" d="M6.4,206.01h0S.18,212.23,.18,212.23v-9.63H3.12c1.07,1.16,2.16,2.3,3.28,3.41Z"/><path class="cls-2" d="M.18,115.85H5.53c-.37,3.15-.56,6.37-.56,9.62v.02H.18v-9.64Z"/><path class="cls-2" d="M5.53,135.11H.18v-9.62H4.97c0,3.25,.19,6.46,.56,9.62Z"/><path class="cls-2" d="M5.27,169.18l-1.9-1.9,.46-.91c.47,.95,.95,1.88,1.45,2.81Z"/><path class="cls-2" d="M3.37,83.78l1.76-1.76c-.46,.86-.9,1.73-1.33,2.61l-.43-.85Z"/><path class="cls-2" d="M4.99,164.02l-1.17,2.34c-.38-.77-.75-1.55-1.11-2.34h2.28Z"/><path class="cls-2" d="M3.79,84.63l1.14,2.29H2.71c.35-.77,.71-1.53,1.09-2.29Z"/><path class="cls-2" d="M3.82,166.37l-.46,.91-3.19-3.2v-.05H2.71c.36,.79,.73,1.57,1.11,2.34Z"/><path class="cls-2" d="M3.37,83.78l.43,.85c-.38,.76-.74,1.52-1.09,2.29H.24l3.13-3.14Z"/><polygon class="cls-2" points=".18 77.39 3.37 83.78 .24 86.92 .18 86.92 .18 77.39"/><polygon class="cls-2" points=".18 164.07 3.37 167.27 .18 173.66 .18 164.07"/><path class="cls-2" d="M.18,48.34H3.15c-1.01,1.1-2.01,2.22-2.98,3.36v-3.36Z"/><path class="cls-2" d="M3.12,202.6H.18v-3.32c.96,1.13,1.94,2.24,2.94,3.32Z"/><path class="cls-2" d="M2.71,164.02H.18v-6.1c.77,2.07,1.62,4.11,2.54,6.1Z"/><path class="cls-2" d="M.24,86.92H2.71c-.92,1.99-1.76,4.02-2.53,6.09v-6.02l.06-.06Z"/><path class="cls-2" d="M1.42,183.31H.18v-1.87c.41,.63,.82,1.25,1.24,1.87Z"/><path class="cls-2" d="M.18,67.63H1.4c-.42,.61-.83,1.23-1.23,1.85v-1.85Z"/></g><g><path class="cls-1" d="M69.84,108.37c.77-.78,1.6-1.5,2.48-2.17,1.53-1.16,3.2-2.15,4.98-2.93,2.95-1.28,6.2-1.99,9.62-1.99h.02c3.42,0,6.67,.71,9.62,1.99,1.79,.78,3.47,1.76,5,2.93,.88,.67,1.7,1.39,2.48,2.17s1.5,1.6,2.17,2.48c1.17,1.53,2.16,3.21,2.93,5,1.28,2.95,1.99,6.2,1.99,9.62v.02c0,3.42-.72,6.67-1.99,9.62-.78,1.78-1.76,3.45-2.93,4.98-.66,.88-1.38,1.7-2.17,2.48"/><path class="cls-1" d="M104.04,142.57c-.78,.78-1.61,1.5-2.49,2.17-1.53,1.16-3.21,2.15-5,2.92-2.95,1.28-6.2,1.99-9.62,1.99h-.02c-3.42,0-6.67-.72-9.62-1.99-1.78-.78-3.45-1.76-4.98-2.92-.88-.67-1.71-1.39-2.49-2.17s-1.5-1.61-2.17-2.49c-1.16-1.52-2.14-3.2-2.92-4.98-1.28-2.95-1.99-6.2-1.99-9.62v-.02c0-3.42,.71-6.67,1.99-9.62,.77-1.79,1.76-3.46,2.92-5,.67-.88,1.39-1.71,2.17-2.49"/></g></g></svg>