<?xml version="1.0" encoding="UTF-8"?><svg id="Layer_2" xmlns="http://www.w3.org/2000/svg" viewBox="0 0 642.06 478.12"><defs><style>.cls-1{fill:#fff;}.cls-1,.cls-2{stroke:#e30613;stroke-miterlimit:10;stroke-width:6px;}.cls-2{fill:none;}.cls-3{fill:#1d1d1b;}</style></defs><g id="Layer_6"><g><g><circle class="cls-2" cx="86.72" cy="85.29" r="25.46"/><path class="cls-3" d="M82.02,84.47c0-2.42,.48-4.61,1.26-6.14,.13-.26,1.24,4.33,1.46,4.19,.19-.12-.72-5.35-.56-5.53,.54-.59,1.15-.92,1.8-.92,2.18,0,3.95,3.76,3.95,8.4s-1.77,8.4-3.95,8.4-3.95-3.76-3.95-8.4Z"/></g><line class="cls-2" x1="2.77" y1="217.08" x2="89.7" y2="7.4"/><line class="cls-2" x1="165.34" y1="219.36" x2="87.44" y2="7.26"/></g><g><line class="cls-2" x1="185.31" y1="229.21" x2="185.31" y2="11.68"/><line class="cls-2" x1="249.21" y1="229.21" x2="185.31" y2="11.68"/><line class="cls-2" x1="249.21" y1="229.21" x2="249.21" y2="11.68"/><ellipse class="cls-1" cx="249.43" cy="45.17" rx="29.52" ry="26.28"/><path class="cls-3" d="M243.99,44.32c0-2.5,.56-4.76,1.46-6.34,.15-.27,1.44,4.47,1.69,4.32,.22-.12-.84-5.52-.65-5.71,.63-.61,1.34-.95,2.09-.95,2.53,0,4.59,3.88,4.59,8.67s-2.05,8.67-4.59,8.67-4.59-3.88-4.59-8.67Z"/></g><g><path class="cls-3" d="M360.97,105.54c0-8.05,1.6-15.31,4.17-20.41,.44-.88,4.11,14.38,4.84,13.92,.62-.39-2.41-17.78-1.86-18.37,1.8-1.96,3.83-3.06,5.99-3.06,7.26,0,13.14,12.5,13.14,27.92s-5.88,27.92-13.14,27.92-13.14-12.5-13.14-27.92Z"/><g><path class="cls-2" d="M305.81,3c59.92,0,108.5,48.58,108.5,108.5s-48.58,108.5-108.5,108.5"/><line class="cls-2" x1="305.55" y1="220.53" x2="305.55" y2="1.95"/></g></g><g><line class="cls-2" x1="439.67" y1="17.52" x2="439.67" y2="220.43"/><line class="cls-2" x1="439.15" y1="118.98" x2="642.06" y2="118.98"/><line class="cls-2" x1="437.13" y1="219.48" x2="530.9" y2="219.48"/><line class="cls-2" x1="437.09" y1="18.56" x2="528.05" y2="18.56"/><circle class="cls-1" cx="568.01" cy="120.29" r="39.53"/><path class="cls-3" d="M576.15,119.67c0-3.76,.75-7.16,1.95-9.54,.21-.41,1.92,6.72,2.26,6.5,.29-.18-1.12-8.31-.87-8.58,.84-.92,1.79-1.43,2.8-1.43,3.39,0,6.14,5.84,6.14,13.05s-2.75,13.05-6.14,13.05-6.14-5.84-6.14-13.05Z"/></g><g><path class="cls-3" d="M61.39,313.87c0-6.37,1.27-12.11,3.3-16.14,.35-.7,3.25,11.37,3.83,11.01,.49-.31-1.9-14.06-1.47-14.53,1.42-1.55,3.03-2.42,4.74-2.42,5.74,0,10.39,9.89,10.39,22.08s-4.65,22.08-10.39,22.08-10.39-9.89-10.39-22.08Z"/><line class="cls-2" x1="40.53" y1="476.36" x2="43.08" y2="247.09"/><path class="cls-2" d="M41.91,247.83c31.04,0,56.2,25.16,56.2,56.2s-25.16,56.2-56.2,56.2"/><line class="cls-2" x1="43.51" y1="360.34" x2="109.93" y2="474.02"/></g><g><path class="cls-3" d="M316.3,314.85c0-3.25,.65-6.19,1.69-8.25,.18-.36,1.66,5.81,1.96,5.63,.25-.16-.97-7.18-.75-7.42,.73-.79,1.55-1.24,2.42-1.24,2.93,0,5.31,5.05,5.31,11.28s-2.38,11.28-5.31,11.28-5.31-5.05-5.31-11.28Z"/><path class="cls-3" d="M367.7,425.89c0-3.25,.65-6.19,1.69-8.25,.18-.36,1.66,5.81,1.96,5.63,.25-.16-.97-7.18-.75-7.42,.73-.79,1.55-1.24,2.42-1.24,2.93,0,5.31,5.05,5.31,11.28s-2.38,11.28-5.31,11.28-5.31-5.05-5.31-11.28Z"/><g><path class="cls-2" d="M342.92,370.8c-33.45,0-60.56-23.35-60.56-52.16s27.11-52.16,60.56-52.16"/><path class="cls-2" d="M340.67,370.8c33.45,0,60.56,23.35,60.56,52.16s-27.11,52.16-60.56,52.16"/><line class="cls-2" x1="341.04" y1="266.49" x2="386.18" y2="266.49"/><line class="cls-2" x1="342.92" y1="475.12" x2="298.54" y2="475.12"/></g></g></g></svg>