<?xml version="1.0" encoding="UTF-8"?><svg id="Layer_7" xmlns="http://www.w3.org/2000/svg" viewBox="0 0 260.17 264.17"><defs><style>.cls-1,.cls-2,.cls-3{fill:none;stroke:#e30613;stroke-miterlimit:10;}.cls-4{fill:#e30613;}.cls-2{stroke-width:6px;}.cls-3{stroke-width:10px;}.cls-5{fill:#1d1d1b;}</style></defs><path class="cls-5" d="M121.79,136.94c0-6.2,1.24-11.78,3.21-15.71,.34-.68,3.17,11.07,3.72,10.71,.48-.3-1.85-13.68-1.43-14.14,1.38-1.51,2.95-2.36,4.61-2.36,5.59,0,10.11,9.62,10.11,21.49s-4.53,21.49-10.11,21.49-10.11-9.62-10.11-21.49Z"/><g><g><g><path class="cls-4" d="M190.88,139.55h0s-2.75,.01-2.75,.01v-9.29l2.61,5.22c.09,1.34,.14,2.7,.14,4.06Z"/><path class="cls-4" d="M188.13,139.56h2.75c0,1.4-.05,2.79-.15,4.16l-2.56,5.12h-.04v-9.28Z"/><path class="cls-4" d="M188.18,148.84l2.56-5.12c-.12,1.73-.31,3.43-.59,5.12h-1.97Z"/><path class="cls-4" d="M188.18,148.84h1.97c-.46,2.91-1.14,5.74-2.02,8.49v-8.4l.04-.09Z"/><path class="cls-4" d="M188.13,148.93v8.4c-.08,.27-.17,.54-.26,.8h-4.34l4.6-9.2Z"/><path class="cls-4" d="M188.13,148.84v.09l-4.6,9.2h-4.7v-5.54c.35-1.23,.64-2.48,.89-3.75h8.41Z"/><path class="cls-4" d="M188.13,139.56v9.28h-8.41c.59-3,.9-6.11,.9-9.28h7.51Z"/><path class="cls-4" d="M188.13,130.27v9.29h-7.51v-.03c0-3.17-.3-6.27-.89-9.27h8.41Z"/><path class="cls-4" d="M183.48,120.96l4.65,9.31h-8.4c-.24-1.28-.54-2.55-.89-3.79v-5.52h4.65Z"/><path class="cls-4" d="M183.53,158.14h4.34c-1.08,3.24-2.44,6.35-4.04,9.3h-4.94l4.65-9.3Z"/><path class="cls-4" d="M178.89,167.44h4.94c-1.47,2.7-3.14,5.27-5,7.69v-7.58l.06-.11Z"/><polygon class="cls-4" points="183.53 158.14 178.89 167.44 178.83 167.44 178.83 158.14 183.53 158.14"/><polygon class="cls-4" points="178.83 111.66 183.48 120.96 178.83 120.96 178.83 111.66"/><path class="cls-4" d="M178.83,167.55v7.58c-.42,.55-.84,1.08-1.28,1.61h-3.31l4.59-9.19Z"/><path class="cls-4" d="M178.83,167.44v.11l-4.59,9.19h-4.71v-6.4c.78-.94,1.52-1.91,2.22-2.9h7.08Z"/><path class="cls-4" d="M178.83,158.14v9.3h-7.08c2.05-2.88,3.78-6,5.16-9.3h1.92Z"/><path class="cls-4" d="M178.83,152.6v5.54h-1.92c.75-1.79,1.39-3.64,1.92-5.54Z"/><path class="cls-4" d="M178.83,120.96v5.52c-.53-1.89-1.17-3.73-1.91-5.52h1.91Z"/><path class="cls-4" d="M178.83,111.66v9.29h-1.91c-1.37-3.3-3.11-6.42-5.15-9.3h7.06Z"/><path class="cls-4" d="M174.17,102.35l4.65,9.3h-7.06c-.71-1.01-1.46-1.98-2.24-2.93v-6.37h4.65Z"/><path class="cls-4" d="M174.24,176.74h3.31c-.29,.37-.6,.73-.91,1.08l-3.92,1.96,1.52-3.04Z"/><path class="cls-4" d="M172.72,179.79l3.92-1.96c-.93,1.07-1.9,2.11-2.9,3.12l-1.07-1.07,.05-.09Z"/><polygon class="cls-4" points="174.24 176.74 172.72 179.79 172.63 179.83 169.54 176.74 174.24 176.74"/><polygon class="cls-4" points="172.67 99.35 174.17 102.35 169.52 102.35 172.57 99.3 172.67 99.35"/><path class="cls-4" d="M172.67,179.88l1.07,1.07c-.97,.97-1.97,1.9-3,2.79l1.93-3.86Z"/><path class="cls-4" d="M172.67,179.88l-1.93,3.86c-.4,.35-.81,.69-1.22,1.03v-3.38l3.1-1.55,.04,.04Z"/><polygon class="cls-4" points="172.63 179.83 169.52 181.39 169.52 176.74 169.54 176.74 172.63 179.83"/><path class="cls-4" d="M170.62,95.25l2,4.01-.05,.05-3.05-1.53v-3.45c.37,.3,.73,.61,1.1,.92Z"/><polygon class="cls-4" points="169.52 97.77 172.57 99.3 169.52 102.35 169.52 97.77"/><path class="cls-4" d="M169.52,181.39v3.38c-.53,.44-1.06,.86-1.61,1.27h-7.7s9.31-4.66,9.31-4.66Z"/><path class="cls-4" d="M169.52,176.74v4.64l-9.31,4.65v-7.07c1-.7,1.96-1.44,2.9-2.22h6.41Z"/><path class="cls-4" d="M169.52,176.73h0s-6.41,.01-6.41,.01c1.17-.96,2.29-1.98,3.36-3.06l3.05,3.04Z"/><path class="cls-4" d="M169.52,170.34v6.39l-3.05-3.04h0c1.07-1.07,2.08-2.19,3.05-3.35Z"/><path class="cls-4" d="M169.52,102.35v6.37c-.96-1.16-1.97-2.27-3.04-3.34l3.04-3.04Z"/><path class="cls-4" d="M169.52,97.77v4.58h-6.37c-.95-.79-1.93-1.54-2.94-2.25v-6.98l9.31,4.65Z"/><path class="cls-4" d="M169.52,94.32v3.45l-9.31-4.65v-.08h7.69c.55,.41,1.08,.84,1.62,1.28Z"/><path class="cls-4" d="M169.52,102.35l-3.04,3.04c-1.06-1.06-2.18-2.08-3.34-3.04h6.37Z"/><path class="cls-4" d="M160.21,186.04h7.7c-2.43,1.86-5,3.53-7.7,5v-5Z"/><path class="cls-4" d="M167.91,93.05h-7.69v-5c2.7,1.47,5.27,3.13,7.69,5Z"/><path class="cls-4" d="M160.21,186.04v5c-2.95,1.6-6.06,2.96-9.29,4.04v-4.39l9.29-4.65h0Z"/><path class="cls-4" d="M160.21,178.97v7.07h0s0,0,0,0h-9.29v-1.92c3.3-1.38,6.41-3.11,9.29-5.15Z"/><path class="cls-4" d="M160.21,93.12v6.98c-2.88-2.05-6-3.78-9.29-5.15v-1.9h9.14l.15,.08Z"/><path class="cls-4" d="M160.21,88.05v5h-.15l-9.14-4.57v-4.46c3.23,1.08,6.34,2.44,9.29,4.04Z"/><polygon class="cls-4" points="160.21 186.04 150.92 190.69 150.92 186.04 160.21 186.04"/><polygon class="cls-4" points="160.06 93.05 150.92 93.05 150.92 88.48 160.06 93.05"/><path class="cls-4" d="M150.92,190.69v4.39c-.27,.09-.53,.18-.8,.26h-8.51l9.31-4.65Z"/><path class="cls-4" d="M150.92,186.04v4.65l-9.31,4.65v-8.4c1.28-.25,2.54-.55,3.78-.89h5.53Z"/><path class="cls-4" d="M150.92,184.12v1.92h-5.53c1.9-.53,3.74-1.17,5.53-1.92Z"/><path class="cls-4" d="M150.92,93.05v1.9c-1.77-.74-3.59-1.37-5.46-1.9h5.46Z"/><path class="cls-4" d="M150.92,88.48v4.57h-5.46c-1.26-.36-2.54-.66-3.85-.91v-8.31l9.31,4.65Z"/><path class="cls-4" d="M150.92,84.01v4.46l-9.31-4.65v-.08h8.48c.28,.09,.56,.18,.83,.27Z"/><path class="cls-4" d="M141.61,195.34h8.51c-2.75,.88-5.59,1.56-8.51,2.02v-2.02Z"/><path class="cls-4" d="M150.09,83.74h-8.48v-2.01c2.9,.46,5.73,1.13,8.48,2.01Z"/><path class="cls-4" d="M141.61,195.34v2.02c-1.72,.27-3.46,.47-5.22,.59l5.22-2.61Z"/><path class="cls-4" d="M141.61,186.94v8.4h-9.3v-7.51h.01c3.18,0,6.28-.3,9.28-.89Z"/><path class="cls-4" d="M141.61,83.82v8.31c-3-.59-6.11-.89-9.28-.89h-.01v-7.5h9.13l.16,.08Z"/><path class="cls-4" d="M141.61,81.74v2.01h-.16l-5.22-2.61c1.82,.12,3.62,.32,5.39,.6Z"/><path class="cls-4" d="M141.61,195.34l-5.22,2.61c-1.34,.09-2.7,.14-4.06,.14h-.02v-2.75h9.3Z"/><path class="cls-4" d="M141.45,83.74h-9.13v-2.74h.02c1.31,0,2.61,.04,3.89,.13l5.22,2.61Z"/><path class="cls-4" d="M132.31,195.34v2.75c-1.62,0-3.24-.07-4.83-.2l-4.45-2.23v-.31h9.28Z"/><path class="cls-4" d="M132.31,187.83v7.51h-9.28v-8.41c3,.59,6.11,.9,9.28,.9Z"/><path class="cls-4" d="M132.31,83.74v7.5c-3.17,0-6.28,.31-9.28,.9v-8.22l.36-.18h8.92Z"/><path class="cls-4" d="M132.31,81v2.74h-8.92l5.26-2.62c1.21-.08,2.43-.12,3.67-.12Z"/><path class="cls-4" d="M128.65,81.12l-5.26,2.62h-.36v-2.01c1.84-.29,3.71-.5,5.61-.61Z"/><path class="cls-4" d="M123.03,195.66l4.45,2.23c-1.5-.12-2.98-.3-4.45-.53v-1.7Z"/><path class="cls-4" d="M123.03,195.66v1.7c-2.91-.46-5.73-1.14-8.48-2.02h7.85l.63,.31Z"/><path class="cls-4" d="M123.03,186.93v8.41h-.63l-8.67-4.35v-4.95h5.53c1.24,.35,2.49,.65,3.77,.89Z"/><path class="cls-4" d="M123.03,83.92v8.22c-1.3,.25-2.58,.55-3.84,.91h-5.45v-4.48l9.29-4.64Z"/><path class="cls-4" d="M123.03,83.74v.18l-9.29,4.64v-4.55c.28-.1,.56-.19,.84-.28h8.45Z"/><path class="cls-4" d="M123.03,81.74v2.01h-8.45c2.74-.87,5.56-1.55,8.45-2.01Z"/><path class="cls-4" d="M122.4,195.34h-7.85c-.27-.08-.54-.17-.81-.27v-4.09l8.67,4.35Z"/><path class="cls-4" d="M119.27,186.04h-5.53v-1.92c1.79,.75,3.64,1.39,5.53,1.92Z"/><path class="cls-4" d="M113.74,93.05h5.45c-1.87,.53-3.69,1.16-5.45,1.9v-1.9Z"/><path class="cls-4" d="M113.74,190.99v4.09c-3.23-1.08-6.34-2.44-9.3-4.04v-4.72l9.3,4.68Z"/><polygon class="cls-4" points="113.74 186.04 113.74 190.99 104.44 186.31 104.44 186.04 113.74 186.04"/><path class="cls-4" d="M113.74,184.12v1.92h-9.3v-7.08c2.88,2.05,6,3.78,9.3,5.16Z"/><path class="cls-4" d="M113.74,93.05v1.9c-3.3,1.38-6.42,3.11-9.3,5.16v-6.9l.32-.16h8.98Z"/><polygon class="cls-4" points="113.74 88.56 113.74 93.05 104.76 93.05 113.74 88.56"/><path class="cls-4" d="M113.74,84.02v4.55l-8.98,4.48h-.32v-4.99c2.96-1.6,6.07-2.96,9.3-4.04Z"/><path class="cls-4" d="M104.44,186.31v4.72c-2.7-1.47-5.27-3.14-7.69-5h7.15l.54,.27Z"/><path class="cls-4" d="M104.44,178.96v7.08h-.54l-8.76-4.4v-4.9h6.41c.94,.78,1.9,1.52,2.9,2.22Z"/><path class="cls-4" d="M104.44,93.21v6.9c-1.01,.71-1.98,1.46-2.93,2.25h-6.37v-4.5l9.3-4.65Z"/><path class="cls-4" d="M104.44,93.05v.16l-9.3,4.65v-3.52c.53-.44,1.07-.88,1.62-1.29h7.68Z"/><path class="cls-4" d="M104.44,88.06v4.99h-7.68c2.42-1.86,4.99-3.53,7.68-4.99Z"/><path class="cls-4" d="M103.89,186.04h-7.15c-.55-.42-1.08-.85-1.62-1.29v-3.11l8.76,4.4Z"/><path class="cls-4" d="M101.54,176.74h-6.41l3.05-3.05c1.07,1.07,2.19,2.09,3.36,3.05Z"/><path class="cls-4" d="M95.15,102.35h6.36c-1.16,.96-2.27,1.97-3.33,3.03l-3.03-3.03Z"/><path class="cls-4" d="M95.13,170.34c.97,1.16,1.98,2.28,3.05,3.35l-3.05,3.05v-6.4Z"/><path class="cls-4" d="M95.15,102.35l3.03,3.03c-1.07,1.06-2.08,2.18-3.05,3.34v-6.37h.01Z"/><path class="cls-4" d="M95.13,181.64v3.11c-.42-.34-.83-.69-1.24-1.04l-1.8-3.59,3.04,1.52Z"/><polygon class="cls-4" points="95.13 176.74 95.13 181.64 92.1 180.12 91.98 179.89 95.13 176.74"/><path class="cls-4" d="M95.13,170.34v6.4h-4.72l-4.58-9.16v-.15h7.07c.71,1,1.45,1.96,2.22,2.9Z"/><path class="cls-4" d="M95.13,102.35v6.37c-.78,.95-1.53,1.92-2.24,2.93h-7.06v-.04l4.63-9.26h4.67Z"/><polygon class="cls-4" points="95.13 102.34 95.13 102.35 90.47 102.35 91.91 99.46 92.14 99.35 95.13 102.34"/><polygon class="cls-4" points="95.13 97.85 95.13 102.34 92.14 99.35 95.13 97.85"/><path class="cls-4" d="M95.13,94.34v3.52l-2.99,1.49-.11-.11,1.97-3.94c.37-.32,.75-.65,1.14-.96Z"/><polygon class="cls-4" points="95.13 176.74 91.98 179.89 90.41 176.74 95.13 176.74"/><path class="cls-4" d="M92.1,180.12l1.8,3.59c-1.02-.89-2.01-1.81-2.96-2.77l.94-.94,.22,.12Z"/><path class="cls-4" d="M92.91,167.44h-7.07v-9.3h1.91c1.38,3.3,3.11,6.42,5.16,9.3Z"/><path class="cls-4" d="M85.83,111.66h7.06c-2.04,2.88-3.78,6-5.15,9.3h-1.91v-9.3Z"/><path class="cls-4" d="M90.41,176.74l1.57,3.15-.11,.11-3.45-1.73c-.44-.5-.88-1.01-1.3-1.53h3.29Z"/><path class="cls-4" d="M91.87,180l-.94,.94c-.87-.87-1.7-1.76-2.51-2.67l3.45,1.73Z"/><path class="cls-4" d="M85.83,167.59l4.58,9.16h-3.29c-.44-.53-.87-1.07-1.29-1.62v-7.54Z"/><path class="cls-4" d="M87.75,158.14h-1.91v-5.51c.53,1.89,1.17,3.72,1.91,5.51Z"/><path class="cls-4" d="M85.83,120.96h1.91c-.74,1.77-1.38,3.61-1.91,5.48v-5.48Z"/><path class="cls-4" d="M85.83,167.59v7.54c-1.86-2.42-3.53-4.99-5-7.69h4.92l.07,.15Z"/><polygon class="cls-4" points="85.83 158.14 85.83 167.44 85.76 167.44 81.11 158.14 85.83 158.14"/><path class="cls-4" d="M85.83,152.63v5.51h-4.72l-4.57-9.15v-.14h8.4c.25,1.28,.55,2.54,.9,3.79Z"/><path class="cls-4" d="M85.83,120.96v5.48c-.35,1.25-.66,2.53-.9,3.82h-8.39v-.04l4.63-9.26h4.67Z"/><polygon class="cls-4" points="85.83 111.66 85.83 120.96 81.17 120.96 85.81 111.66 85.83 111.66"/><path class="cls-4" d="M81.11,158.14l4.65,9.3h-4.92c-1.6-2.95-2.96-6.06-4.04-9.3h4.31Z"/><path class="cls-4" d="M84.93,148.84h-8.4v-9.28h7.5c0,3.17,.31,6.28,.9,9.28Z"/><path class="cls-4" d="M76.53,130.26h8.39c-.59,3-.89,6.1-.89,9.27v.03h-7.5v-9.3Z"/><path class="cls-4" d="M76.53,148.98l4.57,9.15h-4.31c-.09-.27-.18-.53-.26-.8v-8.35Z"/><path class="cls-4" d="M76.53,148.98v8.35c-.88-2.75-1.55-5.58-2.02-8.49h1.95l.07,.14Z"/><path class="cls-4" d="M76.53,139.56v9.28h-.07l-2.53-5.06c-.1-1.39-.15-2.8-.15-4.22h2.75Z"/><path class="cls-4" d="M76.53,130.26v9.3h-2.75c0-1.4,.05-2.77,.15-4.13l2.59-5.17h.02Z"/><path class="cls-4" d="M76.47,148.84h-1.95c-.27-1.66-.46-3.35-.58-5.06l2.53,5.06Z"/></g><g><polyline class="cls-1" points="123.03 37.21 126.71 29.85 127.67 27.94 131.93 19.42 132.31 18.66"/><polyline class="cls-1" points="113.74 55.8 115.77 51.73 118.37 46.54 121.36 40.55 123.01 37.24"/><polyline class="cls-1" points="104.44 74.41 108.1 67.07 109.07 65.14 109.77 63.73 113.71 55.85"/><polyline class="cls-1" points="95.13 93.02 99.77 83.74 103 77.27 104.42 74.44"/><polyline class="cls-1" points="92.03 99.24 94 95.29 95.12 93.05"/><polyline class="cls-1" points="85.83 111.62 90.47 102.35 91.91 99.46"/><polyline class="cls-1" points="76.53 130.22 81.17 120.96 85.81 111.66"/><polyline class="cls-1" points="71.86 139.56 73.93 135.43 76.52 130.26"/><polyline class="cls-1" points="57.93 167.44 58.15 167 59.72 163.85 62.58 158.14 64.92 153.45 67.23 148.84 71.84 139.6"/><polyline class="cls-1" points="48.63 186.04 51.71 179.87 52.15 179 53.28 176.74 57.93 167.45"/><polyline class="cls-1" points="39.34 204.63 41.19 200.94 43.98 195.34 46.56 190.19 48.63 186.04"/><polyline class="cls-1" points="30.04 223.24 34.68 213.95 35.99 211.32 39.33 204.65"/><polyline class="cls-1" points="20.74 241.84 25.39 232.54 30.03 223.25"/><polyline class="cls-1" points="11.44 260.43 16.09 251.14 20.73 241.85"/><polyline class="cls-1" points="141.61 37.23 137.92 29.85 136.96 27.94 132.7 19.42 132.33 18.68"/><polyline class="cls-1" points="160.21 74.43 156.58 67.17 155.57 65.14 154.86 63.72 150.92 55.85 148.86 51.73 146.26 46.54 143.27 40.55 141.62 37.24"/><polyline class="cls-1" points="169.52 93.05 164.87 83.74 161.62 77.26 160.22 74.44"/><polyline class="cls-1" points="172.62 99.25 170.62 95.25 169.52 93.05"/><polyline class="cls-1" points="178.82 111.66 174.17 102.35 172.67 99.35"/><polyline class="cls-1" points="188.13 130.26 183.48 120.96 178.83 111.66"/><polyline class="cls-1" points="192.78 139.56 190.74 135.49 188.13 130.27"/><line class="cls-1" x1="197.42" y1="148.84" x2="192.8" y2="139.6"/><polyline class="cls-1" points="216.02 186.04 212.93 179.86 212.5 179.01 211.37 176.74 206.74 167.47 206.72 167.44 206.5 167.01 204.86 163.72 202.07 158.14 199.73 153.47 197.43 148.87"/><polyline class="cls-1" points="225.33 204.65 223.47 200.95 220.67 195.34 218.09 190.19 216.03 186.06"/><polyline class="cls-1" points="253.21 260.42 248.57 251.14 243.94 241.86 243.93 241.84 239.27 232.54 234.64 223.27 234.62 223.24 229.97 213.95 228.66 211.33 225.33 204.66"/></g></g><line class="cls-2" x1="132.52" y1="18.22" x2="8.49" y2="258.93"/><line class="cls-2" x1="132.52" y1="18.22" x2="250.28" y2="261.94"/><polyline class="cls-2" points="132.49 18.11 132.49 18.91 132.51 18.91 132.51 18.11"/></g><line class="cls-3" x1="252.1" y1="261.06" x2="132.5" y2="18.22"/><line class="cls-3" x1="132.5" y1="18.5" x2="5.27" y2="257.23"/><polygon class="cls-4" points="139.84 25.29 123.77 25.29 132.48 -.07 135.87 12.31 139.84 25.29"/></svg>