<?xml version="1.0" encoding="UTF-8"?><svg id="Layer_2" xmlns="http://www.w3.org/2000/svg" viewBox="0 0 1084.88 367.36"><defs><style>.cls-1{stroke-width:14px;}.cls-1,.cls-2,.cls-3,.cls-4{fill:none;stroke:#e30613;stroke-miterlimit:10;}.cls-5{fill:#e30613;}.cls-3{stroke-width:6px;}.cls-4{stroke-width:10px;}.cls-6{fill:#1d1d1b;}</style></defs><g id="Layer_7"><g><circle class="cls-3" cx="951.83" cy="235.8" r="25.02"/><path class="cls-6" d="M947.21,234.99c0-2.38,.47-4.53,1.23-6.04,.13-.26,1.22,4.25,1.43,4.12,.18-.12-.71-5.26-.55-5.43,.53-.58,1.13-.91,1.77-.91,2.15,0,3.89,3.7,3.89,8.26s-1.74,8.26-3.89,8.26-3.89-3.7-3.89-8.26Z"/><g><path class="cls-5" d="M1054.4,157.79h-1.38v-1.7c.47,.56,.93,1.13,1.38,1.7Z"/><path class="cls-5" d="M1053.03,156.08v1.7h-9.73v-9.72h2.58c2.5,2.57,4.89,5.24,7.15,8.02Z"/><path class="cls-5" d="M1045.87,148.07h-2.58s1.3-1.31,1.3-1.31c.43,.43,.86,.87,1.28,1.31Z"/><path class="cls-5" d="M1044.59,146.76l-1.3,1.3v-2.58c.44,.42,.87,.85,1.3,1.28Z"/><path class="cls-5" d="M1043.29,148.07v9.72h-3c-1.08-1.16-2.18-2.31-3.29-3.43l6.29-6.29h0Z"/><path class="cls-5" d="M1043.29,145.48v2.58h0s0,0,0,0h-9.72v-9.73h1.71c2.77,2.27,5.45,4.65,8.01,7.15Z"/><path class="cls-5" d="M1043.29,148.07l-6.29,6.29c-1.12-1.12-2.27-2.22-3.43-3.29v-3h9.72Z"/><path class="cls-5" d="M1035.28,138.33h-1.71v-1.38c.58,.45,1.15,.91,1.71,1.38Z"/><path class="cls-5" d="M1033.57,148.07v3c-1.11-1.03-2.25-2.03-3.4-3h3.4Z"/><path class="cls-5" d="M1033.57,138.33v9.73h-3.4c-2.05-1.75-4.16-3.41-6.33-5.01v-4.7l.04-.02h9.69Z"/><path class="cls-5" d="M1033.57,136.96v1.38h-9.69l6.96-3.48c.92,.68,1.83,1.39,2.73,2.1Z"/><path class="cls-5" d="M1030.83,134.86l-6.96,3.48h-.04v-8.34c2.39,1.54,4.72,3.16,7,4.86Z"/><path class="cls-5" d="M1023.84,138.35v4.7c-1.28-.94-2.58-1.86-3.9-2.75l3.9-1.95Z"/><path class="cls-5" d="M1023.84,138.33v.02l-3.9,1.95c-1-.67-2-1.33-3.03-1.97h6.93Z"/><path class="cls-5" d="M1023.84,130v8.34h-6.93c-.93-.59-1.86-1.16-2.81-1.71v-8.02h7.52c.74,.46,1.48,.92,2.21,1.4Z"/><path class="cls-5" d="M1021.63,128.6h-7.52v-4.29c2.56,1.34,5.07,2.77,7.52,4.29Z"/><path class="cls-5" d="M1014.1,128.6v8.02c-3.15-1.86-6.4-3.58-9.73-5.13v-2.88h9.73Z"/><path class="cls-5" d="M1014.1,124.31v4.29h-9.73v-8.89c3.32,1.4,6.57,2.93,9.73,4.6Z"/><path class="cls-5" d="M1004.37,128.6v2.88c-2.21-1.03-4.45-1.99-6.73-2.88h6.73Z"/><path class="cls-5" d="M1004.37,119.71v8.89h-6.73c-1-.39-2-.77-3.01-1.13v-8.6h7.68c.69,.27,1.38,.56,2.06,.84Z"/><path class="cls-5" d="M1002.31,118.87h-7.68v-2.78c2.6,.84,5.16,1.78,7.68,2.78Z"/><path class="cls-5" d="M994.63,118.87v8.6c-3.18-1.15-6.43-2.16-9.73-3.02v-5.58h9.73Z"/><path class="cls-5" d="M994.63,116.09v2.78h-9.73v-5.51c3.3,.78,6.55,1.69,9.73,2.73Z"/><path class="cls-5" d="M984.9,118.87v5.58c-3.19-.83-6.43-1.53-9.72-2.09v-3.49h9.72Z"/><path class="cls-5" d="M984.9,113.36v5.51h-9.72v-7.42c3.29,.51,6.53,1.15,9.72,1.91Z"/><path class="cls-5" d="M975.18,118.87v3.49c-2.4-.41-4.83-.74-7.27-1l-2.47-2.46v-.02h9.74Z"/><path class="cls-5" d="M975.18,111.45v7.42h-9.74v-8.55c3.29,.25,6.54,.63,9.74,1.13Z"/><path class="cls-5" d="M965.43,118.89l2.47,2.46c-.82-.09-1.64-.17-2.47-.23v-2.23Z"/><path class="cls-5" d="M965.43,118.89v2.23c-1.28-.11-2.57-.19-3.88-.26l-1-1.99h4.85l.02,.02Z"/><path class="cls-5" d="M965.43,110.32v8.55h-.02l-8.91-8.91c3,.02,5.98,.14,8.93,.36Z"/><path class="cls-5" d="M956.5,109.96l8.91,8.91h-4.85l-4.46-8.92c.13,0,.27,0,.4,0Z"/><path class="cls-5" d="M960.56,118.87l1,1.99c-1.93-.1-3.88-.15-5.83-.15h-.03v-1.85h4.86Z"/><path class="cls-5" d="M960.56,118.87h-4.86v-8.92h.39l4.46,8.92Z"/><path class="cls-5" d="M955.71,352.38v8.92c-.15,0-.31,0-.46,0l-4.46-8.91h4.92Z"/><path class="cls-5" d="M955.71,350.58v1.8h-4.92l-.97-1.95c1.95,.1,3.91,.15,5.89,.15Z"/><path class="cls-5" d="M955.71,342.65v7.93c-1.98,0-3.94-.05-5.89-.15h0l-3.81-7.64v-.14h9.71Z"/><path class="cls-5" d="M955.71,339.79v2.86h-9.71v-3.31c3.2,.3,6.43,.45,9.71,.45Z"/><path class="cls-5" d="M955.71,332.91v6.88c-3.27,0-6.51-.15-9.71-.45v-6.43h9.71Z"/><path class="cls-5" d="M955.71,329.09v3.82h-9.71v-4.33c3.19,.33,6.43,.5,9.71,.5Z"/><path class="cls-5" d="M955.71,323.19v5.9c-3.28,0-6.52-.17-9.71-.5v-5.4h9.71Z"/><path class="cls-5" d="M955.71,318.36v4.84h-9.71v-5.4c3.18,.37,6.42,.57,9.71,.57Z"/><path class="cls-5" d="M955.71,313.47v4.89c-3.28,0-6.53-.19-9.71-.57v-4.32h9.71Z"/><path class="cls-5" d="M955.71,307.62v5.85h-9.71v-6.5c3.18,.43,6.41,.65,9.71,.65Z"/><path class="cls-5" d="M955.71,303.74v3.88c-3.29,0-6.53-.22-9.71-.65v-3.23h9.71Z"/><polygon class="cls-5" points="955.71 298.88 955.71 303.74 946 303.74 946 303.74 955.71 298.88"/><path class="cls-5" d="M955.71,296.88v2l-4.32-2.15c1.43,.1,2.86,.15,4.32,.15Z"/><path class="cls-5" d="M955.71,294v2.88c-1.45,0-2.89-.05-4.32-.15l-5.39-2.7v-.03h9.71Z"/><path class="cls-5" d="M955.71,286.15v7.86h-9.71v-8.8c3.14,.62,6.39,.94,9.71,.94Z"/><path class="cls-5" d="M955.71,284.27v1.87c-3.32,0-6.57-.32-9.71-.94v-.93h9.71Z"/><path class="cls-5" d="M955.71,275.41v8.86h-9.71v-9.73h1.46c2.66,.57,5.42,.87,8.25,.87Z"/><path class="cls-5" d="M955.71,274.55v.87c-2.83,0-5.59-.3-8.25-.87h8.25Z"/><path class="cls-5" d="M955.71,267.72v6.82h-8.25c-.49-.1-.98-.21-1.46-.34v-7.99c3.06,.97,6.32,1.5,9.71,1.5Z"/><path class="cls-5" d="M955.71,264.81v2.91c-3.38,0-6.65-.53-9.71-1.5v-1.41h9.71Z"/><path class="cls-5" d="M955.71,260.04v4.78h-9.71v-6.79c2.97,1.3,6.26,2.01,9.71,2.02Z"/><path class="cls-5" d="M955.71,206.46v4.76c-3.45,0-6.73,.72-9.71,2.02v-6.77h9.71Z"/><path class="cls-5" d="M955.71,203.53v2.93h-9.71v-1.43c3.06-.97,6.32-1.5,9.71-1.5Z"/><path class="cls-5" d="M955.71,196.72v6.81c-3.38,0-6.65,.53-9.71,1.5v-7.98c.47-.12,.94-.23,1.41-.33h8.3Z"/><path class="cls-5" d="M955.71,195.85v.88h-8.3c2.68-.57,5.45-.88,8.3-.88Z"/><path class="cls-5" d="M955.71,186.98v8.86c-2.85,0-5.63,.3-8.3,.88h-1.41v-9.74h9.71Z"/><path class="cls-5" d="M955.71,185.09v1.89h-9.71v-.95c3.14-.62,6.39-.94,9.71-.94Z"/><path class="cls-5" d="M955.71,177.25v7.84c-3.32,0-6.57,.32-9.71,.94v-8.77h.02s9.69-.01,9.69-.01Z"/><path class="cls-5" d="M955.71,174.38v2.87h-9.69l5.44-2.72c1.41-.1,2.82-.15,4.25-.15Z"/><path class="cls-5" d="M955.71,172.41v1.97c-1.43,0-2.85,.05-4.25,.15l4.25-2.12Z"/><path class="cls-5" d="M955.71,172.4h0s-4.25,2.13-4.25,2.13c-1.84,.12-3.66,.33-5.45,.62v-7.61l9.71,4.86Z"/><polygon class="cls-5" points="955.71 167.52 955.71 172.4 946 167.54 946 167.52 955.71 167.52"/><path class="cls-5" d="M955.71,163.64v3.89h-9.71v-3.23c3.18-.43,6.41-.65,9.71-.65Z"/><path class="cls-5" d="M955.71,157.79v5.85c-3.29,0-6.53,.22-9.71,.65v-6.5h9.71Z"/><path class="cls-5" d="M955.71,152.9v4.89h-9.71v-4.32c3.18-.37,6.42-.57,9.71-.57Z"/><path class="cls-5" d="M955.71,148.07v4.84c-3.28,0-6.53,.19-9.71,.57v-5.4h9.71Z"/><path class="cls-5" d="M955.71,142.16v5.91h-9.71v-5.41c3.19-.33,6.43-.5,9.71-.5Z"/><path class="cls-5" d="M955.71,138.33v3.82c-3.28,0-6.52,.17-9.71,.5v-4.33h9.71Z"/><path class="cls-5" d="M955.71,131.44v6.9h-9.71v-6.44c3.2-.3,6.43-.45,9.71-.45Z"/><path class="cls-5" d="M955.71,128.6v2.84c-3.27,0-6.51,.15-9.71,.45v-3.29h9.71Z"/><path class="cls-5" d="M955.71,120.72v7.88h-9.71v-.02l3.85-7.71c1.94-.1,3.89-.15,5.85-.15Z"/><path class="cls-5" d="M955.71,118.87v1.85c-1.96,0-3.92,.05-5.85,.15l1-2h4.85Z"/><path class="cls-5" d="M955.71,109.95v8.92h-4.85l4.46-8.91c.13,0,.26,0,.39,0Z"/><path class="cls-5" d="M955.71,298.88h0s-9.71,4.86-9.71,4.86v-7.62c1.77,.28,3.57,.49,5.39,.62l4.32,2.15Z"/><path class="cls-5" d="M955.31,109.96l-4.46,8.91h-4.86s8.91-8.91,8.91-8.91c.13,0,.27,0,.4,0Z"/><path class="cls-5" d="M955.25,361.29c-.16,0-.31,0-.47,0l-8.78-8.79v-.13h4.79l4.46,8.91Z"/><path class="cls-5" d="M954.91,109.96l-8.91,8.91v-8.54c2.94-.22,5.91-.35,8.91-.36Z"/><path class="cls-5" d="M946,352.51l8.78,8.79c-2.95-.02-5.88-.14-8.78-.36v-8.42Z"/><path class="cls-5" d="M951.45,174.53l-5.44,2.72h-.02v-2.1c1.79-.29,3.61-.5,5.45-.62Z"/><path class="cls-5" d="M946,294.03l5.39,2.7c-1.82-.13-3.62-.33-5.39-.62v-2.08Z"/><path class="cls-5" d="M950.86,118.87l-1,2c-1.29,.06-2.57,.15-3.85,.26v-2.26h4.86Z"/><path class="cls-5" d="M949.82,350.43l.97,1.95h-4.79v-2.21c1.26,.11,2.53,.2,3.81,.26h0Z"/><path class="cls-5" d="M949.85,120.87l-3.85,7.71v-7.46c1.28-.11,2.56-.2,3.85-.26Z"/><path class="cls-5" d="M946,342.79l3.81,7.64c-1.28-.06-2.55-.15-3.81-.26v-7.38Z"/><path class="cls-5" d="M946,352.51v8.42c-3.28-.25-6.52-.63-9.72-1.13v-7.42h9.6l.13,.13Z"/><path class="cls-5" d="M946,350.17v2.21h-.13l-2.45-2.45c.85,.09,1.71,.17,2.58,.24Z"/><path class="cls-5" d="M945.87,352.38h-9.6v-3.45c2.36,.4,4.74,.74,7.14,.99l2.45,2.45Z"/><path class="cls-5" d="M936.28,352.38v7.42c-3.29-.51-6.54-1.15-9.73-1.91v-5.51h9.73Z"/><path class="cls-5" d="M936.28,348.94v3.45h-9.73v-5.54c3.19,.83,6.44,1.54,9.73,2.09Z"/><path class="cls-5" d="M926.54,352.38v5.51c-3.3-.78-6.54-1.69-9.73-2.73v-2.78h9.73Z"/><path class="cls-5" d="M926.54,346.84v5.54h-9.73v-8.56c3.18,1.15,6.42,2.16,9.73,3.02Z"/><path class="cls-5" d="M916.81,352.38v2.78c-2.6-.84-5.15-1.77-7.66-2.78h7.66Z"/><path class="cls-5" d="M916.81,343.82v8.56h-7.66c-.69-.27-1.38-.56-2.06-.84v-8.88h6.61c1.03,.4,2.07,.8,3.12,1.17Z"/><path class="cls-5" d="M913.7,342.65h-6.61v-2.84c2.17,1.01,4.37,1.96,6.61,2.84Z"/><path class="cls-5" d="M907.09,342.65v8.88c-3.32-1.39-6.57-2.92-9.73-4.59v-4.29h9.73Z"/><path class="cls-5" d="M907.09,339.81v2.84h-9.73v-7.97c3.15,1.86,6.39,3.58,9.73,5.13Z"/><path class="cls-5" d="M897.36,342.65v4.29c-2.56-1.34-5.07-2.77-7.53-4.29h7.53Z"/><path class="cls-5" d="M897.36,334.68v7.97h-7.53c-.74-.46-1.48-.92-2.21-1.4v-8.34h6.85c.95,.6,1.92,1.19,2.89,1.77Z"/><path class="cls-5" d="M894.47,332.91h-6.85s3.88-1.94,3.88-1.94c.98,.66,1.97,1.31,2.97,1.94Z"/><path class="cls-5" d="M891.5,330.98l-3.88,1.93v-4.67c1.27,.94,2.56,1.85,3.88,2.74Z"/><path class="cls-5" d="M887.62,332.91v8.34c-2.39-1.54-4.71-3.16-6.99-4.85l6.98-3.49h0Z"/><path class="cls-5" d="M887.62,328.24v4.67h0s0,0,0,0h-9.73v-9.72h3.36c2.06,1.76,4.19,3.44,6.37,5.05Z"/><path class="cls-5" d="M887.62,332.91l-6.98,3.49c-.93-.69-1.84-1.4-2.75-2.11v-1.38h9.73Z"/><path class="cls-5" d="M881.25,323.19h-3.36v-2.97c1.1,1.02,2.22,2.01,3.36,2.97Z"/><path class="cls-5" d="M877.89,332.91v1.38c-.58-.45-1.14-.91-1.71-1.38h1.71Z"/><path class="cls-5" d="M877.89,323.19v9.72h-1.71c-2.77-2.27-5.45-4.65-8.01-7.15v-2.57h9.72Z"/><path class="cls-5" d="M877.89,320.22v2.97h-9.72l6.28-6.28c1.12,1.12,2.27,2.23,3.45,3.3Z"/><path class="cls-5" d="M874.44,316.91l-6.28,6.28v-9.72h2.97c1.08,1.17,2.18,2.32,3.3,3.45Z"/><path class="cls-5" d="M868.16,323.19v2.57c-.44-.42-.87-.84-1.3-1.27h0s1.3-1.3,1.3-1.3Z"/><path class="cls-5" d="M868.16,313.47v9.72h-2.57c-2.49-2.56-4.88-5.24-7.15-8.01v-1.71h9.72Z"/><path class="cls-5" d="M868.16,323.19l-1.3,1.3c-.44-.43-.86-.86-1.28-1.3h2.57Z"/><path class="cls-5" d="M858.44,313.47v1.71c-.47-.57-.92-1.14-1.38-1.71h1.38Z"/></g></g><g><path class="cls-6" d="M495.32,233.3c0-13.26,2.64-25.21,6.87-33.61,.73-1.45,6.77,23.68,7.97,22.92,1.02-.65-3.96-29.27-3.06-30.25,2.96-3.22,6.31-5.04,9.86-5.04,11.95,0,21.64,20.59,21.64,45.98s-9.69,45.98-21.64,45.98-21.64-20.59-21.64-45.98Z"/><g><path class="cls-5" d="M595.18,235.24v.41h-8.87v-4.84l8.87,4.43Z"/><path class="cls-5" d="M595.18,235.65c0,.14,0,.27,0,.41l-8.86,4.43v-4.84h8.87Z"/><path class="cls-5" d="M595.18,234.83c0,.14,0,.28,0,.41l-8.87-4.43v-4.83h.01l8.85,8.85Z"/><path class="cls-5" d="M595.18,236.06c0,.14,0,.28,0,.41l-8.83,8.83h-.04v-4.81l8.86-4.43Z"/><path class="cls-5" d="M586.35,245.3l8.83-8.83c-.02,2.97-.14,5.91-.36,8.83h-8.46Z"/><path class="cls-5" d="M595.18,234.83l-8.85-8.85h8.49c.22,2.92,.35,5.87,.36,8.85Z"/><path class="cls-5" d="M594.82,225.98h-8.5v-9.68h7.38c.5,3.19,.87,6.42,1.12,9.68Z"/><path class="cls-5" d="M586.35,245.3h8.46c-.25,3.26-.62,6.48-1.12,9.67h-7.38v-9.63l.04-.04Z"/><path class="cls-5" d="M593.69,216.29h-7.38v-9.67h5.48c.75,3.18,1.39,6.4,1.9,9.67Z"/><path class="cls-5" d="M586.32,254.97h7.38c-.51,3.27-1.14,6.5-1.9,9.68h-5.48v-9.68Z"/><path class="cls-5" d="M591.8,206.62h-5.48v-9.68h2.76c1.03,3.17,1.94,6.4,2.72,9.68Z"/><path class="cls-5" d="M586.32,264.64h5.48c-.78,3.28-1.68,6.51-2.72,9.68h-2.76v-9.68Z"/><path class="cls-5" d="M589.08,196.95h-2.76v-7.63c1,2.5,1.92,5.05,2.76,7.63Z"/><path class="cls-5" d="M586.32,274.32h2.76c-.83,2.58-1.76,5.12-2.76,7.62v-7.62Z"/><path class="cls-5" d="M586.32,274.32v7.62c-.27,.69-.55,1.37-.84,2.05h-8.83v-6.56c.4-1.03,.79-2.06,1.17-3.11h8.51Z"/><path class="cls-5" d="M586.32,264.64v9.68h-8.51c1.14-3.16,2.14-6.39,3-9.68h5.51Z"/><path class="cls-5" d="M586.32,254.97v9.68h-5.51c.83-3.17,1.53-6.4,2.09-9.68h3.42Z"/><path class="cls-5" d="M586.32,245.34v9.63h-3.42c.41-2.38,.74-4.78,1-7.21l2.42-2.42Z"/><path class="cls-5" d="M586.32,245.3v.04l-2.42,2.42c.09-.82,.16-1.64,.23-2.46h2.19Z"/><path class="cls-5" d="M586.32,240.49v4.81h-2.19c.11-1.28,.19-2.56,.26-3.84l1.94-.97Z"/><path class="cls-5" d="M586.32,235.65v4.84l-1.94,.97c.1-1.93,.15-3.86,.15-5.81h1.79Z"/><path class="cls-5" d="M586.32,230.81v4.84h-1.79c0-1.95-.05-3.89-.15-5.81l1.94,.97Z"/><path class="cls-5" d="M586.32,225.98v4.83l-1.94-.97c-.07-1.29-.15-2.58-.26-3.86h2.2Z"/><path class="cls-5" d="M586.32,225.97h0s-2.2,.01-2.2,.01c-.07-.81-.14-1.62-.23-2.43l2.42,2.42Z"/><path class="cls-5" d="M586.32,216.29v9.67l-2.42-2.42c-.26-2.44-.59-4.86-1-7.25h3.43Z"/><path class="cls-5" d="M586.32,206.62v9.67h-3.43c-.56-3.27-1.25-6.5-2.09-9.67h5.51Z"/><path class="cls-5" d="M586.32,196.95v9.68h-5.51c-.86-3.28-1.86-6.51-3-9.68h8.52Z"/><path class="cls-5" d="M586.32,189.32v7.63h-8.52c-.37-1.04-.76-2.06-1.16-3.08v-6.6h8.83c.29,.68,.57,1.36,.84,2.05Z"/><path class="cls-5" d="M585.48,187.26h-8.83v-9.68h4.27c1.65,3.15,3.18,6.38,4.57,9.68Z"/><path class="cls-5" d="M576.64,283.99h8.83c-1.38,3.3-2.91,6.53-4.57,9.67h-4.27v-9.67Z"/><path class="cls-5" d="M580.91,177.59h-4.27v-7.48c1.5,2.44,2.93,4.93,4.27,7.48Z"/><path class="cls-5" d="M576.64,293.67h4.27c-1.34,2.55-2.76,5.04-4.27,7.48v-7.48Z"/><path class="cls-5" d="M576.64,293.67v7.48c-.45,.74-.92,1.47-1.39,2.2h-8.28v-6.83c.59-.94,1.18-1.9,1.75-2.86h7.93Z"/><path class="cls-5" d="M576.64,283.99v9.67h-7.93c1.85-3.13,3.55-6.36,5.1-9.67h2.83Z"/><path class="cls-5" d="M576.64,277.43v6.56h-2.83c1.01-2.15,1.95-4.34,2.83-6.56Z"/><path class="cls-5" d="M576.64,187.26v6.6c-.88-2.23-1.83-4.44-2.84-6.6h2.84Z"/><path class="cls-5" d="M576.64,177.59v9.68h-2.84c-1.55-3.31-3.26-6.54-5.11-9.68h7.95Z"/><path class="cls-5" d="M576.64,170.11v7.48h-7.95c-.56-.95-1.13-1.89-1.72-2.81v-6.86h8.29c.47,.72,.93,1.45,1.38,2.19Z"/><path class="cls-5" d="M575.26,167.91h-8.29v-.05l3.46-6.91c1.68,2.26,3.3,4.58,4.83,6.96Z"/><path class="cls-5" d="M566.97,303.35h8.28c-1.53,2.37-3.14,4.69-4.83,6.95l-3.46-6.92v-.03Z"/><path class="cls-5" d="M566.97,303.38l3.46,6.92c-.68,.92-1.38,1.83-2.1,2.73h-1.36v-9.64Z"/><path class="cls-5" d="M570.43,160.96l-3.46,6.91v-9.63h1.36c.71,.9,1.4,1.8,2.09,2.72Z"/><path class="cls-5" d="M568.34,158.24h-1.36v-1.69c.46,.56,.92,1.13,1.36,1.69Z"/><path class="cls-5" d="M566.97,313.02h1.36c-.45,.57-.9,1.13-1.36,1.69v-1.69Z"/><path class="cls-5" d="M566.97,313.02v1.69c-2.26,2.76-4.63,5.42-7.12,7.98h-2.57v-9.67h9.68Z"/><path class="cls-5" d="M566.97,303.38v9.64h-9.68v-3.33c1.75-2.05,3.43-4.16,5.02-6.34h4.65l.02,.03Z"/><path class="cls-5" d="M566.97,296.52v6.83h-.02l-1.93-3.85c.66-.98,1.31-1.97,1.94-2.97Z"/><path class="cls-5" d="M566.97,167.91v6.86c-.63-1.01-1.29-2.01-1.95-3l1.93-3.86h.03Z"/><path class="cls-5" d="M566.97,158.24v9.63l-.03,.05h-4.66c-1.59-2.16-3.26-4.27-5-6.3v-3.37h9.68Z"/><path class="cls-5" d="M566.97,156.54v1.69h-9.68v-9.67h2.57c2.48,2.56,4.86,5.21,7.12,7.97Z"/><path class="cls-5" d="M565.03,299.5l1.93,3.85h-4.65c.94-1.26,1.84-2.55,2.72-3.85Z"/><path class="cls-5" d="M566.95,167.91l-1.93,3.86c-.89-1.31-1.8-2.6-2.73-3.86h4.66Z"/><path class="cls-5" d="M559.86,148.57h-2.57l1.29-1.29c.43,.43,.86,.86,1.27,1.29Z"/><path class="cls-5" d="M557.29,322.69h2.56c-.42,.43-.84,.86-1.27,1.29l-1.29-1.29Z"/><path class="cls-5" d="M558.58,323.97h0c-.43,.43-.86,.86-1.29,1.28v-2.57h0l1.29,1.29Z"/><path class="cls-5" d="M557.29,146c.44,.42,.87,.85,1.29,1.28l-1.29,1.29v-2.57Z"/><path class="cls-5" d="M557.29,322.68h0s-9.67,0-9.67,0v-2.95c1.17-1.07,2.31-2.17,3.43-3.29l6.24,6.24Z"/><path class="cls-5" d="M557.29,322.69v2.57c-2.55,2.48-5.21,4.85-7.96,7.1h-1.71v-9.67h9.67Z"/><path class="cls-5" d="M557.29,313.02v9.66l-6.24-6.24c1.12-1.12,2.21-2.26,3.28-3.43h2.95Z"/><path class="cls-5" d="M557.29,309.69v3.33h-2.95c1.01-1.09,1.99-2.2,2.95-3.33Z"/><path class="cls-5" d="M557.29,158.24v3.37c-.97-1.15-1.97-2.27-2.99-3.37h2.99Z"/><path class="cls-5" d="M557.29,148.57v9.67h-2.99c-1.07-1.16-2.16-2.3-3.27-3.41l6.26-6.26Z"/><path class="cls-5" d="M557.29,146v2.57h-9.67v-9.68h1.69c2.76,2.26,5.42,4.63,7.97,7.11Z"/><path class="cls-5" d="M557.29,148.57l-6.26,6.26c-1.11-1.12-2.25-2.21-3.41-3.27v-2.99h9.67Z"/><path class="cls-5" d="M547.62,332.35h1.71c-.56,.46-1.13,.92-1.71,1.37v-1.37Z"/><path class="cls-5" d="M549.32,138.89h-1.69v-1.36c.57,.44,1.14,.9,1.69,1.36Z"/><path class="cls-5" d="M547.62,332.35v1.37c-.9,.72-1.82,1.42-2.74,2.11l-6.94-3.47v-.02h9.68Z"/><path class="cls-5" d="M547.62,322.69v9.67h-9.68v-4.64c2.17-1.6,4.29-3.27,6.34-5.02h3.33Z"/><path class="cls-5" d="M547.62,319.73v2.95h-3.33c1.13-.96,2.24-1.95,3.33-2.95Z"/><path class="cls-5" d="M547.62,148.57v2.99c-1.11-1.02-2.24-2.02-3.38-2.99h3.38Z"/><path class="cls-5" d="M547.62,138.89v9.68h-3.38c-2.04-1.74-4.13-3.4-6.29-4.98v-4.67l.06-.03h9.62Z"/><path class="cls-5" d="M547.62,137.53v1.36h-9.62l6.91-3.45c.92,.68,1.82,1.38,2.72,2.09Z"/><path class="cls-5" d="M544.91,135.44l-6.91,3.45h-.06v-8.29c2.38,1.53,4.7,3.15,6.96,4.84Z"/><path class="cls-5" d="M537.95,332.37l6.94,3.47c-2.25,1.68-4.57,3.29-6.94,4.82v-8.28Z"/><path class="cls-5" d="M537.95,332.37v8.28c-.72,.47-1.46,.93-2.19,1.38h-7.48v-7.93c.97-.57,1.92-1.16,2.87-1.76h6.77l.04,.02Z"/><path class="cls-5" d="M537.95,327.71v4.64h-.04l-3.83-1.92c1.31-.88,2.6-1.79,3.87-2.73Z"/><path class="cls-5" d="M537.95,138.91v4.67c-1.27-.94-2.57-1.85-3.88-2.73l3.88-1.94Z"/><path class="cls-5" d="M537.95,138.89v.03l-3.88,1.94c-1-.67-2-1.33-3.02-1.97h6.9Z"/><path class="cls-5" d="M537.95,130.6v8.29h-6.9c-.92-.58-1.84-1.15-2.78-1.7v-7.97h7.48c.73,.45,1.47,.92,2.19,1.38Z"/><path class="cls-5" d="M537.91,332.35h-6.77c.99-.62,1.97-1.26,2.94-1.92l3.83,1.92Z"/><path class="cls-5" d="M535.75,129.22h-7.48v-4.27c2.55,1.34,5.04,2.76,7.48,4.27Z"/><path class="cls-5" d="M528.27,342.04h7.48c-2.44,1.5-4.93,2.93-7.48,4.27v-4.27Z"/><path class="cls-5" d="M528.27,342.04v4.27c-3.15,1.65-6.38,3.18-9.68,4.57v-8.83h9.68Z"/><path class="cls-5" d="M528.27,334.11v7.93h-9.68v-2.82c3.31-1.55,6.54-3.26,9.68-5.11Z"/><path class="cls-5" d="M528.27,129.22v7.97c-3.13-1.85-6.36-3.55-9.68-5.11v-2.87h9.68Z"/><path class="cls-5" d="M528.27,124.95v4.27h-9.68v-8.83c3.3,1.38,6.53,2.91,9.68,4.57Z"/><path class="cls-5" d="M518.6,342.04v8.83c-.68,.29-1.36,.57-2.05,.84h-7.63v-8.51c1.05-.37,2.08-.76,3.11-1.17h6.57Z"/><path class="cls-5" d="M518.6,339.21v2.82h-6.57c2.23-.88,4.42-1.82,6.57-2.82Z"/><path class="cls-5" d="M518.6,129.22v2.87c-2.19-1.03-4.43-1.98-6.69-2.87h6.69Z"/><path class="cls-5" d="M518.6,120.38v8.83h-6.69c-.99-.39-1.98-.76-2.99-1.12v-8.55h7.63c.69,.27,1.37,.55,2.05,.84Z"/><path class="cls-5" d="M516.54,119.54h-7.63v-2.77c2.59,.84,5.13,1.77,7.63,2.77Z"/><path class="cls-5" d="M508.91,351.71h7.63c-2.5,1-5.04,1.92-7.63,2.77v-2.77Z"/><path class="cls-5" d="M508.91,351.71v2.77c-3.17,1.03-6.4,1.94-9.68,2.72v-5.48h9.68Z"/><path class="cls-5" d="M508.91,343.2v8.51h-9.68v-5.5c3.28-.86,6.51-1.86,9.68-3Z"/><path class="cls-5" d="M508.91,119.54v8.55c-3.16-1.14-6.39-2.14-9.68-3v-5.55h9.68Z"/><path class="cls-5" d="M508.91,116.78v2.77h-9.68v-5.48c3.28,.78,6.51,1.69,9.68,2.72Z"/><path class="cls-5" d="M499.24,351.71v5.48c-3.18,.75-6.4,1.39-9.67,1.9v-7.38h9.67Z"/><path class="cls-5" d="M499.24,346.21v5.5h-9.67v-3.42c3.27-.56,6.5-1.25,9.67-2.08Z"/><path class="cls-5" d="M499.24,119.54v5.55c-3.17-.83-6.4-1.52-9.67-2.08v-3.47h9.67Z"/><path class="cls-5" d="M499.24,114.06v5.48h-9.67v-7.38c3.27,.51,6.49,1.14,9.67,1.9Z"/><path class="cls-5" d="M489.57,351.71v7.38c-3.19,.5-6.42,.87-9.68,1.12v-8.39l.11-.11h9.58Z"/><path class="cls-5" d="M489.57,348.29v3.42h-9.58l2.43-2.43c2.4-.25,4.79-.58,7.14-.99Z"/><path class="cls-5" d="M489.57,119.54v3.47c-2.38-.41-4.79-.74-7.23-1l-2.45-2.45v-.02h9.68Z"/><path class="cls-5" d="M489.57,112.17v7.38h-9.68v-8.5c3.26,.25,6.49,.62,9.68,1.12Z"/><path class="cls-5" d="M482.42,349.27l-2.43,2.43h-.11v-2.19c.85-.07,1.7-.15,2.54-.24Z"/><path class="cls-5" d="M479.88,119.56l2.45,2.45c-.81-.09-1.63-.16-2.45-.23v-2.22Z"/><path class="cls-5" d="M479.88,351.81v8.39c-2.89,.22-5.81,.34-8.75,.36l8.75-8.76Z"/><path class="cls-5" d="M479.88,351.71v.11l-8.75,8.76c-.16,0-.31,0-.46,0l4.43-8.86h4.78Z"/><path class="cls-5" d="M479.88,349.52v2.19h-4.78l.97-1.94c1.28-.06,2.55-.15,3.81-.25Z"/><path class="cls-5" d="M479.88,119.56v2.22c-1.28-.11-2.56-.19-3.85-.26l-.99-1.98h4.82l.02,.02Z"/><path class="cls-5" d="M479.88,111.04v8.5h-.02l-8.86-8.86c2.99,.02,5.95,.14,8.88,.36Z"/><path class="cls-5" d="M471,110.68l8.86,8.86h-4.82l-4.44-8.87c.13,0,.27,0,.4,0Z"/><path class="cls-5" d="M476.07,349.77l-.97,1.94h-4.89v-1.79h.02c1.96,0,3.91-.05,5.84-.15Z"/><path class="cls-5" d="M475.04,119.54l.99,1.98c-1.92-.1-3.85-.15-5.8-.15h-.02v-1.84h4.83Z"/><path class="cls-5" d="M475.1,351.71l-4.43,8.86c-.15,0-.29,0-.44,0h-.02v-8.87h4.89Z"/><path class="cls-5" d="M475.04,119.54h-4.83v-8.87h.39l4.44,8.87Z"/><path class="cls-5" d="M470.21,351.71v8.87c-.15,0-.31,0-.46,0l-4.43-8.86h4.89Z"/><path class="cls-5" d="M470.21,349.92v1.79h-4.89l-.97-1.94c1.94,.1,3.89,.15,5.86,.15Z"/><path class="cls-5" d="M470.21,119.54v1.84c-1.95,0-3.89,.05-5.81,.15l.99-1.99h4.82Z"/><path class="cls-5" d="M470.21,110.68v8.87h-4.82l4.43-8.86c.13,0,.26,0,.39,0Z"/><path class="cls-5" d="M469.82,110.68l-4.43,8.86h-4.83s8.86-8.86,8.86-8.86c.13,0,.27,0,.4,0Z"/><path class="cls-5" d="M469.75,360.57c-.16,0-.31,0-.46,0l-8.73-8.74v-.13h4.76l4.43,8.86Z"/><path class="cls-5" d="M469.42,110.68l-8.86,8.86v-8.5c2.93-.22,5.88-.35,8.86-.36Z"/><path class="cls-5" d="M460.56,351.83l8.73,8.74c-2.94-.02-5.85-.14-8.73-.36v-8.37Z"/><path class="cls-5" d="M465.39,119.54l-.99,1.99c-1.29,.06-2.57,.15-3.84,.26v-2.24h4.83Z"/><path class="cls-5" d="M464.35,349.77l.97,1.94h-4.76v-2.2c1.26,.11,2.52,.2,3.79,.26Z"/><path class="cls-5" d="M460.56,351.83v8.37c-3.26-.25-6.48-.62-9.67-1.12v-7.38h9.54l.13,.13Z"/><path class="cls-5" d="M460.56,349.51v2.2h-.13l-2.44-2.44c.85,.09,1.71,.17,2.57,.24Z"/><path class="cls-5" d="M460.56,119.54v2.24c-.83,.07-1.65,.15-2.48,.23l2.47-2.47h0Z"/><path class="cls-5" d="M460.56,111.04v8.5h0s0,0,0,0h-9.66v-7.38c3.18-.5,6.41-.87,9.67-1.12Z"/><path class="cls-5" d="M460.55,119.54l-2.47,2.47c-2.42,.26-4.81,.59-7.19,1v-3.47h9.66Z"/><path class="cls-5" d="M460.43,351.71h-9.54v-3.43c2.34,.4,4.71,.73,7.1,.99l2.44,2.44Z"/><path class="cls-5" d="M450.89,359.09v2.28h-9.68v-4.18c3.18,.76,6.41,1.39,9.68,1.9Z"/><path class="cls-5" d="M450.89,351.71v7.38c-3.27-.51-6.5-1.14-9.68-1.9v-5.48h9.68Z"/><path class="cls-5" d="M450.89,348.28v3.43h-9.68v-5.51c3.17,.83,6.4,1.53,9.68,2.08Z"/><path class="cls-5" d="M450.89,342.17v6.12c-3.27-.55-6.5-1.25-9.68-2.08v-4.16h9.55l.13,.13Z"/><path class="cls-5" d="M450.89,337.39v4.64h-.13l-5.99-5.99c2.02,.51,4.06,.96,6.12,1.35Z"/><path class="cls-5" d="M450.89,332.35v5.04c-2.06-.39-4.1-.84-6.12-1.35l-3.56-3.56v-.13h9.68Z"/><path class="cls-5" d="M450.89,326.53v5.82h-9.68v-8.42c3.15,1.04,6.39,1.91,9.68,2.6Z"/><path class="cls-5" d="M450.89,322.82v3.71c-3.29-.69-6.52-1.56-9.68-2.6v-1.25h9.61l.07,.14Z"/><path class="cls-5" d="M450.89,315.59v7.1h-.07l-4.11-8.22c1.37,.41,2.77,.78,4.17,1.12Z"/><path class="cls-5" d="M450.89,313.02v2.57c-1.41-.34-2.8-.71-4.17-1.12l-.72-1.45h4.89Z"/><polygon class="cls-5" points="450.89 308.17 450.89 313.02 446 313.02 445.04 311.1 450.89 308.17"/><path class="cls-5" d="M450.89,304.56v3.61l-5.85,2.93-3.82-7.65v-.1h5.78c1.28,.44,2.58,.84,3.89,1.21Z"/><path class="cls-5" d="M450.89,303.35v1.21c-1.31-.37-2.61-.77-3.89-1.21h3.89Z"/><path class="cls-5" d="M450.89,293.67v9.68h-3.89c-1.97-.67-3.9-1.43-5.78-2.27v-7.41h9.68Z"/><path class="cls-5" d="M450.89,293.39v.28h-9.68v-4.48c3.07,1.67,6.31,3.08,9.68,4.2Z"/><path class="cls-5" d="M450.89,288.86v4.53c-3.36-1.12-6.6-2.53-9.68-4.2v-5.16l9.68,4.83Z"/><polygon class="cls-5" points="450.89 283.99 450.89 288.86 441.22 284.03 441.22 283.99 450.89 283.99"/><path class="cls-5" d="M450.89,282v2h-9.68v-7.36c3,2.13,6.24,3.93,9.68,5.37Z"/><path class="cls-5" d="M450.89,274.32v7.68c-3.44-1.43-6.68-3.24-9.68-5.37v-2.31h9.68Z"/><path class="cls-5" d="M450.89,270.14v4.18h-9.68v-9.68h2.14c2.28,2.12,4.81,3.96,7.54,5.49Z"/><path class="cls-5" d="M450.89,264.64v5.49c-2.73-1.53-5.26-3.37-7.54-5.49h7.54Z"/><path class="cls-5" d="M450.89,261.01v3.64h-7.54c-.37-.34-.73-.69-1.09-1.05l5.41-5.41c1.01,1.01,2.09,1.95,3.22,2.82Z"/><path class="cls-5" d="M450.89,254.97v6.04c-1.14-.87-2.21-1.81-3.22-2.82l3.22-3.22Z"/><path class="cls-5" d="M450.89,250.3v4.67h-6.04c-1.42-1.87-2.65-3.89-3.64-6.05v-3.62h6.75c.78,1.79,1.77,3.47,2.93,4.99Z"/><path class="cls-5" d="M450.89,245.3v4.99c-1.16-1.53-2.15-3.21-2.93-4.99h2.93Z"/><path class="cls-5" d="M450.89,235.65v9.65h-2.93c-1.28-2.96-2-6.22-2-9.65h4.93Z"/><path class="cls-5" d="M450.89,225.98v9.67h-4.93v-.02c0-3.43,.71-6.69,2-9.65h2.93Z"/><path class="cls-5" d="M450.89,220.96v5.01h-2.93c.77-1.8,1.77-3.48,2.93-5.01Z"/><path class="cls-5" d="M450.89,216.29v4.67c-1.17,1.54-2.16,3.22-2.93,5.01h-6.74v-3.64c.99-2.15,2.21-4.18,3.63-6.04h6.05Z"/><path class="cls-5" d="M450.89,216.28h0s-6.05,.01-6.05,.01c.87-1.14,1.81-2.22,2.82-3.23l3.22,3.22Z"/><path class="cls-5" d="M450.89,210.24v6.04l-3.22-3.22c1.01-1.01,2.09-1.95,3.22-2.82Z"/><path class="cls-5" d="M450.89,206.62v3.62c-1.14,.87-2.21,1.81-3.22,2.82l-5.4-5.4c.35-.36,.71-.7,1.08-1.04h7.55Z"/><path class="cls-5" d="M450.89,201.12v5.5h-7.55c2.28-2.12,4.81-3.97,7.55-5.5Z"/><path class="cls-5" d="M450.89,196.95v4.17c-2.74,1.53-5.27,3.38-7.55,5.5h-2.11l-.02-.02v-9.66h9.68Z"/><path class="cls-5" d="M450.89,189.24v7.71h-9.68v-2.34c3-2.13,6.24-3.93,9.68-5.37Z"/><path class="cls-5" d="M450.89,187.26v1.98c-3.44,1.43-6.68,3.24-9.68,5.37v-7.34h9.68Z"/><polygon class="cls-5" points="450.89 182.42 450.89 187.26 441.22 187.26 450.89 182.42"/><path class="cls-5" d="M450.89,177.87v4.55l-9.68,4.84v-5.19c3.07-1.67,6.31-3.08,9.68-4.2Z"/><path class="cls-5" d="M450.89,177.59v.29c-3.36,1.12-6.6,2.53-9.68,4.2v-4.49h9.68Z"/><path class="cls-5" d="M450.89,167.91v9.67h-9.68v-7.41c1.88-.83,3.81-1.59,5.77-2.26h3.91Z"/><path class="cls-5" d="M450.89,166.7v1.22h-3.91c1.29-.44,2.59-.85,3.91-1.22Z"/><path class="cls-5" d="M450.89,163.1v3.6c-1.32,.37-2.62,.77-3.91,1.22h-5.77v-.02l3.85-7.71,5.82,2.91Z"/><polygon class="cls-5" points="450.89 158.24 450.89 163.1 445.07 160.19 446.04 158.24 450.89 158.24"/><path class="cls-5" d="M450.89,155.66v2.58h-4.85l.73-1.47c1.36-.41,2.73-.77,4.11-1.11Z"/><path class="cls-5" d="M450.89,148.57v7.09c-1.38,.33-2.76,.7-4.11,1.11l4.1-8.2h.02Z"/><path class="cls-5" d="M450.89,144.71v3.83l-.02,.03h-9.66v-1.26c3.15-1.04,6.39-1.91,9.68-2.6Z"/><path class="cls-5" d="M450.89,138.89v5.82c-3.29,.69-6.52,1.56-9.68,2.6v-8.42h9.68Z"/><path class="cls-5" d="M450.89,133.84v5.05h-9.68s3.74-3.75,3.74-3.75c1.96-.49,3.94-.93,5.94-1.3Z"/><path class="cls-5" d="M450.89,129.22v4.62c-2,.38-3.98,.81-5.94,1.3l5.93-5.92h.01Z"/><path class="cls-5" d="M450.89,123.01v6.19h-.01s-9.67,.01-9.67,.01v-4.12c3.17-.83,6.4-1.53,9.68-2.08Z"/><path class="cls-5" d="M450.89,119.54v3.47c-3.27,.55-6.5,1.25-9.68,2.08v-5.55h9.68Z"/><path class="cls-5" d="M450.89,112.17v7.38h-9.68v-5.48c3.18-.76,6.41-1.39,9.68-1.9Z"/><path class="cls-5" d="M450.89,109.89v2.28c-3.27,.51-6.5,1.14-9.68,1.9v-4.18h9.68Z"/><path class="cls-5" d="M450.89,254.97l-3.22,3.22c-1.01-1.01-1.95-2.09-2.82-3.22h6.04Z"/><path class="cls-5" d="M450.88,129.22l-5.93,5.92c-1.26,.32-2.5,.65-3.74,1.02v-6.94h9.67Z"/><path class="cls-5" d="M450.88,148.57l-4.1,8.2c-1.51,.45-3,.94-4.47,1.47h-1.1v-9.67h9.66Z"/><path class="cls-5" d="M450.83,322.69h-9.61v-9.67h1.1c1.45,.52,2.91,1.01,4.4,1.45l4.11,8.22Z"/><path class="cls-5" d="M444.77,336.05l5.99,5.99h-9.55v-6.96c1.18,.35,2.36,.67,3.56,.97Z"/><path class="cls-5" d="M447.97,245.3h-6.75v-9.65h4.75c0,3.43,.72,6.69,2,9.65Z"/><path class="cls-5" d="M441.22,225.98h6.74c-1.29,2.96-2,6.22-2,9.65v.02h-4.75v-9.67Z"/><path class="cls-5" d="M447.67,258.19l-5.41,5.41c-.36-.36-.7-.72-1.05-1.09v-7.54h3.64c.87,1.14,1.81,2.21,2.82,3.22Z"/><path class="cls-5" d="M442.27,207.66l5.4,5.4c-1.01,1.01-1.96,2.09-2.82,3.23h-3.63v-7.54c.34-.37,.69-.73,1.05-1.09h0Z"/><path class="cls-5" d="M447,303.35h-5.78v-2.27c1.89,.84,3.81,1.59,5.78,2.27Z"/><path class="cls-5" d="M441.22,167.91h5.77c-1.96,.67-3.89,1.43-5.77,2.26v-2.26Z"/><path class="cls-5" d="M446.78,156.77l-.73,1.47h-3.73c1.47-.53,2.96-1.02,4.47-1.47Z"/><path class="cls-5" d="M446,313.02l.72,1.45c-1.49-.44-2.95-.93-4.4-1.45h3.68Z"/><path class="cls-5" d="M446.04,158.24l-.98,1.95-3.42-1.71c.22-.09,.44-.17,.66-.24h3.73Z"/><path class="cls-5" d="M446,313.02h-3.68c-.22-.08-.43-.16-.65-.24l3.37-1.68,.96,1.92Z"/><path class="cls-5" d="M445.07,160.19l-3.85,7.71v-9.26c.15-.06,.29-.11,.43-.16l3.42,1.71Z"/><path class="cls-5" d="M445.04,311.1l-3.37,1.68c-.15-.06-.3-.11-.45-.17v-9.16l3.82,7.65Z"/><path class="cls-5" d="M444.95,135.14l-3.74,3.74v-2.72c1.23-.36,2.48-.7,3.74-1.02Z"/><path class="cls-5" d="M444.85,254.97h-3.64v-6.05c.99,2.16,2.21,4.18,3.64,6.05Z"/><path class="cls-5" d="M441.22,216.29h3.63c-1.42,1.86-2.65,3.89-3.63,6.04v-6.04Z"/><path class="cls-5" d="M441.22,332.48l3.56,3.56c-1.2-.3-2.38-.62-3.56-.97v-2.59Z"/><path class="cls-5" d="M443.35,264.64h-2.14l1.05-1.05c.36,.36,.72,.7,1.09,1.05Z"/><path class="cls-5" d="M441.23,206.62h2.11c-.37,.34-.72,.68-1.08,1.04h0l-1.03-1.04Z"/><path class="cls-5" d="M442.32,313.02h-1.1s.45-.24,.45-.24c.22,.08,.43,.16,.65,.24Z"/><path class="cls-5" d="M441.23,206.62l1.03,1.04c-.36,.36-.7,.72-1.05,1.09v-2.13h.02Z"/><path class="cls-5" d="M442.26,263.6l-1.05,1.05v-2.14c.34,.37,.69,.73,1.05,1.09Z"/><path class="cls-5" d="M441.67,312.78l-.45,.23v-.4c.15,.06,.3,.12,.45,.17Z"/></g></g><g><path class="cls-6" d="M688.4,236.04c0-4.19,.83-7.96,2.17-10.61,.23-.46,2.14,7.48,2.52,7.24,.32-.2-1.25-9.24-.97-9.55,.93-1.02,1.99-1.59,3.11-1.59,3.77,0,6.83,6.5,6.83,14.52s-3.06,14.52-6.83,14.52-6.83-6.5-6.83-14.52Z"/><g><g><path class="cls-5" d="M757.46,235.56l-2.14,4.28c.11-1.42,.16-2.87,.16-4.32h1.96l.02,.04Z"/><path class="cls-5" d="M755.33,231.29l2.11,4.23h-1.96v-.02c0-1.41-.05-2.82-.15-4.21Z"/><path class="cls-5" d="M755.47,235.51v.02h-2.85v-9.63l2.71,5.41c.1,1.39,.15,2.8,.15,4.21Z"/><path class="cls-5" d="M752.62,235.52h2.85c0,1.45-.05,2.89-.16,4.32l-2.65,5.3h-.05v-9.62Z"/><path class="cls-5" d="M752.62,235.52v9.62h-8.72c.61-3.11,.93-6.33,.93-9.62h7.79Z"/><path class="cls-5" d="M752.62,225.89v9.63h-7.79v-.03c0-3.29-.32-6.5-.93-9.61h8.72Z"/><path class="cls-5" d="M744.83,235.49v.03h-1.85v-9.64h.93c.61,3.11,.93,6.32,.93,9.61Z"/><path class="cls-5" d="M742.98,235.52h1.85c0,3.29-.32,6.51-.93,9.62h-.92v-9.62Z"/><path class="cls-5" d="M742.98,235.52v9.62h-9.65v-1.39c.57-2.66,.87-5.41,.87-8.23h8.78Z"/><path class="cls-5" d="M742.98,225.88v9.64h-8.78v-.02c0-2.83-.3-5.59-.87-8.25v-1.37h9.65Z"/><path class="cls-5" d="M734.19,235.5v.02h-.87v-8.27c.57,2.66,.87,5.42,.87,8.25Z"/><path class="cls-5" d="M733.33,235.52h.87c0,2.82-.3,5.57-.87,8.23v-8.23Z"/><path class="cls-5" d="M733.33,243.75v1.39h-.33c.12-.46,.23-.92,.33-1.39Z"/><path class="cls-5" d="M733.33,235.52v8.23c-.1,.47-.21,.93-.33,1.39h-7.9c.97-3.03,1.49-6.27,1.49-9.62h6.74Z"/><path class="cls-5" d="M733.33,227.25v8.27h-6.74v-.02c0-3.35-.52-6.58-1.48-9.62h7.89c.12,.45,.23,.91,.32,1.37Z"/><path class="cls-5" d="M733.33,225.88v1.37c-.1-.46-.2-.92-.32-1.37h.32Z"/><path class="cls-5" d="M726.59,235.5v.02h-2.91v-9.64h1.43c.96,3.04,1.48,6.27,1.48,9.62Z"/><path class="cls-5" d="M723.68,235.52h2.91c0,3.35-.52,6.59-1.49,9.62h-1.42v-9.62Z"/><path class="cls-5" d="M725.11,225.88h-1.43v-3.68c.55,1.19,1.03,2.42,1.43,3.68Z"/><path class="cls-5" d="M723.68,245.14h1.42c-.4,1.26-.87,2.48-1.42,3.66v-3.66Z"/><path class="cls-5" d="M723.68,245.14v3.66c-.98,2.13-2.19,4.13-3.6,5.97h-6.03v-4.65c1.16-1.53,2.15-3.2,2.93-4.98h6.71Z"/><path class="cls-5" d="M723.68,235.52v9.62h-6.71c1.28-2.95,1.99-6.2,1.99-9.62h4.71Z"/><path class="cls-5" d="M723.68,225.88v9.64h-4.71v-.02c0-3.42-.71-6.67-1.99-9.62h6.7Z"/><path class="cls-5" d="M723.68,222.2v3.68h-6.7c-.78-1.79-1.76-3.47-2.93-5v-4.65h6.04c1.41,1.84,2.62,3.84,3.59,5.96Z"/><path class="cls-5" d="M720.08,216.23h-6.04l3.22-3.22h0c1.01,1.01,1.95,2.09,2.81,3.22Z"/><path class="cls-5" d="M714.05,254.77h6.02c-.86,1.14-1.8,2.21-2.81,3.21l-3.21-3.21Z"/><path class="cls-5" d="M717.27,213.01l-3.22,3.22v-6.04c1.14,.87,2.22,1.81,3.22,2.82Z"/><path class="cls-5" d="M714.05,254.77l3.21,3.21c-1.01,1.01-2.09,1.95-3.22,2.82v-6.03h.01Z"/><path class="cls-5" d="M714.04,254.77v6.03c-1.85,1.41-3.87,2.63-6.01,3.61h-3.63v-6.72c1.79-.77,3.46-1.76,5-2.92h4.65Z"/><path class="cls-5" d="M714.04,254.76h0s-4.65,.01-4.65,.01c.88-.67,1.71-1.39,2.49-2.17l2.17,2.16Z"/><path class="cls-5" d="M714.04,250.12v4.64l-2.17-2.16h0c.78-.78,1.5-1.6,2.17-2.48Z"/><path class="cls-5" d="M714.04,216.23v4.65c-.67-.88-1.39-1.7-2.17-2.48l2.17-2.17Z"/><path class="cls-5" d="M714.04,210.19v6.04h-4.65c-1.53-1.17-3.21-2.16-5-2.93v-6.71h3.66c2.13,.98,4.14,2.19,5.98,3.59Z"/><path class="cls-5" d="M714.04,216.23l-2.17,2.17c-.78-.78-1.6-1.5-2.48-2.17h4.65Z"/><path class="cls-5" d="M708.06,206.59h-3.66v-1.42c1.26,.4,2.48,.87,3.66,1.42Z"/><path class="cls-5" d="M704.39,264.42h3.63c-1.17,.54-2.39,1.01-3.63,1.4v-1.4Z"/><path class="cls-5" d="M704.39,351.18v.18l-8.64,8.66c-.16,0-.33,0-.49,0l4.41-8.83h4.72Z"/><path class="cls-5" d="M704.39,264.42v1.4c-3.03,.96-6.27,1.48-9.61,1.48h-.03v-2.88h9.64Z"/><path class="cls-5" d="M704.39,257.7v6.72h-9.64v-4.73h.02c3.42,0,6.67-.71,9.62-1.99Z"/><path class="cls-5" d="M704.39,206.59v6.71c-2.95-1.28-6.2-1.99-9.62-1.99h-.02v-4.72h9.64Z"/><path class="cls-5" d="M704.39,205.18v1.42h-9.64v-2.9h.03c3.35,0,6.58,.52,9.61,1.48Z"/><path class="cls-5" d="M704.39,119.66v.16h-4.82l-4.42-8.84c.19,0,.38,0,.57,0l8.67,8.68Z"/><path class="cls-5" d="M699.68,351.18l-4.41,8.83c-.17,0-.33,0-.49,0h-.02v-8.84h4.92Z"/><path class="cls-5" d="M695.16,110.98l4.42,8.84h-4.82v-8.84h.41Z"/><path class="cls-5" d="M695.76,360.01l-.8,.8h-.1l.4-.8c.17,0,.33,0,.49,0Z"/><path class="cls-5" d="M695.16,110.98h-.41v-.79h.18l.79,.79c-.19,0-.38,0-.57,0Z"/><path class="cls-5" d="M695.27,360.01l-.4,.8h-.11v-.79h.02c.17,0,.33,0,.49,0Z"/><path class="cls-5" d="M694.76,360.02v.79h-.07l-.4-.8c.16,0,.32,0,.47,0Z"/><path class="cls-5" d="M694.76,351.18v8.84c-.16,0-.32,0-.47,0l-4.42-8.83h4.89Z"/><path class="cls-5" d="M694.76,264.42v2.88c-3.35,0-6.59-.53-9.62-1.49v-1.39h9.62Z"/><path class="cls-5" d="M694.76,259.69v4.73h-9.62v-6.73c2.95,1.28,6.2,1.99,9.62,1.99Z"/><path class="cls-5" d="M694.76,206.59v4.72c-3.42,0-6.67,.72-9.62,1.99v-6.71h9.62Z"/><path class="cls-5" d="M694.76,203.7v2.9h-9.62v-1.41c3.03-.96,6.27-1.48,9.62-1.49Z"/><path class="cls-5" d="M694.76,110.98v8.84h-4.82l4.42-8.83c.14,0,.27,0,.4,0Z"/><path class="cls-5" d="M694.76,110.19v.79c-.14,0-.27,0-.4,0l.4-.79h0Z"/><path class="cls-5" d="M694.75,110.19l-.4,.79c-.16,0-.31,0-.46,0l.79-.79h.07Z"/><path class="cls-5" d="M694.69,110.19l-.79,.79c-2.95,.02-5.86,.14-8.76,.36v-1.15h9.55Z"/><path class="cls-5" d="M694.69,360.81h-.1l-.8-.8c.16,0,.33,0,.49,0l.4,.8Z"/><path class="cls-5" d="M693.79,360.01l.8,.8h-9.45v-1.16c2.86,.22,5.74,.34,8.66,.36Z"/><path class="cls-5" d="M694.35,110.98l-4.42,8.83h-4.8v-.06l8.76-8.77c.16,0,.31,0,.46,0Z"/><path class="cls-5" d="M689.87,351.18l4.42,8.83c-.17,0-.33,0-.49,0l-8.66-8.67v-.16h4.73Z"/><path class="cls-5" d="M693.89,110.98l-8.76,8.77v-8.41c2.89-.22,5.81-.34,8.76-.36Z"/><path class="cls-5" d="M685.14,351.34l8.66,8.67c-2.91-.02-5.8-.15-8.66-.36v-8.31Z"/><path class="cls-5" d="M685.14,359.65v1.16h-9.63v-2.28c3.17,.5,6.39,.87,9.63,1.12Z"/><path class="cls-5" d="M685.14,351.34v8.31c-3.25-.25-6.46-.62-9.63-1.12v-7.35h9.47l.16,.16Z"/><path class="cls-5" d="M685.14,264.42v1.39c-1.23-.39-2.44-.86-3.6-1.39h3.6Z"/><path class="cls-5" d="M685.14,257.69v6.73h-3.6c-2.15-.99-4.17-2.21-6.03-3.62v-6.02h4.66c1.52,1.16,3.2,2.14,4.98,2.92Z"/><path class="cls-5" d="M685.14,206.59v6.71c-1.78,.78-3.45,1.76-4.98,2.93h-4.65v-6.03c1.85-1.41,3.86-2.63,6-3.61h3.63Z"/><path class="cls-5" d="M685.14,205.19v1.41h-3.63c1.17-.54,2.39-1.01,3.63-1.41Z"/><path class="cls-5" d="M685.14,111.34v8.41l-.06,.06h-9.57v-7.35c3.17-.5,6.39-.87,9.63-1.12Z"/><path class="cls-5" d="M685.14,110.19v1.15c-3.25,.25-6.46,.62-9.63,1.12v-2.27h9.63Z"/><path class="cls-5" d="M680.16,254.77h-4.66l2.17-2.17c.78,.78,1.61,1.5,2.49,2.17Z"/><path class="cls-5" d="M675.51,216.23h4.64c-.88,.66-1.7,1.38-2.48,2.17h0l-2.16-2.17Z"/><path class="cls-5" d="M675.51,216.23l2.16,2.17c-.78,.78-1.5,1.61-2.17,2.49v-4.65h.01Z"/><path class="cls-5" d="M677.67,252.6l-2.17,2.17v-4.66c.67,.88,1.39,1.71,2.17,2.49Z"/><path class="cls-5" d="M675.5,358.53v2.28h-9.64v-4.17c3.17,.76,6.39,1.39,9.64,1.89Z"/><path class="cls-5" d="M675.5,351.18v7.35c-3.26-.51-6.48-1.14-9.64-1.89v-5.46h9.64Z"/><path class="cls-5" d="M675.5,254.77v6.02c-1.13-.86-2.21-1.8-3.21-2.81h0s3.21-3.21,3.21-3.21Z"/><path class="cls-5" d="M675.5,250.12v4.66h-6.01c-1.43-1.86-2.65-3.88-3.63-6.03v-3.6h6.73c.78,1.78,1.76,3.45,2.92,4.98Z"/><path class="cls-5" d="M675.5,216.23v4.65c-1.16,1.53-2.15,3.21-2.92,5h-6.72v-3.62c.98-2.15,2.2-4.17,3.62-6.03h6.02Z"/><path class="cls-5" d="M675.5,216.22h0s-6.02,.01-6.02,.01c.86-1.13,1.8-2.21,2.81-3.22l3.21,3.21Z"/><path class="cls-5" d="M675.5,210.2v6.02l-3.21-3.21c1-1,2.07-1.94,3.21-2.81Z"/><path class="cls-5" d="M675.5,112.46v7.35h-9.64v-5.46c3.17-.76,6.39-1.39,9.64-1.89Z"/><path class="cls-5" d="M675.5,110.19v2.27c-3.26,.51-6.48,1.14-9.64,1.89v-4.17h9.64Z"/><path class="cls-5" d="M675.5,254.77l-3.21,3.21c-1.01-1-1.95-2.08-2.81-3.21h6.01Z"/><path class="cls-5" d="M672.59,245.14h-6.73v-9.62h4.73c0,3.42,.72,6.67,1.99,9.62Z"/><path class="cls-5" d="M665.86,225.88h6.72c-1.28,2.95-1.99,6.2-1.99,9.62v.02h-4.73v-9.64Z"/><path class="cls-5" d="M665.86,356.64v4.17h-9.64v-6.88c3.16,1.03,6.38,1.93,9.64,2.71Z"/><path class="cls-5" d="M665.86,351.18v5.46c-3.27-.77-6.49-1.68-9.64-2.71v-2.75h9.64Z"/><path class="cls-5" d="M665.86,245.14v3.6c-.54-1.16-1-2.37-1.39-3.6h1.39Z"/><path class="cls-5" d="M665.86,235.52v9.62h-1.39c-.97-3.03-1.49-6.27-1.49-9.62h2.88Z"/><path class="cls-5" d="M665.86,225.88v9.64h-2.88v-.02c0-3.35,.52-6.58,1.48-9.62h1.4Z"/><path class="cls-5" d="M665.86,222.26v3.62h-1.4c.4-1.24,.86-2.45,1.4-3.62Z"/><path class="cls-5" d="M665.86,114.36v5.46h-9.64v-2.75c3.16-1.03,6.38-1.93,9.64-2.71Z"/><path class="cls-5" d="M665.86,110.19v4.17c-3.27,.77-6.49,1.68-9.64,2.71v-6.87h9.64Z"/><path class="cls-5" d="M664.47,245.14h-7.91c-.13-.48-.24-.96-.34-1.44v-8.18h6.76c0,3.35,.52,6.59,1.49,9.62Z"/><path class="cls-5" d="M656.55,225.88h7.91c-.96,3.04-1.48,6.27-1.48,9.62v.02h-6.76v-8.22c.1-.48,.21-.95,.33-1.42Z"/><path class="cls-5" d="M656.55,245.14h-.34v-1.44c.1,.48,.21,.96,.34,1.44Z"/><path class="cls-5" d="M656.22,225.88h.33c-.13,.47-.23,.94-.33,1.42v-1.42Z"/><path class="cls-5" d="M656.22,353.93v6.88h-9.64v-9.63h2.05c2.49,1,5.02,1.91,7.59,2.75Z"/><path class="cls-5" d="M656.22,351.18v2.75c-2.57-.84-5.1-1.75-7.59-2.75h7.59Z"/><path class="cls-5" d="M656.22,243.7v1.44h-9.64v-9.62h8.78c0,2.8,.3,5.54,.86,8.18Z"/><path class="cls-5" d="M656.22,235.52v8.18c-.56-2.64-.86-5.38-.86-8.18h.86Z"/><path class="cls-5" d="M656.22,227.3v8.22h-.86v-.02c0-2.81,.3-5.55,.86-8.2Z"/><path class="cls-5" d="M656.22,225.88v1.42c-.56,2.65-.86,5.39-.86,8.2v.02h-8.78v-9.64h9.64Z"/><path class="cls-5" d="M656.22,117.06v2.75h-7.59c2.49-1,5.02-1.91,7.59-2.75Z"/><path class="cls-5" d="M656.22,110.19v6.87c-2.57,.84-5.1,1.75-7.59,2.75h-2.05v-9.62h9.64Z"/><rect class="cls-5" x="636.94" y="351.18" width="9.64" height="9.63"/><path class="cls-5" d="M646.58,235.52v9.62h-.93c-.61-3.11-.93-6.33-.93-9.62h1.86Z"/><path class="cls-5" d="M646.58,225.88v9.64h-1.86v-.03c0-3.29,.32-6.5,.93-9.61h.94Z"/><rect class="cls-5" x="636.94" y="110.19" width="9.64" height="9.62"/><path class="cls-5" d="M645.64,245.14h-8.71v-9.62h7.77c0,3.29,.32,6.51,.93,9.62Z"/><path class="cls-5" d="M636.94,225.88h8.7c-.61,3.11-.93,6.32-.93,9.61v.03h-7.77v-9.64Z"/><rect class="cls-5" x="627.29" y="351.18" width="9.65" height="9.63"/><path class="cls-5" d="M636.94,235.52v9.62h-.07l-2.62-5.25c-.11-1.44-.16-2.9-.16-4.37h2.85Z"/><path class="cls-5" d="M636.94,225.88v9.64h-2.85v-.02c0-1.43,.05-2.86,.15-4.27l2.68-5.36h.02Z"/><rect class="cls-5" x="627.29" y="110.19" width="9.65" height="9.62"/><path class="cls-5" d="M636.92,225.88l-2.68,5.36c.12-1.81,.33-3.6,.61-5.36h2.07Z"/><path class="cls-5" d="M636.87,245.14h-2.02c-.28-1.72-.48-3.47-.6-5.25l2.62,5.25Z"/><path class="cls-5" d="M627.29,225.88h7.56c-.29,1.76-.49,3.55-.61,5.36l-2.14,4.28h-.04l-4.77-9.54v-.1Z"/><path class="cls-5" d="M634.85,245.14h-7.56l4.79-9.58,2.17,4.33c.12,1.77,.33,3.52,.6,5.25Z"/><path class="cls-5" d="M634.25,239.89l-2.17-4.33,.02-.04h1.99c0,1.47,.06,2.93,.16,4.37Z"/><path class="cls-5" d="M632.1,235.52l2.14-4.28c-.1,1.41-.15,2.83-.15,4.27v.02h-1.99Z"/><polygon class="cls-5" points="632.06 235.52 632.08 235.56 627.29 245.14 627.29 235.52 632.06 235.52"/><polygon class="cls-5" points="632.06 235.52 627.29 235.52 627.29 225.98 632.06 235.52"/><polygon class="cls-5" points="627.29 351.18 627.29 360.81 617.65 360.81 617.65 360.74 617.65 351.18 627.29 351.18"/><path class="cls-5" d="M627.29,235.52v9.62h-3.2c-.43-3.15-.65-6.36-.65-9.62h3.84Z"/><path class="cls-5" d="M627.29,225.98v9.54h-3.84v-.02c0-3.26,.22-6.47,.64-9.62h3.15l.05,.1Z"/><rect class="cls-5" x="617.65" y="110.19" width="9.64" height="9.62"/><path class="cls-5" d="M624.09,245.14h-6.44v-9.62h5.79c0,3.26,.22,6.47,.65,9.62Z"/><path class="cls-5" d="M617.65,225.88h6.44c-.42,3.15-.64,6.36-.64,9.62v.02h-5.79v-9.64Z"/><path class="cls-5" d="M617.65,158.37h0s-6.66,0-6.66,0c1.07-1.15,2.16-2.29,3.26-3.4l3.39,3.39Z"/><path class="cls-5" d="M617.65,264.42h0s-4.82,9.64-4.82,9.64h-2.28c-.92-1.99-1.76-4.03-2.54-6.1v-3.54h9.63Z"/><polygon class="cls-5" points="617.65 360.74 617.65 360.81 608.02 360.81 608.02 360.67 608.02 351.18 617.65 351.18 617.65 360.74"/><rect class="cls-5" x="608.02" y="341.54" width="9.63" height="9.64"/><polygon class="cls-5" points="617.65 336.72 617.65 341.54 608.02 341.54 608.02 341.53 617.65 336.72"/><path class="cls-5" d="M617.65,333.26v3.46l-9.63,4.82v-9.64h7.93c.56,.46,1.13,.92,1.7,1.36Z"/><path class="cls-5" d="M617.65,331.89v1.36c-.57-.45-1.14-.9-1.7-1.36h1.7Z"/><path class="cls-5" d="M617.65,322.26v9.63h-1.7c-2.75-2.25-5.39-4.61-7.93-7.08v-2.56h9.63Z"/><path class="cls-5" d="M617.65,319.32v2.94h-9.63l6.22-6.22c1.11,1.11,2.26,2.21,3.41,3.27Z"/><path class="cls-5" d="M617.65,312.63v6.69c-1.16-1.07-2.3-2.16-3.41-3.27h0s3.41-3.42,3.41-3.42Z"/><path class="cls-5" d="M617.65,304.11v8.52h-6.69c-1-1.09-1.98-2.2-2.94-3.32v-6.32h8.65c.33,.38,.66,.75,.99,1.12Z"/><path class="cls-5" d="M617.65,302.99v1.12c-.33-.37-.66-.75-.99-1.12h.99Z"/><path class="cls-5" d="M617.65,293.34v9.65h-.99c-2.65-3.06-5.13-6.29-7.4-9.65h8.39Z"/><path class="cls-5" d="M617.65,286.78v6.56h-8.39c-.43-.62-.84-1.24-1.24-1.87v-7.76h7.67c.63,1.04,1.28,2.07,1.96,3.08Z"/><path class="cls-5" d="M617.65,283.75v3.02c-.68-1.01-1.33-2.04-1.96-3.08h1.9l.06,.06Z"/><path class="cls-5" d="M617.65,274.06v9.64h-.06l-4.48-4.49c-.5-.93-.98-1.86-1.45-2.81l1.17-2.34h4.82Z"/><polygon class="cls-5" points="617.65 264.42 617.65 274.06 612.83 274.06 617.65 264.42"/><path class="cls-5" d="M617.65,263.31v1.1h-9.63v-9.49l8.23,4.14c.43,1.43,.9,2.86,1.4,4.26Z"/><path class="cls-5" d="M617.65,259.77v3.55c-.51-1.4-.98-2.82-1.4-4.26l1.4,.71Z"/><path class="cls-5" d="M617.65,254.77v4.99l-1.4-.71c-.43-1.41-.81-2.84-1.16-4.29h2.56Z"/><path class="cls-5" d="M617.65,245.14v9.63h-2.56c-.76-3.14-1.34-6.36-1.72-9.63h4.28Z"/><path class="cls-5" d="M617.65,235.52v9.62h-4.28c-.37-3.16-.56-6.37-.56-9.62h4.84Z"/><path class="cls-5" d="M617.65,225.88v9.64h-4.84v-.02c0-3.25,.19-6.47,.56-9.62h4.28Z"/><path class="cls-5" d="M617.65,216.23v9.65h-4.28c.38-3.28,.96-6.5,1.72-9.65h2.56Z"/><path class="cls-5" d="M617.65,211.54v4.7h-2.56c.32-1.33,.67-2.64,1.05-3.94l1.51-.75Z"/><path class="cls-5" d="M617.65,207.68v3.85l-1.51,.75c.46-1.55,.96-3.09,1.51-4.61Z"/><path class="cls-5" d="M617.65,206.69v.99c-.55,1.51-1.05,3.05-1.51,4.61l-7.9,3.94h-.23v-9.64h9.58l.05,.1Z"/><polygon class="cls-5" points="617.65 196.95 617.65 206.59 617.6 206.59 612.78 196.95 617.65 196.95"/><path class="cls-5" d="M617.65,187.36v9.59h-4.87l-1.14-2.29c.43-.88,.88-1.75,1.33-2.61l4.68-4.69Z"/><path class="cls-5" d="M617.65,187.3v.06l-4.68,4.69c.86-1.61,1.76-3.19,2.72-4.75h1.96Z"/><path class="cls-5" d="M617.65,184.21v3.09h-1.96c.63-1.04,1.29-2.08,1.96-3.09Z"/><path class="cls-5" d="M617.65,177.66v6.56c-.68,1.01-1.33,2.05-1.96,3.09h-7.67v-7.79c.4-.62,.81-1.24,1.23-1.85h8.41Z"/><path class="cls-5" d="M617.65,168.02v9.64h-8.41c2.28-3.36,4.75-6.58,7.39-9.64h1.01Z"/><path class="cls-5" d="M617.65,166.87v1.15h-1.01c.34-.39,.67-.77,1.01-1.15Z"/><path class="cls-5" d="M617.65,158.37v8.49c-.34,.38-.68,.77-1.01,1.15h-8.62v-6.28c.97-1.14,1.96-2.26,2.98-3.36h6.66Z"/><path class="cls-5" d="M617.65,151.72v6.65l-3.39-3.39c1.11-1.11,2.24-2.2,3.39-3.25Z"/><path class="cls-5" d="M617.65,148.74v2.98c-1.15,1.06-2.29,2.15-3.39,3.25l-6.24-6.24h9.63Z"/><path class="cls-5" d="M617.65,139.09v9.65h-9.63v-2.56c2.55-2.47,5.19-4.84,7.94-7.09h1.69Z"/><path class="cls-5" d="M617.65,137.74v1.35h-1.69c.56-.46,1.12-.91,1.69-1.35Z"/><path class="cls-5" d="M617.65,134.38v3.36c-.57,.44-1.13,.9-1.69,1.35h-7.94v-9.53l9.63,4.82Z"/><polygon class="cls-5" points="617.65 129.45 617.65 134.38 608.02 129.56 608.02 129.45 617.65 129.45"/><rect class="cls-5" x="608.02" y="119.81" width="9.63" height="9.64"/><rect class="cls-5" x="608.02" y="110.19" width="9.63" height="9.62"/><path class="cls-5" d="M617.65,312.63l-3.41,3.41c-1.12-1.11-2.21-2.26-3.28-3.41h6.69Z"/><path class="cls-5" d="M612.78,196.95l4.82,9.64h-9.58v-3.56c.77-2.07,1.61-4.1,2.53-6.09h2.23Z"/><path class="cls-5" d="M613.11,279.21l4.48,4.49h-1.9c-.9-1.47-1.76-2.97-2.58-4.49Z"/><path class="cls-5" d="M616.66,302.99h-8.65v-9.65h1.24c2.28,3.36,4.75,6.59,7.4,9.65Z"/><path class="cls-5" d="M608.02,168.02h8.62c-2.65,3.06-5.12,6.28-7.39,9.64h-1.23v-9.64Z"/><path class="cls-5" d="M616.25,259.06l-8.23-4.14v-.15h7.07c.35,1.44,.73,2.87,1.16,4.29Z"/><path class="cls-5" d="M608.24,216.23l7.9-3.94c-.39,1.3-.74,2.62-1.05,3.94h-6.85Z"/><path class="cls-5" d="M608.02,139.09h7.94c-2.75,2.25-5.4,4.62-7.94,7.09v-7.09Z"/><path class="cls-5" d="M615.95,331.89h-7.93v-7.08c2.54,2.47,5.19,4.83,7.93,7.08Z"/><path class="cls-5" d="M615.69,283.7h-7.67s3.19-6.4,3.19-6.4l1.9,1.9c.82,1.52,1.67,3.02,2.58,4.49Z"/><path class="cls-5" d="M608.02,187.3h7.67c-.95,1.55-1.86,3.14-2.72,4.75l-1.76,1.76-3.19-6.39v-.12Z"/><path class="cls-5" d="M608.24,216.23h6.85c-.76,3.15-1.34,6.37-1.72,9.65h-5.35v-9.53l.23-.12Z"/><path class="cls-5" d="M615.09,254.77h-7.07v-9.63h5.35c.38,3.27,.96,6.49,1.72,9.63Z"/><path class="cls-5" d="M614.26,154.98c-1.11,1.11-2.2,2.25-3.26,3.4h-2.98v-9.63h0l6.24,6.24Z"/><path class="cls-5" d="M614.24,316.04h0s-6.22,6.22-6.22,6.22v-9.63h2.94c1.07,1.16,2.16,2.3,3.28,3.41Z"/><path class="cls-5" d="M608.02,225.88h5.35c-.37,3.15-.56,6.37-.56,9.62v.02h-4.79v-9.64Z"/><path class="cls-5" d="M613.37,245.14h-5.35v-9.62h4.79c0,3.25,.19,6.46,.56,9.62Z"/><path class="cls-5" d="M613.11,279.21l-1.9-1.9,.46-.91c.47,.95,.95,1.88,1.45,2.81Z"/><path class="cls-5" d="M611.21,193.81l1.76-1.76c-.46,.86-.9,1.73-1.33,2.61l-.43-.85Z"/><path class="cls-5" d="M612.83,274.06l-1.17,2.34c-.38-.77-.75-1.55-1.11-2.34h2.28Z"/><path class="cls-5" d="M611.63,194.66l1.14,2.29h-2.23c.35-.77,.71-1.53,1.09-2.29Z"/><path class="cls-5" d="M611.66,276.4l-.46,.91-3.19-3.2v-.05h2.54c.36,.79,.73,1.57,1.11,2.34Z"/><path class="cls-5" d="M611.21,193.81l.43,.85c-.38,.76-.74,1.52-1.09,2.29h-2.47l3.13-3.14Z"/><polygon class="cls-5" points="608.02 187.42 611.21 193.81 608.08 196.95 608.02 196.95 608.02 187.42"/><polygon class="cls-5" points="608.02 274.11 611.21 277.3 608.02 283.69 608.02 274.11"/><path class="cls-5" d="M608.02,158.37h2.98c-1.01,1.1-2.01,2.22-2.98,3.36v-3.36Z"/><path class="cls-5" d="M610.96,312.63h-2.94v-3.32c.96,1.13,1.94,2.24,2.94,3.32Z"/><path class="cls-5" d="M610.55,274.06h-2.54v-6.1c.77,2.07,1.62,4.11,2.54,6.1Z"/><path class="cls-5" d="M608.08,196.95h2.47c-.92,1.99-1.76,4.02-2.53,6.09v-6.02l.06-.06Z"/><path class="cls-5" d="M609.26,293.34h-1.24v-1.87c.41,.63,.82,1.25,1.24,1.87Z"/><path class="cls-5" d="M608.02,177.66h1.23c-.42,.61-.83,1.23-1.23,1.85v-1.85Z"/><polygon class="cls-5" points="569.69 110.41 569.47 110.3 569.47 110.19 569.47 110.19 569.69 110.41"/></g><g><path class="cls-2" d="M677.68,218.4c.77-.78,1.6-1.5,2.48-2.17,1.53-1.16,3.2-2.15,4.98-2.93,2.95-1.28,6.2-1.99,9.62-1.99h.02c3.42,0,6.67,.71,9.62,1.99,1.79,.78,3.47,1.76,5,2.93,.88,.67,1.7,1.39,2.48,2.17s1.5,1.6,2.17,2.48c1.17,1.53,2.16,3.21,2.93,5,1.28,2.95,1.99,6.2,1.99,9.62v.02c0,3.42-.72,6.67-1.99,9.62-.78,1.78-1.76,3.45-2.93,4.98-.66,.88-1.38,1.7-2.17,2.48"/><path class="cls-2" d="M711.88,252.6c-.78,.78-1.61,1.5-2.49,2.17-1.53,1.16-3.21,2.15-5,2.92-2.95,1.28-6.2,1.99-9.62,1.99h-.02c-3.42,0-6.67-.72-9.62-1.99-1.78-.78-3.45-1.76-4.98-2.92-.88-.67-1.71-1.39-2.49-2.17s-1.5-1.61-2.17-2.49c-1.16-1.52-2.14-3.2-2.92-4.98-1.28-2.95-1.99-6.2-1.99-9.62v-.02c0-3.42,.71-6.67,1.99-9.62,.77-1.79,1.76-3.46,2.92-5,.67-.88,1.39-1.71,2.17-2.49"/></g></g></g><g><ellipse class="cls-3" cx="335.23" cy="218.76" rx="28.64" ry="28.76"/><path class="cls-6" d="M331.17,216.28c0-2.62,.64-4.97,1.66-6.63,.18-.29,1.64,4.67,1.93,4.52,.25-.13-.96-5.77-.74-5.97,.72-.64,1.53-1,2.38-1,2.89,0,5.23,4.06,5.23,9.07s-2.34,9.07-5.23,9.07-5.23-4.06-5.23-9.07Z"/><g><g><polygon class="cls-5" points="421.93 349.98 421.93 359.5 418.91 349.98 421.93 349.98"/><polygon class="cls-5" points="421.93 340.45 421.93 349.98 418.91 349.98 415.9 340.47 415.9 340.45 421.93 340.45"/><rect class="cls-5" x="415.9" y="330.92" width="6.03" height="9.54"/><rect class="cls-5" x="415.9" y="321.39" width="6.03" height="9.52"/><polygon class="cls-5" points="421.93 311.87 421.93 321.39 415.9 321.39 415.9 311.87 421.89 311.87 421.93 311.87"/><polygon class="cls-5" points="421.93 302.34 421.93 311.87 421.89 311.87 415.9 311.87 415.9 302.34 421.93 302.34"/><rect class="cls-5" x="415.9" y="292.8" width="6.03" height="9.54"/><rect class="cls-5" x="415.9" y="283.27" width="6.03" height="9.53"/><path class="cls-5" d="M421.93,273.74v9.53h-6.03v-2.02c.62-2.47,1.2-4.97,1.72-7.51h4.3Z"/><path class="cls-5" d="M421.93,264.21v9.53h-4.3c.64-3.12,1.21-6.3,1.7-9.53h2.61Z"/><path class="cls-5" d="M421.93,254.68v9.53h-2.61c.47-3.13,.87-6.31,1.19-9.53h1.42Z"/><path class="cls-5" d="M421.93,245.16v9.52h-1.42c.31-3.14,.54-6.31,.7-9.52h.72Z"/><path class="cls-5" d="M421.93,235.67v9.48h-.72c.14-2.87,.22-5.78,.23-8.7l.5-.78Z"/><path class="cls-5" d="M421.93,235.66h0s-.5,.8-.5,.8c0-.13,0-.27,0-.41l.5-.39Z"/><path class="cls-5" d="M421.93,235.65h0s-.5,.4-.5,.4c0-.13,0-.27,0-.4h.49Z"/><path class="cls-5" d="M421.93,235.64h0s-.49,0-.49,0v-.4l.49,.39Z"/><path class="cls-5" d="M421.93,235.62h0s-.49-.38-.49-.38c0-.13,0-.27,0-.41l.5,.78Z"/><path class="cls-5" d="M421.93,226.12v9.5l-.5-.78c0-2.93-.09-5.84-.23-8.72h.72Z"/><path class="cls-5" d="M421.93,216.58v9.54h-.72c-.16-3.22-.39-6.4-.7-9.54h1.42Z"/><path class="cls-5" d="M421.93,207.05v9.53h-1.42c-.31-3.22-.71-6.4-1.18-9.53h2.61Z"/><path class="cls-5" d="M421.93,197.52v9.53h-2.61c-.49-3.23-1.05-6.41-1.7-9.53h4.3Z"/><path class="cls-5" d="M421.93,187.98v9.54h-4.3c-.52-2.55-1.1-5.05-1.73-7.52v-2.02h6.03Z"/><rect class="cls-5" x="415.9" y="178.45" width="6.03" height="9.53"/><rect class="cls-5" x="415.9" y="168.92" width="6.03" height="9.53"/><rect class="cls-5" x="415.9" y="159.39" width="6.03" height="9.53"/><rect class="cls-5" x="415.9" y="149.86" width="6.03" height="9.52"/><rect class="cls-5" x="415.9" y="140.33" width="6.03" height="9.54"/><rect class="cls-5" x="415.9" y="130.8" width="6.03" height="9.53"/><polygon class="cls-5" points="421.93 121.26 421.93 130.8 415.9 130.8 415.9 130.74 418.9 121.26 421.93 121.26"/><polygon class="cls-5" points="421.93 111.81 421.93 121.26 418.9 121.26 421.9 111.81 421.93 111.81"/><polygon class="cls-5" points="418.91 349.98 421.93 359.5 415.9 349.98 418.91 349.98"/><polygon class="cls-5" points="421.9 111.81 418.9 121.26 415.9 121.26 421.9 111.81"/><path class="cls-5" d="M421.43,235.25v.4h-5.53v-4.77l5.53,4.37Z"/><path class="cls-5" d="M421.43,235.65c0,.13,0,.27,0,.4l-5.53,4.37v-4.77h5.53Z"/><path class="cls-5" d="M421.43,234.84c0,.13,0,.27,0,.41l-5.53-4.37v-4.76h0l5.52,8.72Z"/><path class="cls-5" d="M421.43,236.05c0,.13,0,.27,0,.41l-5.51,8.7h-.02v-4.74l5.53-4.37Z"/><path class="cls-5" d="M415.92,245.16l5.51-8.7c0,2.92-.09,5.83-.23,8.7h-5.28Z"/><path class="cls-5" d="M421.43,234.84l-5.52-8.72h5.3c.14,2.88,.22,5.79,.23,8.72Z"/><path class="cls-5" d="M421.2,226.12h-5.31v-9.54h4.61c.31,3.14,.54,6.32,.7,9.54Z"/><path class="cls-5" d="M415.92,245.16h5.28c-.16,3.21-.39,6.39-.7,9.52h-4.61v-9.49l.02-.03Z"/><path class="cls-5" d="M420.5,216.58h-4.61v-9.53h3.42c.47,3.13,.87,6.31,1.18,9.53Z"/><path class="cls-5" d="M415.9,254.68h4.61c-.32,3.22-.71,6.4-1.19,9.53h-3.42v-9.53Z"/><path class="cls-5" d="M419.32,207.05h-3.42v-9.53h1.73c.64,3.12,1.21,6.3,1.7,9.53Z"/><path class="cls-5" d="M415.9,264.21h3.42c-.48,3.23-1.05,6.41-1.7,9.53h-1.72v-9.53Z"/><polygon class="cls-5" points="415.9 340.47 418.91 349.98 415.9 349.98 415.9 340.47"/><polygon class="cls-5" points="418.9 121.26 415.9 130.74 415.9 121.27 415.9 121.26 418.9 121.26"/><path class="cls-5" d="M417.63,197.52h-1.73v-7.52c.62,2.47,1.2,4.97,1.73,7.52Z"/><path class="cls-5" d="M415.9,273.74h1.72c-.52,2.54-1.1,5.04-1.72,7.51v-7.51Z"/><polygon class="cls-5" points="415.9 340.47 415.9 349.98 409.86 340.45 415.89 340.45 415.9 340.47"/><polygon class="cls-5" points="415.9 330.92 415.9 340.45 415.89 340.45 412.87 330.92 415.9 330.92"/><polygon class="cls-5" points="415.9 321.39 415.9 330.92 412.87 330.92 409.86 321.42 409.86 321.39 415.9 321.39"/><rect class="cls-5" x="409.86" y="311.87" width="6.04" height="9.52"/><rect class="cls-5" x="409.86" y="302.34" width="6.04" height="9.53"/><path class="cls-5" d="M415.9,292.8v9.54h-6.04v-2.17c.94-2.4,1.83-4.86,2.66-7.37h3.37Z"/><path class="cls-5" d="M415.9,283.27v9.53h-3.37c1.04-3.1,1.98-6.28,2.85-9.53h.52Z"/><path class="cls-5" d="M415.9,281.25v2.02h-.52c.18-.67,.35-1.34,.52-2.02Z"/><path class="cls-5" d="M415.9,273.74v7.51c-.17,.68-.35,1.35-.52,2.02h-5.51v-6.47c.25-1.02,.5-2.04,.73-3.07h5.31Z"/><path class="cls-5" d="M415.9,264.21v9.53h-5.31c.71-3.12,1.34-6.29,1.87-9.53h3.43Z"/><path class="cls-5" d="M415.9,254.68v9.53h-3.43c.52-3.13,.95-6.31,1.3-9.53h2.13Z"/><path class="cls-5" d="M415.9,245.19v9.49h-2.13c.25-2.34,.46-4.71,.62-7.1l1.51-2.39Z"/><path class="cls-5" d="M415.9,245.16v.03l-1.51,2.39c.05-.8,.1-1.61,.14-2.42h1.37Z"/><path class="cls-5" d="M415.9,240.41v4.74h-1.37c.07-1.25,.12-2.52,.16-3.79l1.21-.96Z"/><path class="cls-5" d="M415.9,235.65v4.77l-1.21,.96c.06-1.89,.09-3.81,.09-5.72h1.12Z"/><path class="cls-5" d="M415.9,230.88v4.77h-1.12c0-1.92-.03-3.83-.09-5.72l1.21,.96Z"/><path class="cls-5" d="M415.9,226.12v4.76l-1.21-.96c-.04-1.27-.09-2.54-.16-3.81h1.37Z"/><path class="cls-5" d="M415.9,226.11h0s-1.37,0-1.37,0c-.04-.8-.09-1.6-.14-2.39l1.51,2.38Z"/><path class="cls-5" d="M415.9,216.58v9.53l-1.51-2.38c-.16-2.4-.37-4.79-.62-7.14h2.14Z"/><path class="cls-5" d="M415.9,207.05v9.53h-2.14c-.35-3.23-.78-6.4-1.3-9.53h3.44Z"/><path class="cls-5" d="M415.9,197.52v9.53h-3.44c-.54-3.24-1.16-6.42-1.87-9.53h5.31Z"/><path class="cls-5" d="M415.9,190v7.52h-5.31c-.23-1.02-.47-2.03-.72-3.04v-6.5h5.52c.18,.67,.35,1.34,.52,2.02Z"/><path class="cls-5" d="M415.9,187.98v2.02c-.17-.68-.35-1.35-.52-2.02h.52Z"/><path class="cls-5" d="M415.9,178.45v9.53h-.52c-.87-3.25-1.82-6.43-2.85-9.53h3.37Z"/><path class="cls-5" d="M415.9,168.92v9.53h-3.37c-.83-2.51-1.72-4.97-2.66-7.37v-2.16h6.04Z"/><rect class="cls-5" x="409.86" y="159.39" width="6.04" height="9.53"/><rect class="cls-5" x="409.86" y="149.86" width="6.04" height="9.52"/><polygon class="cls-5" points="415.9 140.33 415.9 149.86 409.86 149.86 409.86 149.81 412.86 140.33 415.9 140.33"/><polygon class="cls-5" points="415.9 130.8 415.9 140.33 412.86 140.33 415.88 130.8 415.9 130.8"/><polygon class="cls-5" points="415.9 121.27 415.9 130.74 415.88 130.8 409.86 130.8 415.9 121.27"/><polygon class="cls-5" points="412.87 330.92 415.89 340.45 409.86 340.45 409.86 330.92 412.87 330.92"/><polygon class="cls-5" points="415.88 130.8 412.86 140.33 409.86 140.33 409.86 130.8 415.88 130.8"/><path class="cls-5" d="M415.38,187.98h-5.52v-9.53h2.66c1.04,3.1,1.99,6.28,2.85,9.53Z"/><path class="cls-5" d="M409.86,283.27h5.51c-.87,3.25-1.81,6.43-2.85,9.53h-2.66v-9.53Z"/><path class="cls-5" d="M414.78,235.65h-4.92v-9.53h0l4.82,3.81c.06,1.89,.09,3.81,.09,5.72Z"/><path class="cls-5" d="M409.86,235.65h4.92c0,1.92-.03,3.83-.09,5.72l-4.8,3.79h-.03v-9.51Z"/><path class="cls-5" d="M414.69,229.92l-4.82-3.81h4.66c.07,1.26,.12,2.53,.16,3.81Z"/><path class="cls-5" d="M409.89,245.16l4.8-3.79c-.04,1.27-.09,2.53-.16,3.79h-4.64Z"/><path class="cls-5" d="M409.89,245.16h4.64c-.04,.81-.09,1.62-.14,2.42l-4.5,7.1h-.03v-9.5l.03-.02Z"/><path class="cls-5" d="M414.53,226.12h-4.66v-9.53l4.52,7.14c.05,.79,.1,1.59,.14,2.39Z"/><path class="cls-5" d="M414.39,223.73l-4.52-7.14h0s3.9,0,3.9,0c.26,2.36,.46,4.74,.62,7.14Z"/><path class="cls-5" d="M409.89,254.68l4.5-7.1c-.16,2.39-.37,4.76-.62,7.1h-3.87Z"/><path class="cls-5" d="M409.89,254.68h3.87c-.35,3.23-.78,6.41-1.3,9.53h-2.6v-9.49l.03-.04Z"/><path class="cls-5" d="M413.76,216.58h-3.9v-9.53h2.6c.52,3.13,.95,6.3,1.3,9.53Z"/><polygon class="cls-5" points="409.86 321.42 412.87 330.92 409.86 330.92 409.86 321.42"/><polygon class="cls-5" points="412.86 140.33 409.86 149.81 409.86 140.33 412.86 140.33"/><path class="cls-5" d="M412.53,178.45h-2.66v-7.37c.94,2.4,1.83,4.86,2.66,7.37Z"/><path class="cls-5" d="M409.86,292.8h2.66c-.83,2.51-1.72,4.96-2.66,7.37v-7.37Z"/><path class="cls-5" d="M409.86,264.21h2.6c-.54,3.24-1.16,6.41-1.87,9.53h-.73v-9.53Z"/><path class="cls-5" d="M412.46,207.05h-2.6v-9.53h.72c.71,3.12,1.34,6.3,1.87,9.53Z"/><path class="cls-5" d="M409.86,273.74h.73c-.23,1.03-.47,2.05-.73,3.07v-3.07Z"/><path class="cls-5" d="M410.59,197.52h-.72v-3.04c.25,1.01,.49,2.02,.72,3.04Z"/><polygon class="cls-5" points="277.04 330.92 277.04 340.45 271.02 340.45 274.04 330.92 277.04 330.92"/><polygon class="cls-5" points="277.04 321.43 277.04 330.92 274.04 330.92 277.04 321.43"/><polygon class="cls-5" points="277.04 321.39 277.04 321.43 274.04 330.92 271 330.92 271 321.39 277.04 321.39"/><rect class="cls-5" x="271" y="311.87" width="6.04" height="9.52"/><rect class="cls-5" x="271" y="302.34" width="6.04" height="9.53"/><path class="cls-5" d="M277.04,300.17v2.17h-6.04v-9.54h3.37c.83,2.51,1.72,4.96,2.66,7.37Z"/><path class="cls-5" d="M277.04,292.8v7.37c-.94-2.4-1.83-4.86-2.66-7.37h2.66Z"/><path class="cls-5" d="M277.04,283.27v9.53h-2.66c-1.04-3.1-1.98-6.28-2.85-9.53h5.51Z"/><path class="cls-5" d="M277.04,276.81v6.47h-5.51c-.18-.67-.35-1.34-.52-2.02v-7.51h5.31c.23,1.03,.47,2.05,.73,3.07Z"/><path class="cls-5" d="M277.04,273.74v3.07c-.25-1.02-.5-2.04-.73-3.07h.73Z"/><path class="cls-5" d="M277.04,264.21v9.53h-.73c-.71-3.12-1.34-6.29-1.87-9.53h2.6Z"/><path class="cls-5" d="M277.04,254.78v9.43h-2.6c-.52-3.13-.95-6.31-1.3-9.53h3.84l.06,.1Z"/><path class="cls-5" d="M277.04,245.21v9.47h-.06l-4.45-7.04c-.06-.83-.11-1.65-.15-2.49h4.61l.06,.05Z"/><path class="cls-5" d="M277.04,235.65v9.51h-.06l-4.76-3.76c-.06-1.9-.09-3.83-.09-5.75h4.92Z"/><path class="cls-5" d="M277.04,226.12v9.53h-4.92c0-1.93,.03-3.85,.09-5.75l4.78-3.78h.04Z"/><path class="cls-5" d="M277.04,216.58v9.51l-.04,.03h-4.62c.04-.82,.09-1.65,.14-2.46l4.49-7.08h.03Z"/><path class="cls-5" d="M277.04,207.05v9.47l-.03,.05h-3.86c.35-3.23,.78-6.4,1.3-9.53h2.6Z"/><path class="cls-5" d="M277.04,197.52v9.53h-2.6c.54-3.24,1.16-6.42,1.87-9.53h.72Z"/><path class="cls-5" d="M277.04,194.48v3.04h-.72c.23-1.02,.47-2.03,.72-3.04Z"/><path class="cls-5" d="M277.04,187.98v6.5c-.25,1.01-.49,2.02-.72,3.04h-5.31v-7.52c.17-.68,.35-1.35,.52-2.02h5.52Z"/><path class="cls-5" d="M277.04,178.45v9.53h-5.52c.87-3.25,1.82-6.43,2.85-9.53h2.66Z"/><path class="cls-5" d="M277.04,171.08v7.37h-2.66c.83-2.51,1.72-4.97,2.66-7.37Z"/><path class="cls-5" d="M277.04,168.92v2.16c-.94,2.4-1.83,4.86-2.66,7.37h-3.37v-9.53h6.04Z"/><rect class="cls-5" x="271" y="159.39" width="6.04" height="9.53"/><rect class="cls-5" x="271" y="149.86" width="6.04" height="9.52"/><polygon class="cls-5" points="277.04 149.83 277.04 149.86 271 149.86 271 140.33 274.03 140.33 277.04 149.83"/><polygon class="cls-5" points="277.04 140.33 277.04 149.83 274.03 140.33 277.04 140.33"/><polygon class="cls-5" points="277.04 130.8 277.04 140.33 274.03 140.33 271.02 130.8 277.04 130.8"/><polygon class="cls-5" points="277.04 340.45 271 349.98 271 340.49 271.02 340.45 277.04 340.45"/><polygon class="cls-5" points="277.04 130.8 271.02 130.8 271 130.76 271 121.27 277.04 130.8"/><path class="cls-5" d="M277,216.58l-4.49,7.08c.16-2.38,.37-4.74,.62-7.08h3.86Z"/><path class="cls-5" d="M277,226.12l-4.78,3.78c.04-1.26,.09-2.52,.16-3.78h4.62Z"/><path class="cls-5" d="M276.98,245.16h-4.61c-.07-1.24-.12-2.5-.16-3.76l4.76,3.76Z"/><path class="cls-5" d="M276.98,254.68h-3.84c-.25-2.32-.46-4.67-.62-7.04l4.45,7.04Z"/><path class="cls-5" d="M271,197.52h5.31c-.71,3.12-1.34,6.3-1.87,9.53h-3.44v-9.53Z"/><path class="cls-5" d="M276.31,273.74h-5.31v-9.53h3.43c.54,3.24,1.16,6.41,1.87,9.53Z"/><path class="cls-5" d="M271,207.05h3.44c-.52,3.13-.95,6.3-1.3,9.53h-2.14v-9.53Z"/><path class="cls-5" d="M274.44,264.21h-3.43v-9.53h2.13c.35,3.23,.78,6.41,1.3,9.53Z"/><path class="cls-5" d="M271,178.45h3.37c-1.04,3.1-1.99,6.28-2.85,9.53h-.52v-9.53Z"/><path class="cls-5" d="M274.38,292.8h-3.37v-9.53h.52c.87,3.25,1.81,6.43,2.85,9.53Z"/><polygon class="cls-5" points="274.04 330.92 271.02 340.45 271 340.45 271 330.92 274.04 330.92"/><polygon class="cls-5" points="274.03 140.33 271 140.33 271 130.8 271.02 130.8 274.03 140.33"/><path class="cls-5" d="M271,216.58h2.14c-.25,2.33-.46,4.69-.62,7.08l-1.52,2.4v-9.47Z"/><path class="cls-5" d="M273.14,254.68h-2.13v-9.43l1.52,2.39c.16,2.37,.36,4.72,.62,7.04Z"/><path class="cls-5" d="M272.52,247.64l-1.52-2.39v-.09h1.37c.04,.83,.09,1.66,.15,2.49Z"/><path class="cls-5" d="M271,226.06l1.52-2.4c-.05,.82-.1,1.64-.14,2.46h-1.37v-.06Z"/><path class="cls-5" d="M271,226.12h1.37c-.07,1.25-.12,2.51-.16,3.78l-1.21,.96v-4.73Z"/><path class="cls-5" d="M272.37,245.16h-1.37v-4.71l1.21,.96c.04,1.26,.09,2.51,.16,3.76Z"/><path class="cls-5" d="M271,230.85l1.21-.96c-.06,1.9-.09,3.83-.09,5.75h-1.12v-4.8Z"/><path class="cls-5" d="M272.21,241.4l-1.21-.96v-4.8h1.12c0,1.93,.03,3.85,.09,5.75Z"/><path class="cls-5" d="M271.53,283.27h-.52v-2.02c.17,.68,.35,1.35,.52,2.02Z"/><path class="cls-5" d="M271,187.98h.52c-.18,.67-.35,1.34-.52,2.02v-2.02Z"/><polygon class="cls-5" points="271 340.49 271 349.98 268 349.98 271 340.49"/><polygon class="cls-5" points="271 340.45 271 340.49 268 349.98 264.97 349.98 264.97 340.45 271 340.45"/><rect class="cls-5" x="264.97" y="330.92" width="6.03" height="9.54"/><rect class="cls-5" x="264.97" y="321.39" width="6.03" height="9.52"/><rect class="cls-5" x="264.97" y="311.87" width="6.03" height="9.52"/><rect class="cls-5" x="264.97" y="302.34" width="6.03" height="9.53"/><rect class="cls-5" x="264.97" y="292.8" width="6.03" height="9.54"/><rect class="cls-5" x="264.97" y="283.27" width="6.03" height="9.53"/><path class="cls-5" d="M271,281.25v2.02h-6.03v-9.53h4.31c.52,2.54,1.1,5.04,1.72,7.51Z"/><path class="cls-5" d="M271,273.74v7.51c-.62-2.47-1.2-4.97-1.72-7.51h1.72Z"/><path class="cls-5" d="M271,264.21v9.53h-1.72c-.64-3.12-1.21-6.3-1.7-9.53h3.42Z"/><path class="cls-5" d="M271,254.68v9.53h-3.42c-.47-3.13-.87-6.31-1.19-9.53h4.61Z"/><path class="cls-5" d="M271,245.25v9.43h-4.61c-.31-3.14-.54-6.31-.7-9.52h5.25l.06,.09Z"/><path class="cls-5" d="M271,240.44v4.71h-.06l-5.47-8.64c0-.14,0-.29,0-.44l5.53,4.37Z"/><path class="cls-5" d="M271,235.65v4.8l-5.53-4.37c0-.14,0-.29,0-.43h5.53Z"/><path class="cls-5" d="M271,230.85v4.8h-5.53v-.02c0-.13,0-.27,0-.41l5.53-4.37Z"/><path class="cls-5" d="M271,226.12v4.73l-5.53,4.37c0-.14,0-.29,0-.44l5.49-8.66h.04Z"/><path class="cls-5" d="M271,216.58v9.47l-.04,.06h-5.26c.16-3.22,.39-6.4,.7-9.54h4.61Z"/><path class="cls-5" d="M271,207.05v9.53h-4.61c.31-3.22,.71-6.4,1.18-9.53h3.42Z"/><path class="cls-5" d="M271,197.52v9.53h-3.42c.49-3.23,1.05-6.41,1.7-9.53h1.73Z"/><path class="cls-5" d="M271,190v7.52h-1.73c.52-2.55,1.1-5.05,1.73-7.52Z"/><path class="cls-5" d="M271,187.98v2.02c-.62,2.47-1.2,4.97-1.73,7.52h-4.3v-9.54h6.03Z"/><rect class="cls-5" x="264.97" y="178.45" width="6.03" height="9.53"/><rect class="cls-5" x="264.97" y="168.92" width="6.03" height="9.53"/><rect class="cls-5" x="264.97" y="159.39" width="6.03" height="9.53"/><rect class="cls-5" x="264.97" y="149.86" width="6.03" height="9.52"/><rect class="cls-5" x="264.97" y="140.33" width="6.03" height="9.54"/><rect class="cls-5" x="264.97" y="130.8" width="6.03" height="9.53"/><polygon class="cls-5" points="271 130.76 271 130.8 264.97 130.8 264.97 121.26 268 121.26 271 130.76"/><polygon class="cls-5" points="271 121.27 271 130.76 268 121.26 271 121.26 271 121.27"/><polygon class="cls-5" points="271 349.98 264.99 359.47 268 349.98 271 349.98"/><polygon class="cls-5" points="271 121.26 268 121.26 265 111.8 271 121.26"/><path class="cls-5" d="M270.96,226.12l-5.49,8.66c.01-2.91,.09-5.8,.23-8.66h5.26Z"/><path class="cls-5" d="M265.47,236.51l5.47,8.64h-5.25c-.14-2.85-.21-5.74-.23-8.64Z"/><path class="cls-5" d="M269.28,273.74h-4.31v-9.53h2.61c.48,3.23,1.05,6.41,1.7,9.53Z"/><path class="cls-5" d="M264.97,197.52h4.3c-.64,3.12-1.21,6.3-1.7,9.53h-2.61v-9.53Z"/><polygon class="cls-5" points="268 121.26 264.97 121.26 264.97 111.75 265 111.75 265 111.8 268 121.26"/><polygon class="cls-5" points="268 349.98 264.99 359.47 264.99 359.5 264.97 359.5 264.97 349.98 268 349.98"/><path class="cls-5" d="M267.58,264.21h-2.61v-9.53h1.43c.32,3.22,.71,6.4,1.19,9.53Z"/><path class="cls-5" d="M264.97,207.05h2.61c-.47,3.13-.87,6.31-1.18,9.53h-1.43v-9.53Z"/><path class="cls-5" d="M264.97,216.58h1.43c-.31,3.14-.54,6.32-.7,9.54h-.73v-9.54Z"/><path class="cls-5" d="M266.4,254.68h-1.43v-9.52h.73c.16,3.21,.39,6.39,.7,9.52Z"/><path class="cls-5" d="M264.97,226.12h.73c-.14,2.86-.21,5.75-.23,8.66l-.5,.79v-9.45Z"/><path class="cls-5" d="M265.7,245.16h-.73v-9.43l.5,.79c.01,2.9,.09,5.79,.23,8.64Z"/><path class="cls-5" d="M265.47,236.08c0,.14,0,.29,0,.44l-.5-.79v-.04l.5,.39Z"/><path class="cls-5" d="M265.47,234.78c0,.14,0,.29,0,.44l-.5,.39v-.04l.5-.79Z"/><path class="cls-5" d="M265.47,235.65c0,.14,0,.29,0,.43l-.5-.39v-.04h.5Z"/><path class="cls-5" d="M265.47,235.22c0,.13,0,.27,0,.41v.02h-.5v-.04l.5-.39Z"/></g><g><polyline class="cls-2" points="403.83 330.93 409.86 340.45 415.9 349.98"/><polyline class="cls-2" points="397.79 321.39 398.59 322.67 403.82 330.92"/><polyline class="cls-2" points="391.75 311.87 393.89 315.24 397.78 321.39"/><polyline class="cls-2" points="385.72 302.34 389.16 307.77 391.75 311.86"/><polyline class="cls-2" points="379.75 292.92 382.71 297.6 384.46 300.36 385.71 302.33"/><line class="cls-2" x1="375.04" y1="285.48" x2="379.67" y2="292.8"/><line class="cls-2" x1="373.64" y1="283.27" x2="375.04" y2="285.48"/><polyline class="cls-2" points="367.6 273.74 369.62 276.93 370.33 278.05 373.63 283.27"/><polyline class="cls-2" points="361.56 264.21 365.61 270.61 367.59 273.73"/><polyline class="cls-2" points="355.52 254.68 357.53 257.86 360.91 263.18 361.55 264.19"/><line class="cls-2" x1="317.29" y1="194.33" x2="319.3" y2="197.51"/><polyline class="cls-2" points="313.27 187.98 316.58 193.2 317.29 194.33"/><line class="cls-2" x1="311.86" y1="185.77" x2="313.26" y2="187.98"/><line class="cls-2" x1="307.23" y1="178.45" x2="311.86" y2="185.77"/><polyline class="cls-2" points="301.19 168.92 302.44 170.89 304.2 173.67 307.15 178.33"/><polyline class="cls-2" points="295.15 159.39 297.73 163.46 301.18 168.91"/><polyline class="cls-2" points="289.12 149.86 293.02 156.03 295.15 159.38"/><polyline class="cls-2" points="283.08 140.34 288.31 148.59 289.12 149.86"/><polyline class="cls-2" points="271 121.27 277.04 130.8 283.08 140.33"/><path class="cls-2" d="M379.75,292.92l-.07,.11"/><path class="cls-2" d="M379.82,292.8s-.05,.07-.08,.11"/><line class="cls-2" x1="325.99" y1="208.07" x2="326" y2="208.07"/><line class="cls-2" x1="311.86" y1="185.77" x2="311.86" y2="185.77"/><line class="cls-2" x1="375.04" y1="285.48" x2="375.04" y2="285.48"/></g></g><line class="cls-3" x1="268.18" y1="110.48" x2="318.56" y2="194.09"/><line class="cls-3" x1="351.52" y1="245.16" x2="418.69" y2="360.91"/></g><g><path class="cls-6" d="M790.97,183.34c0-6.2,1.24-11.78,3.21-15.71,.34-.68,3.17,11.07,3.72,10.71,.48-.3-1.85-13.68-1.43-14.14,1.38-1.51,2.95-2.36,4.61-2.36,5.59,0,10.11,9.62,10.11,21.49s-4.53,21.49-10.11,21.49-10.11-9.62-10.11-21.49Z"/><g><path class="cls-5" d="M851.36,183.71v.04h-2.67v-13.83h1.35c.87,4.46,1.32,9.08,1.32,13.79Z"/><path class="cls-5" d="M848.68,183.75h2.67c0,4.73-.46,9.35-1.34,13.82h-1.33v-13.82Z"/><path class="cls-5" d="M850.03,169.91h-1.35v-5.68c.53,1.86,.97,3.76,1.35,5.68Z"/><path class="cls-5" d="M848.68,197.57h1.33c-.37,1.9-.81,3.77-1.33,5.61v-5.61Z"/><path class="cls-5" d="M848.68,197.57v5.61c-.79,2.81-1.75,5.56-2.86,8.22h-10.99v-13.83h13.86Z"/><path class="cls-5" d="M848.68,183.75v13.82h-13.86v-2c.81-3.81,1.25-7.77,1.25-11.82h12.61Z"/><path class="cls-5" d="M848.68,169.91v13.83h-12.61v-.03c0-4.06-.42-8.03-1.25-11.85v-1.96h13.86Z"/><path class="cls-5" d="M848.68,164.23v5.68h-13.86v-13.86h11.01c1.11,2.65,2.06,5.38,2.84,8.18Z"/><path class="cls-5" d="M845.84,156.05h-11.01v-13.83h3.35c3.04,4.29,5.62,8.93,7.67,13.83Z"/><path class="cls-5" d="M834.83,211.4h10.99c-2.04,4.92-4.63,9.55-7.67,13.84h-3.32v-13.84Z"/><path class="cls-5" d="M838.18,142.22h-3.35v-4.37c1.17,1.41,2.3,2.87,3.35,4.37Z"/><path class="cls-5" d="M834.83,225.24h3.32c-1.05,1.48-2.16,2.93-3.32,4.33v-4.33Z"/><path class="cls-5" d="M834.83,225.24v4.33c-1.43,1.73-2.94,3.39-4.53,4.97l-9.31-9.3h13.83Z"/><path class="cls-5" d="M834.83,211.4v13.84h-13.85v-3.04c3.03-3.26,5.68-6.89,7.87-10.8h5.98Z"/><path class="cls-5" d="M834.83,197.57v13.83h-5.98c2.42-4.3,4.29-8.94,5.51-13.83h.47Z"/><path class="cls-5" d="M834.83,195.57v2h-.47c.17-.66,.33-1.33,.47-2Z"/><path class="cls-5" d="M834.83,169.91v1.96c-.14-.66-.29-1.31-.45-1.96h.45Z"/><path class="cls-5" d="M834.83,156.05v13.86h-.45c-1.22-4.91-3.1-9.56-5.52-13.86h5.97Z"/><path class="cls-5" d="M834.83,142.22v13.83h-5.97c-2.19-3.92-4.84-7.54-7.87-10.81v-3.02h13.85Z"/><path class="cls-5" d="M834.83,137.85v4.37h-13.85s9.33-9.34,9.33-9.34c1.58,1.58,3.1,3.24,4.52,4.97Z"/><path class="cls-5" d="M830.31,132.88l-9.33,9.33v-13.85h4.36c1.72,1.43,3.38,2.94,4.97,4.52Z"/><path class="cls-5" d="M820.99,225.24l9.31,9.3c-1.6,1.6-3.27,3.12-5,4.55h-4.32v-13.85h.01Z"/><path class="cls-5" d="M825.34,128.36h-4.36v-3.35c1.5,1.06,2.95,2.17,4.36,3.35Z"/><path class="cls-5" d="M820.98,239.09h4.32c-1.4,1.16-2.84,2.27-4.32,3.31v-3.31Z"/><path class="cls-5" d="M820.98,239.09v3.31c-4.29,3.04-8.93,5.62-13.84,7.67v-10.98h13.84Z"/><path class="cls-5" d="M820.98,225.24v13.85h-13.84v-5.99c3.91-2.19,7.54-4.83,10.8-7.86h3.04Z"/><path class="cls-5" d="M820.98,225.23h0s-3.04,.01-3.04,.01c.53-.49,1.05-.99,1.56-1.5l1.48,1.48Z"/><path class="cls-5" d="M820.98,222.2v3.03l-1.48-1.48c.5-.5,1-1.02,1.48-1.55Z"/><path class="cls-5" d="M820.98,142.22v3.02c-.48-.53-.98-1.04-1.48-1.55l1.48-1.48h0Z"/><path class="cls-5" d="M820.98,128.36v13.85h0s0,0,0,0h-3.02c-3.27-3.04-6.9-5.69-10.82-7.88v-5.97h13.84Z"/><path class="cls-5" d="M820.98,125.01v3.35h-13.84v-11.02c4.92,2.05,9.55,4.63,13.84,7.67Z"/><path class="cls-5" d="M820.97,142.22l-1.48,1.48c-.5-.5-1.01-1-1.54-1.48h3.02Z"/><path class="cls-5" d="M807.14,239.09v10.98c-2.66,1.12-5.41,2.07-8.23,2.86h-5.63v-13.84h13.86Z"/><path class="cls-5" d="M807.14,233.1v5.99h-13.86v-.48c4.9-1.22,9.55-3.1,13.86-5.51Z"/><path class="cls-5" d="M807.14,128.36v5.97c-4.3-2.42-8.95-4.29-13.86-5.51v-.46h13.86Z"/><path class="cls-5" d="M807.14,117.34v11.02h-13.86v-13.86h5.71c2.79,.78,5.51,1.73,8.15,2.84Z"/><path class="cls-5" d="M798.99,114.5h-5.71v-1.35c1.93,.37,3.84,.82,5.71,1.35Z"/><path class="cls-5" d="M793.28,252.93h5.63c-1.85,.52-3.73,.96-5.63,1.33v-1.33Z"/><path class="cls-5" d="M793.28,252.93v1.33c-4.47,.88-9.09,1.33-13.81,1.33h-.03v-2.66h13.84Z"/><path class="cls-5" d="M793.28,239.09v13.84h-13.84v-12.61h.03c4.04,0,7.98-.42,11.78-1.23h2.04Z"/><path class="cls-5" d="M793.28,238.62v.48h-2.04c.68-.14,1.36-.3,2.04-.48Z"/><path class="cls-5" d="M793.28,128.36v.46c-.65-.17-1.31-.32-1.97-.46h1.97Z"/><path class="cls-5" d="M793.28,114.5v13.86h-1.97c-3.82-.82-7.79-1.25-11.85-1.25h-.03v-12.61h13.84Z"/><path class="cls-5" d="M793.28,113.15v1.35h-13.84v-2.68h.03c4.72,0,9.34,.45,13.81,1.33Z"/><path class="cls-5" d="M779.44,362.54v1.13h-.09l-.57-1.14c.22,0,.44,0,.66,0Z"/><path class="cls-5" d="M779.44,349.85v12.69c-.22,0-.44,0-.66,0l-6.34-12.68h7Z"/><path class="cls-5" d="M779.44,347.28v2.57h-7l-1.39-2.79c2.78,.14,5.57,.22,8.39,.22Z"/><path class="cls-5" d="M779.44,336v11.27c-2.81,0-5.61-.07-8.39-.22l-5.43-10.86v-.19h13.81Z"/><path class="cls-5" d="M779.44,331.94v4.07h-13.81v-4.71c4.55,.42,9.16,.64,13.81,.64Z"/><path class="cls-5" d="M779.44,322.15v9.79c-4.66,0-9.26-.22-13.81-.64v-9.15h13.81Z"/><path class="cls-5" d="M779.44,316.71v5.44h-13.81v-6.15c4.54,.47,9.15,.71,13.81,.71Z"/><path class="cls-5" d="M779.44,308.31v8.4c-4.66,0-9.27-.24-13.81-.71v-7.69h13.81Z"/><path class="cls-5" d="M779.44,301.43v6.88h-13.81v-7.69c4.53,.53,9.14,.81,13.81,.81Z"/><path class="cls-5" d="M779.44,294.48v6.95c-4.67,0-9.28-.27-13.81-.81v-6.14h13.81Z"/><path class="cls-5" d="M779.44,286.15v8.33h-13.81v-9.26c4.52,.61,9.13,.93,13.81,.93Z"/><path class="cls-5" d="M779.44,280.63v5.52c-4.69,0-9.29-.32-13.81-.93v-4.59h13.81Z"/><polygon class="cls-5" points="779.44 273.72 779.44 280.63 765.63 280.63 765.63 280.62 779.43 273.72 779.44 273.72"/><path class="cls-5" d="M779.44,270.88v2.84h0s0,0,0,0l-6.12-3.06c2.02,.14,4.07,.22,6.13,.22Z"/><path class="cls-5" d="M779.44,266.78v4.1c-2.06,0-4.1-.07-6.13-.22l-7.69-3.84v-.04h13.81Z"/><path class="cls-5" d="M779.44,255.6v11.18h-13.81v-12.52c4.47,.88,9.09,1.34,13.81,1.34Z"/><path class="cls-5" d="M779.44,252.93v2.66c-4.72,0-9.34-.46-13.81-1.34v-1.32h13.81Z"/><path class="cls-5" d="M779.44,240.32v12.61h-13.81v-13.84h2.07c3.79,.81,7.72,1.23,11.75,1.23Z"/><path class="cls-5" d="M779.44,239.09v1.23c-4.02,0-7.95-.42-11.75-1.23h11.75Z"/><path class="cls-5" d="M779.44,229.39v9.7h-11.75c-.69-.14-1.38-.3-2.07-.48v-11.36c4.35,1.38,9,2.13,13.81,2.14Z"/><path class="cls-5" d="M779.44,225.24v4.15c-4.82,0-9.46-.76-13.81-2.14v-2.01h13.81Z"/><path class="cls-5" d="M779.44,218.46v6.79h-13.81v-9.65c4.23,1.84,8.9,2.86,13.81,2.86Z"/><path class="cls-5" d="M779.44,211.4v7.05c-4.91,0-9.58-1.03-13.81-2.86v-4.19h13.81Z"/><rect class="cls-5" x="765.63" y="197.57" width="13.81" height="13.83"/><polygon class="cls-5" points="779.44 183.75 779.44 197.57 765.63 197.57 765.63 197.56 779.44 183.75"/><polygon class="cls-5" points="779.44 183.68 779.44 183.75 765.63 183.75 765.63 169.91 765.67 169.91 779.44 183.68"/><polygon class="cls-5" points="779.44 169.91 779.44 183.68 765.67 169.91 779.44 169.91"/><polygon class="cls-5" points="779.44 156.05 779.44 169.91 765.67 169.91 765.63 169.87 765.63 156.05 779.44 156.05"/><path class="cls-5" d="M779.44,148.99v7.06h-13.81v-4.2c4.23-1.84,8.9-2.86,13.81-2.86Z"/><path class="cls-5" d="M779.44,142.22v6.77c-4.91,0-9.58,1.03-13.81,2.86v-9.64h13.81Z"/><path class="cls-5" d="M779.44,138.05v4.17h-13.81v-2.03c4.35-1.38,9-2.13,13.81-2.14Z"/><path class="cls-5" d="M779.44,128.36v9.69c-4.82,0-9.46,.76-13.81,2.14v-11.36c.66-.17,1.32-.33,1.99-.47h11.82Z"/><path class="cls-5" d="M779.44,127.12v1.25h-11.82c3.81-.81,7.77-1.25,11.82-1.25Z"/><path class="cls-5" d="M779.44,114.5v12.61c-4.05,0-8,.43-11.82,1.25h-1.99v-13.86h13.81Z"/><path class="cls-5" d="M779.44,111.82v2.68h-13.81v-1.35c4.47-.88,9.09-1.34,13.81-1.34Z"/><polygon class="cls-5" points="779.44 183.75 765.63 197.56 765.63 183.75 779.44 183.75"/><path class="cls-5" d="M773.32,270.66l6.12,3.06-13.81,6.9v-10.84c2.53,.4,5.09,.7,7.69,.88Z"/><path class="cls-5" d="M779.35,363.67h-.09l-1.14-1.14c.22,0,.44,0,.66,0l.57,1.14Z"/><path class="cls-5" d="M778.12,362.53l1.14,1.14h-13.63v-1.66c4.12,.32,8.29,.49,12.5,.52Z"/><path class="cls-5" d="M778.79,362.53c-.22,0-.44,0-.66,0l-12.5-12.5v-.18h6.82l6.34,12.68Z"/><path class="cls-5" d="M765.63,350.03l12.5,12.5c-4.2-.03-8.37-.2-12.5-.52v-11.98Z"/><path class="cls-5" d="M765.63,266.82l7.69,3.84c-2.6-.18-5.16-.48-7.69-.88v-2.97Z"/><path class="cls-5" d="M771.06,347.06l1.39,2.79h-6.82v-3.15c1.8,.16,3.61,.28,5.43,.37Z"/><path class="cls-5" d="M765.63,336.2l5.43,10.86c-1.82-.09-3.63-.21-5.43-.37v-10.49Z"/><path class="cls-5" d="M767.69,239.09h-2.07v-.48c.68,.18,1.37,.34,2.07,.48Z"/><path class="cls-5" d="M765.63,128.36h1.99c-.67,.14-1.33,.3-1.99,.47v-.47Z"/></g><line class="cls-1" x1="775.6" y1="251.2" x2="874.42" y2="360.67"/></g><g><path class="cls-6" d="M120.93,241.04c0-6.2,1.24-11.78,3.21-15.71,.34-.68,3.17,11.07,3.72,10.71,.48-.3-1.85-13.68-1.43-14.14,1.38-1.51,2.95-2.36,4.61-2.36,5.59,0,10.11,9.62,10.11,21.49s-4.53,21.49-10.11,21.49-10.11-9.62-10.11-21.49Z"/><g><g><g><path class="cls-5" d="M190.03,243.64h0s-2.75,.01-2.75,.01v-9.29l2.61,5.22c.09,1.34,.14,2.7,.14,4.06Z"/><path class="cls-5" d="M187.28,243.66h2.75c0,1.4-.05,2.79-.15,4.16l-2.56,5.12h-.04v-9.28Z"/><path class="cls-5" d="M187.32,252.94l2.56-5.12c-.12,1.73-.31,3.43-.59,5.12h-1.97Z"/><path class="cls-5" d="M187.32,252.94h1.97c-.46,2.91-1.14,5.74-2.02,8.49v-8.4l.04-.09Z"/><path class="cls-5" d="M187.28,253.03v8.4c-.08,.27-.17,.54-.26,.8h-4.34l4.6-9.2Z"/><path class="cls-5" d="M187.28,252.94v.09l-4.6,9.2h-4.7v-5.54c.35-1.23,.64-2.48,.89-3.75h8.41Z"/><path class="cls-5" d="M187.28,243.66v9.28h-8.41c.59-3,.9-6.11,.9-9.28h7.51Z"/><path class="cls-5" d="M187.28,234.36v9.29h-7.51v-.03c0-3.17-.3-6.27-.89-9.27h8.41Z"/><path class="cls-5" d="M182.62,225.05l4.65,9.31h-8.4c-.24-1.28-.54-2.55-.89-3.79v-5.52h4.65Z"/><path class="cls-5" d="M182.68,262.23h4.34c-1.08,3.24-2.44,6.35-4.04,9.3h-4.94l4.65-9.3Z"/><path class="cls-5" d="M178.03,271.53h4.94c-1.47,2.7-3.14,5.27-5,7.69v-7.58l.06-.11Z"/><polygon class="cls-5" points="182.68 262.23 178.03 271.53 177.98 271.53 177.98 262.23 182.68 262.23"/><polygon class="cls-5" points="177.98 215.76 182.62 225.05 177.98 225.05 177.98 215.76"/><path class="cls-5" d="M177.98,271.65v7.58c-.42,.55-.84,1.08-1.28,1.61h-3.31l4.59-9.19Z"/><path class="cls-5" d="M177.98,271.53v.11l-4.59,9.19h-4.71v-6.4c.78-.94,1.52-1.91,2.22-2.9h7.08Z"/><path class="cls-5" d="M177.98,262.23v9.3h-7.08c2.05-2.88,3.78-6,5.16-9.3h1.92Z"/><path class="cls-5" d="M177.98,256.69v5.54h-1.92c.75-1.79,1.39-3.64,1.92-5.54Z"/><path class="cls-5" d="M177.98,225.05v5.52c-.53-1.89-1.17-3.73-1.91-5.52h1.91Z"/><path class="cls-5" d="M177.98,215.76v9.29h-1.91c-1.37-3.3-3.11-6.42-5.15-9.3h7.06Z"/><path class="cls-5" d="M173.32,206.45l4.65,9.3h-7.06c-.71-1.01-1.46-1.98-2.24-2.93v-6.37h4.65Z"/><path class="cls-5" d="M173.38,280.84h3.31c-.29,.37-.6,.73-.91,1.08l-3.92,1.96,1.52-3.04Z"/><path class="cls-5" d="M171.86,283.88l3.92-1.96c-.93,1.07-1.9,2.11-2.9,3.12l-1.07-1.07,.05-.09Z"/><polygon class="cls-5" points="173.38 280.84 171.86 283.88 171.77 283.93 168.68 280.84 173.38 280.84"/><polygon class="cls-5" points="171.82 203.45 173.32 206.45 168.67 206.45 171.72 203.4 171.82 203.45"/><path class="cls-5" d="M171.81,283.97l1.07,1.07c-.97,.97-1.97,1.9-3,2.79l1.93-3.86Z"/><path class="cls-5" d="M171.81,283.97l-1.93,3.86c-.4,.35-.81,.69-1.22,1.03v-3.38l3.1-1.55,.04,.04Z"/><polygon class="cls-5" points="171.77 283.93 168.67 285.48 168.67 280.84 168.68 280.84 171.77 283.93"/><path class="cls-5" d="M169.76,199.34l2,4.01-.05,.05-3.05-1.53v-3.45c.37,.3,.73,.61,1.1,.92Z"/><polygon class="cls-5" points="168.67 201.87 171.72 203.4 168.67 206.45 168.67 201.87"/><path class="cls-5" d="M168.67,285.48v3.38c-.53,.44-1.06,.86-1.61,1.27h-7.7s9.31-4.66,9.31-4.66Z"/><path class="cls-5" d="M168.67,280.84v4.64l-9.31,4.65v-7.07c1-.7,1.96-1.44,2.9-2.22h6.41Z"/><path class="cls-5" d="M168.67,280.82h0s-6.41,.01-6.41,.01c1.17-.96,2.29-1.98,3.36-3.06l3.05,3.04Z"/><path class="cls-5" d="M168.67,274.44v6.39l-3.05-3.04h0c1.07-1.07,2.08-2.19,3.05-3.35Z"/><path class="cls-5" d="M168.67,206.45v6.37c-.96-1.16-1.97-2.27-3.04-3.34l3.04-3.04Z"/><path class="cls-5" d="M168.67,201.87v4.58h-6.37c-.95-.79-1.93-1.54-2.94-2.25v-6.98l9.31,4.65Z"/><path class="cls-5" d="M168.67,198.42v3.45l-9.31-4.65v-.08h7.69c.55,.41,1.08,.84,1.62,1.28Z"/><path class="cls-5" d="M168.67,206.45l-3.04,3.04c-1.06-1.06-2.18-2.08-3.34-3.04h6.37Z"/><path class="cls-5" d="M159.36,290.14h7.7c-2.43,1.86-5,3.53-7.7,5v-5Z"/><path class="cls-5" d="M167.05,197.14h-7.69v-5c2.7,1.47,5.27,3.13,7.69,5Z"/><path class="cls-5" d="M159.36,290.14v5c-2.95,1.6-6.06,2.96-9.29,4.04v-4.39l9.29-4.65h0Z"/><path class="cls-5" d="M159.36,283.06v7.07h0s0,0,0,0h-9.29v-1.92c3.3-1.38,6.41-3.11,9.29-5.15Z"/><path class="cls-5" d="M159.36,197.22v6.98c-2.88-2.05-6-3.78-9.29-5.15v-1.9h9.14l.15,.08Z"/><path class="cls-5" d="M159.36,192.15v5h-.15l-9.14-4.57v-4.46c3.23,1.08,6.34,2.44,9.29,4.04Z"/><polygon class="cls-5" points="159.35 290.14 150.06 294.78 150.06 290.14 159.35 290.14"/><polygon class="cls-5" points="159.2 197.14 150.06 197.14 150.06 192.57 159.2 197.14"/><path class="cls-5" d="M150.06,294.78v4.39c-.27,.09-.53,.18-.8,.26h-8.51l9.31-4.65Z"/><path class="cls-5" d="M150.06,290.14v4.65l-9.31,4.65v-8.4c1.28-.25,2.54-.55,3.78-.89h5.53Z"/><path class="cls-5" d="M150.06,288.22v1.92h-5.53c1.9-.53,3.74-1.17,5.53-1.92Z"/><path class="cls-5" d="M150.06,197.14v1.9c-1.77-.74-3.59-1.37-5.46-1.9h5.46Z"/><path class="cls-5" d="M150.06,192.57v4.57h-5.46c-1.26-.36-2.54-.66-3.85-.91v-8.31l9.31,4.65Z"/><path class="cls-5" d="M150.06,188.11v4.46l-9.31-4.65v-.08h8.48c.28,.09,.56,.18,.83,.27Z"/><path class="cls-5" d="M140.76,299.44h8.51c-2.75,.88-5.59,1.56-8.51,2.02v-2.02Z"/><path class="cls-5" d="M149.23,187.84h-8.48v-2.01c2.9,.46,5.73,1.13,8.48,2.01Z"/><path class="cls-5" d="M140.76,299.44v2.02c-1.72,.27-3.46,.47-5.22,.59l5.22-2.61Z"/><path class="cls-5" d="M140.76,291.03v8.4h-9.3v-7.51h.01c3.18,0,6.28-.3,9.28-.89Z"/><path class="cls-5" d="M140.76,187.92v8.31c-3-.59-6.11-.89-9.28-.89h-.01v-7.5h9.13l.16,.08Z"/><path class="cls-5" d="M140.76,185.83v2.01h-.16l-5.22-2.61c1.82,.12,3.62,.32,5.39,.6Z"/><path class="cls-5" d="M140.76,299.44l-5.22,2.61c-1.34,.09-2.7,.14-4.06,.14h-.02v-2.75h9.3Z"/><path class="cls-5" d="M140.59,187.84h-9.13v-2.74h.02c1.31,0,2.61,.04,3.89,.13l5.22,2.61Z"/><path class="cls-5" d="M131.46,299.44v2.75c-1.62,0-3.24-.07-4.83-.2l-4.45-2.23v-.31h9.28Z"/><path class="cls-5" d="M131.46,291.93v7.51h-9.28v-8.41c3,.59,6.11,.9,9.28,.9Z"/><path class="cls-5" d="M131.46,187.84v7.5c-3.17,0-6.28,.31-9.28,.9v-8.22l.36-.18h8.92Z"/><path class="cls-5" d="M131.46,185.09v2.74h-8.92l5.26-2.62c1.21-.08,2.43-.12,3.67-.12Z"/><path class="cls-5" d="M127.79,185.22l-5.26,2.62h-.36v-2.01c1.84-.29,3.71-.5,5.61-.61Z"/><path class="cls-5" d="M122.18,299.75l4.45,2.23c-1.5-.12-2.98-.3-4.45-.53v-1.7Z"/><path class="cls-5" d="M122.18,299.75v1.7c-2.91-.46-5.73-1.14-8.48-2.02h7.85l.63,.31Z"/><path class="cls-5" d="M122.18,291.03v8.41h-.63l-8.67-4.35v-4.95h5.53c1.24,.35,2.49,.65,3.77,.89Z"/><path class="cls-5" d="M122.18,188.02v8.22c-1.3,.25-2.58,.55-3.84,.91h-5.45v-4.48l9.29-4.64Z"/><path class="cls-5" d="M122.18,187.84v.18l-9.29,4.64v-4.55c.28-.1,.56-.19,.84-.28h8.45Z"/><path class="cls-5" d="M122.18,185.83v2.01h-8.45c2.74-.87,5.56-1.55,8.45-2.01Z"/><path class="cls-5" d="M121.55,299.44h-7.85c-.27-.08-.54-.17-.81-.27v-4.09l8.67,4.35Z"/><path class="cls-5" d="M118.41,290.14h-5.53v-1.92c1.79,.75,3.64,1.39,5.53,1.92Z"/><path class="cls-5" d="M112.88,197.14h5.45c-1.87,.53-3.69,1.16-5.45,1.9v-1.9Z"/><path class="cls-5" d="M112.88,295.08v4.09c-3.23-1.08-6.34-2.44-9.3-4.04v-4.72l9.3,4.68Z"/><polygon class="cls-5" points="112.88 290.14 112.88 295.08 103.58 290.41 103.58 290.14 112.88 290.14"/><path class="cls-5" d="M112.88,288.22v1.92h-9.3v-7.08c2.88,2.05,6,3.78,9.3,5.16Z"/><path class="cls-5" d="M112.88,197.14v1.9c-3.3,1.38-6.42,3.11-9.3,5.16v-6.9l.32-.16h8.98Z"/><polygon class="cls-5" points="112.88 192.66 112.88 197.14 103.9 197.14 112.88 192.66"/><path class="cls-5" d="M112.88,188.11v4.55l-8.98,4.48h-.32v-4.99c2.96-1.6,6.07-2.96,9.3-4.04Z"/><path class="cls-5" d="M103.58,290.41v4.72c-2.7-1.47-5.27-3.14-7.69-5h7.15l.54,.27Z"/><path class="cls-5" d="M103.58,283.06v7.08h-.54l-8.76-4.4v-4.9h6.41c.94,.78,1.9,1.52,2.9,2.22Z"/><path class="cls-5" d="M103.58,197.3v6.9c-1.01,.71-1.98,1.46-2.93,2.25h-6.37v-4.5l9.3-4.65Z"/><path class="cls-5" d="M103.58,197.14v.16l-9.3,4.65v-3.52c.53-.44,1.07-.88,1.62-1.29h7.68Z"/><path class="cls-5" d="M103.58,192.15v4.99h-7.68c2.42-1.86,4.99-3.53,7.68-4.99Z"/><path class="cls-5" d="M103.04,290.14h-7.15c-.55-.42-1.08-.85-1.62-1.29v-3.11l8.76,4.4Z"/><path class="cls-5" d="M100.68,280.84h-6.41l3.05-3.05c1.07,1.07,2.19,2.09,3.36,3.05Z"/><path class="cls-5" d="M94.29,206.45h6.36c-1.16,.96-2.27,1.97-3.33,3.03l-3.03-3.03Z"/><path class="cls-5" d="M94.28,274.44c.97,1.16,1.98,2.28,3.05,3.35l-3.05,3.05v-6.4Z"/><path class="cls-5" d="M94.29,206.45l3.03,3.03c-1.07,1.06-2.08,2.18-3.05,3.34v-6.37h.01Z"/><path class="cls-5" d="M94.28,285.74v3.11c-.42-.34-.83-.69-1.24-1.04l-1.8-3.59,3.04,1.52Z"/><polygon class="cls-5" points="94.28 280.84 94.28 285.74 91.24 284.21 91.13 283.99 94.28 280.84"/><path class="cls-5" d="M94.28,274.44v6.4h-4.72l-4.58-9.16v-.15h7.07c.71,1,1.45,1.96,2.22,2.9Z"/><path class="cls-5" d="M94.28,206.45v6.37c-.78,.95-1.53,1.92-2.24,2.93h-7.06v-.04l4.63-9.26h4.67Z"/><polygon class="cls-5" points="94.28 206.43 94.28 206.45 89.61 206.45 91.06 203.55 91.28 203.44 94.28 206.43"/><polygon class="cls-5" points="94.28 201.95 94.28 206.43 91.28 203.44 94.28 201.95"/><path class="cls-5" d="M94.28,198.43v3.52l-2.99,1.49-.11-.11,1.97-3.94c.37-.32,.75-.65,1.14-.96Z"/><polygon class="cls-5" points="94.28 280.84 91.13 283.99 89.56 280.84 94.28 280.84"/><path class="cls-5" d="M91.24,284.21l1.8,3.59c-1.02-.89-2.01-1.81-2.96-2.77l.94-.94,.22,.12Z"/><path class="cls-5" d="M92.05,271.53h-7.07v-9.3h1.91c1.38,3.3,3.11,6.42,5.16,9.3Z"/><path class="cls-5" d="M84.98,215.75h7.06c-2.04,2.88-3.78,6-5.15,9.3h-1.91v-9.3Z"/><path class="cls-5" d="M89.56,280.84l1.57,3.15-.11,.11-3.45-1.73c-.44-.5-.88-1.01-1.3-1.53h3.29Z"/><path class="cls-5" d="M91.02,284.1l-.94,.94c-.87-.87-1.7-1.76-2.51-2.67l3.45,1.73Z"/><path class="cls-5" d="M84.98,271.68l4.58,9.16h-3.29c-.44-.53-.87-1.07-1.29-1.62v-7.54Z"/><path class="cls-5" d="M86.89,262.23h-1.91v-5.51c.53,1.89,1.17,3.72,1.91,5.51Z"/><path class="cls-5" d="M84.98,225.05h1.91c-.74,1.77-1.38,3.61-1.91,5.48v-5.48Z"/><path class="cls-5" d="M84.98,271.68v7.54c-1.86-2.42-3.53-4.99-5-7.69h4.92l.07,.15Z"/><polygon class="cls-5" points="84.98 262.23 84.98 271.53 84.91 271.53 80.25 262.23 84.98 262.23"/><path class="cls-5" d="M84.98,256.72v5.51h-4.72l-4.57-9.15v-.14h8.4c.25,1.28,.55,2.54,.9,3.79Z"/><path class="cls-5" d="M84.98,225.05v5.48c-.35,1.25-.66,2.53-.9,3.82h-8.39v-.04l4.63-9.26h4.67Z"/><polygon class="cls-5" points="84.98 215.75 84.98 225.05 80.31 225.05 84.96 215.75 84.98 215.75"/><path class="cls-5" d="M80.25,262.23l4.65,9.3h-4.92c-1.6-2.95-2.96-6.06-4.04-9.3h4.31Z"/><path class="cls-5" d="M84.08,252.94h-8.4v-9.28h7.5c0,3.17,.31,6.28,.9,9.28Z"/><path class="cls-5" d="M75.68,234.36h8.39c-.59,3-.89,6.1-.89,9.27v.03h-7.5v-9.3Z"/><path class="cls-5" d="M75.68,253.08l4.57,9.15h-4.31c-.09-.27-.18-.53-.26-.8v-8.35Z"/><path class="cls-5" d="M75.68,253.08v8.35c-.88-2.75-1.55-5.58-2.02-8.49h1.95l.07,.14Z"/><path class="cls-5" d="M75.68,243.66v9.28h-.07l-2.53-5.06c-.1-1.39-.15-2.8-.15-4.22h2.75Z"/><path class="cls-5" d="M75.68,234.36v9.3h-2.75c0-1.4,.05-2.77,.15-4.13l2.59-5.17h.02Z"/><path class="cls-5" d="M75.61,252.94h-1.95c-.27-1.66-.46-3.35-.58-5.06l2.53,5.06Z"/></g><g><polyline class="cls-2" points="122.18 141.3 125.85 133.94 126.81 132.03 131.07 123.51 131.45 122.75"/><polyline class="cls-2" points="112.88 159.89 114.92 155.83 117.51 150.63 120.51 144.64 122.16 141.33"/><polyline class="cls-2" points="103.58 178.5 107.25 171.17 108.21 169.23 108.92 167.83 112.86 159.94"/><polyline class="cls-2" points="94.28 197.11 98.91 187.84 102.15 181.37 103.56 178.54"/><polyline class="cls-2" points="91.17 203.33 93.14 199.39 94.26 197.14"/><polyline class="cls-2" points="84.98 215.71 89.61 206.45 91.06 203.55"/><polyline class="cls-2" points="75.68 234.32 80.31 225.05 84.96 215.75"/><polyline class="cls-2" points="71.01 243.66 73.07 239.53 75.66 234.36"/><polyline class="cls-2" points="57.07 271.53 57.3 271.09 58.87 267.95 61.72 262.23 64.07 257.55 66.37 252.94 70.99 243.7"/><polyline class="cls-2" points="47.78 290.13 50.86 283.97 51.3 283.09 52.43 280.84 57.07 271.54"/><polyline class="cls-2" points="38.49 308.72 40.33 305.03 43.13 299.44 45.7 294.28 47.77 290.14"/><polyline class="cls-2" points="29.18 327.34 33.82 318.04 35.14 315.41 38.48 308.74"/><polyline class="cls-2" points="19.88 345.94 24.53 336.63 29.18 327.34"/><polyline class="cls-2" points="10.59 364.53 15.23 355.24 19.88 345.94"/><polyline class="cls-2" points="140.76 141.33 137.06 133.94 136.11 132.03 131.85 123.51 131.48 122.77"/><polyline class="cls-2" points="159.36 178.53 155.73 171.27 154.71 169.23 154 167.82 150.06 159.94 148 155.82 145.41 150.63 142.41 144.64 140.76 141.33"/><polyline class="cls-2" points="168.67 197.14 164.01 187.84 160.77 181.35 159.36 178.54"/><polyline class="cls-2" points="171.77 203.35 169.76 199.34 168.67 197.15"/><polyline class="cls-2" points="177.97 215.75 173.32 206.45 171.82 203.45"/><polyline class="cls-2" points="187.27 234.36 182.62 225.05 177.98 215.76"/><polyline class="cls-2" points="191.93 243.66 189.89 239.58 187.28 234.36"/><line class="cls-2" x1="196.57" y1="252.94" x2="191.94" y2="243.69"/><polyline class="cls-2" points="215.17 290.14 212.08 283.95 211.65 283.1 210.52 280.84 205.88 271.57 205.87 271.53 205.65 271.1 204 267.81 201.21 262.23 198.88 257.56 196.58 252.96"/><polyline class="cls-2" points="224.47 308.74 222.62 305.04 219.82 299.44 217.24 294.28 215.17 290.15"/><polyline class="cls-2" points="252.36 364.52 247.72 355.24 243.08 345.96 243.07 345.94 238.41 336.63 233.78 327.37 233.77 327.34 229.12 318.04 227.81 315.42 224.48 308.76"/></g></g><line class="cls-3" x1="131.67" y1="122.32" x2="7.64" y2="363.02"/><line class="cls-3" x1="131.67" y1="122.32" x2="249.42" y2="366.04"/><polyline class="cls-3" points="131.64 122.2 131.64 123 131.65 123 131.65 122.2"/></g><line class="cls-4" x1="251.24" y1="365.15" x2="131.64" y2="122.32"/><line class="cls-4" x1="131.64" y1="122.59" x2="4.41" y2="361.32"/><polygon class="cls-5" points="138.98 129.39 122.91 129.39 131.63 104.02 135.02 116.41 138.98 129.39"/></g></g></svg>