<?xml version="1.0" encoding="UTF-8"?><svg id="Layer_7" xmlns="http://www.w3.org/2000/svg" viewBox="0 0 116.43 254.21"><defs><style>.cls-1{fill:none;stroke:#e30613;stroke-miterlimit:10;stroke-width:14px;}.cls-2{fill:#e30613;}.cls-3{fill:#1d1d1b;}</style></defs><path class="cls-3" d="M26.21,72.31c0-6.2,1.24-11.78,3.21-15.71,.34-.68,3.17,11.07,3.72,10.71,.48-.3-1.85-13.68-1.43-14.14,1.38-1.51,2.95-2.36,4.61-2.36,5.59,0,10.11,9.62,10.11,21.49s-4.53,21.49-10.11,21.49-10.11-9.62-10.11-21.49Z"/><g><path class="cls-2" d="M86.59,72.68v.04h-2.67v-13.83h1.35c.87,4.46,1.32,9.08,1.32,13.79Z"/><path class="cls-2" d="M83.92,72.72h2.67c0,4.73-.46,9.35-1.34,13.82h-1.33v-13.82Z"/><path class="cls-2" d="M85.27,58.89h-1.35v-5.68c.53,1.86,.97,3.76,1.35,5.68Z"/><path class="cls-2" d="M83.92,86.54h1.33c-.37,1.9-.81,3.77-1.33,5.61v-5.61Z"/><path class="cls-2" d="M83.92,86.54v5.61c-.79,2.81-1.75,5.56-2.86,8.22h-10.99v-13.83h13.86Z"/><path class="cls-2" d="M83.92,72.72v13.82h-13.86v-2c.81-3.81,1.25-7.77,1.25-11.82h12.61Z"/><path class="cls-2" d="M83.92,58.89v13.83h-12.61v-.03c0-4.06-.42-8.03-1.25-11.85v-1.96h13.86Z"/><path class="cls-2" d="M83.92,53.21v5.68h-13.86v-13.86h11.01c1.11,2.65,2.06,5.38,2.84,8.18Z"/><path class="cls-2" d="M81.08,45.03h-11.01v-13.83h3.35c3.04,4.29,5.62,8.93,7.67,13.83Z"/><path class="cls-2" d="M70.07,100.38h10.99c-2.04,4.92-4.63,9.55-7.67,13.84h-3.32v-13.84Z"/><path class="cls-2" d="M73.41,31.19h-3.35v-4.37c1.17,1.41,2.3,2.87,3.35,4.37Z"/><path class="cls-2" d="M70.07,114.22h3.32c-1.05,1.48-2.16,2.93-3.32,4.33v-4.33Z"/><path class="cls-2" d="M70.07,114.22v4.33c-1.43,1.73-2.94,3.39-4.53,4.97l-9.31-9.3h13.83Z"/><path class="cls-2" d="M70.07,100.38v13.84h-13.85v-3.04c3.03-3.26,5.68-6.89,7.87-10.8h5.98Z"/><path class="cls-2" d="M70.07,86.54v13.83h-5.98c2.42-4.3,4.29-8.94,5.51-13.83h.47Z"/><path class="cls-2" d="M70.07,84.54v2h-.47c.17-.66,.33-1.33,.47-2Z"/><path class="cls-2" d="M70.07,58.89v1.96c-.14-.66-.29-1.31-.45-1.96h.45Z"/><path class="cls-2" d="M70.07,45.03v13.86h-.45c-1.22-4.91-3.1-9.56-5.52-13.86h5.97Z"/><path class="cls-2" d="M70.07,31.19v13.83h-5.97c-2.19-3.92-4.84-7.54-7.87-10.81v-3.02h13.85Z"/><path class="cls-2" d="M70.07,26.82v4.37h-13.85s9.33-9.34,9.33-9.34c1.58,1.58,3.1,3.24,4.52,4.97Z"/><path class="cls-2" d="M65.55,21.86l-9.33,9.33v-13.85h4.36c1.72,1.43,3.38,2.94,4.97,4.52Z"/><path class="cls-2" d="M56.23,114.22l9.31,9.3c-1.6,1.6-3.27,3.12-5,4.55h-4.32v-13.85h.01Z"/><path class="cls-2" d="M60.58,17.34h-4.36v-3.35c1.5,1.06,2.95,2.17,4.36,3.35Z"/><path class="cls-2" d="M56.22,128.07h4.32c-1.4,1.16-2.84,2.27-4.32,3.31v-3.31Z"/><path class="cls-2" d="M56.22,128.07v3.31c-4.29,3.04-8.93,5.62-13.84,7.67v-10.98h13.84Z"/><path class="cls-2" d="M56.22,114.22v13.85h-13.84v-5.99c3.91-2.19,7.54-4.83,10.8-7.86h3.04Z"/><path class="cls-2" d="M56.22,114.2h0s-3.04,.01-3.04,.01c.53-.49,1.05-.99,1.56-1.5l1.48,1.48Z"/><path class="cls-2" d="M56.22,111.17v3.03l-1.48-1.48c.5-.5,1-1.02,1.48-1.55Z"/><path class="cls-2" d="M56.22,31.19v3.02c-.48-.53-.98-1.04-1.48-1.55l1.48-1.48h0Z"/><path class="cls-2" d="M56.22,17.34v13.85h0s0,0,0,0h-3.02c-3.27-3.04-6.9-5.69-10.82-7.88v-5.97h13.84Z"/><path class="cls-2" d="M56.22,13.99v3.35h-13.84V6.32c4.92,2.05,9.55,4.63,13.84,7.67Z"/><path class="cls-2" d="M56.21,31.19l-1.48,1.48c-.5-.5-1.01-1-1.54-1.48h3.02Z"/><path class="cls-2" d="M42.38,128.07v10.98c-2.66,1.12-5.41,2.07-8.23,2.86h-5.63v-13.84h13.86Z"/><path class="cls-2" d="M42.38,122.08v5.99h-13.86v-.48c4.9-1.22,9.55-3.1,13.86-5.51Z"/><path class="cls-2" d="M42.38,17.34v5.97c-4.3-2.42-8.95-4.29-13.86-5.51v-.46h13.86Z"/><path class="cls-2" d="M42.38,6.32v11.02h-13.86V3.48h5.71c2.79,.78,5.51,1.73,8.15,2.84Z"/><path class="cls-2" d="M34.23,3.48h-5.71v-1.35c1.93,.37,3.84,.82,5.71,1.35Z"/><path class="cls-2" d="M28.52,141.91h5.63c-1.85,.52-3.73,.96-5.63,1.33v-1.33Z"/><path class="cls-2" d="M28.52,141.91v1.33c-4.47,.88-9.09,1.33-13.81,1.33h-.03v-2.66h13.84Z"/><path class="cls-2" d="M28.52,128.07v13.84H14.68v-12.61h.03c4.04,0,7.98-.42,11.78-1.23h2.04Z"/><path class="cls-2" d="M28.52,127.59v.48h-2.04c.68-.14,1.36-.3,2.04-.48Z"/><path class="cls-2" d="M28.52,17.34v.46c-.65-.17-1.31-.32-1.97-.46h1.97Z"/><path class="cls-2" d="M28.52,3.48v13.86h-1.97c-3.82-.82-7.79-1.25-11.85-1.25h-.03V3.48h13.84Z"/><path class="cls-2" d="M28.52,2.13v1.35H14.68V.79h.03c4.72,0,9.34,.45,13.81,1.33Z"/><path class="cls-2" d="M14.68,251.51v1.13h-.09l-.57-1.14c.22,0,.44,0,.66,0Z"/><path class="cls-2" d="M14.68,238.82v12.69c-.22,0-.44,0-.66,0l-6.34-12.68h7Z"/><path class="cls-2" d="M14.68,236.25v2.57H7.68l-1.39-2.79c2.78,.14,5.57,.22,8.39,.22Z"/><path class="cls-2" d="M14.68,224.98v11.27c-2.81,0-5.61-.07-8.39-.22l-5.43-10.86v-.19H14.68Z"/><path class="cls-2" d="M14.68,220.91v4.07H.87v-4.71c4.55,.42,9.16,.64,13.81,.64Z"/><path class="cls-2" d="M14.68,211.12v9.79c-4.66,0-9.26-.22-13.81-.64v-9.15H14.68Z"/><path class="cls-2" d="M14.68,205.68v5.44H.87v-6.15c4.54,.47,9.15,.71,13.81,.71Z"/><path class="cls-2" d="M14.68,197.28v8.4c-4.66,0-9.27-.24-13.81-.71v-7.69H14.68Z"/><path class="cls-2" d="M14.68,190.4v6.88H.87v-7.69c4.53,.53,9.14,.81,13.81,.81Z"/><path class="cls-2" d="M14.68,183.45v6.95c-4.67,0-9.28-.27-13.81-.81v-6.14H14.68Z"/><path class="cls-2" d="M14.68,175.13v8.33H.87v-9.26c4.52,.61,9.13,.93,13.81,.93Z"/><path class="cls-2" d="M14.68,169.61v5.52c-4.69,0-9.29-.32-13.81-.93v-4.59H14.68Z"/><polygon class="cls-2" points="14.68 162.7 14.68 169.61 .87 169.61 .87 169.6 14.67 162.7 14.68 162.7"/><path class="cls-2" d="M14.68,159.85v2.84h0s0,0,0,0l-6.12-3.06c2.02,.14,4.07,.22,6.13,.22Z"/><path class="cls-2" d="M14.68,155.75v4.1c-2.06,0-4.1-.07-6.13-.22l-7.69-3.84v-.04H14.68Z"/><path class="cls-2" d="M14.68,144.57v11.18H.87v-12.52c4.47,.88,9.09,1.34,13.81,1.34Z"/><path class="cls-2" d="M14.68,141.91v2.66c-4.72,0-9.34-.46-13.81-1.34v-1.32H14.68Z"/><path class="cls-2" d="M14.68,129.3v12.61H.87v-13.84H2.93c3.79,.81,7.72,1.23,11.75,1.23Z"/><path class="cls-2" d="M14.68,128.07v1.23c-4.02,0-7.95-.42-11.75-1.23H14.68Z"/><path class="cls-2" d="M14.68,118.36v9.7H2.93c-.69-.14-1.38-.3-2.07-.48v-11.36c4.35,1.38,9,2.13,13.81,2.14Z"/><path class="cls-2" d="M14.68,114.22v4.15c-4.82,0-9.46-.76-13.81-2.14v-2.01H14.68Z"/><path class="cls-2" d="M14.68,107.43v6.79H.87v-9.65c4.23,1.84,8.9,2.86,13.81,2.86Z"/><path class="cls-2" d="M14.68,100.38v7.05c-4.91,0-9.58-1.03-13.81-2.86v-4.19H14.68Z"/><rect class="cls-2" x=".87" y="86.54" width="13.81" height="13.83"/><polygon class="cls-2" points="14.68 72.72 14.68 86.54 .87 86.54 .87 86.54 14.68 72.72"/><polygon class="cls-2" points="14.68 72.66 14.68 72.72 .87 72.72 .87 58.89 .91 58.89 14.68 72.66"/><polygon class="cls-2" points="14.68 58.89 14.68 72.66 .91 58.89 14.68 58.89"/><polygon class="cls-2" points="14.68 45.03 14.68 58.89 .91 58.89 .87 58.85 .87 45.03 14.68 45.03"/><path class="cls-2" d="M14.68,37.96v7.06H.87v-4.2c4.23-1.84,8.9-2.86,13.81-2.86Z"/><path class="cls-2" d="M14.68,31.19v6.77c-4.91,0-9.58,1.03-13.81,2.86v-9.64H14.68Z"/><path class="cls-2" d="M14.68,27.02v4.17H.87v-2.03c4.35-1.38,9-2.13,13.81-2.14Z"/><path class="cls-2" d="M14.68,17.34v9.69c-4.82,0-9.46,.76-13.81,2.14v-11.36c.66-.17,1.32-.33,1.99-.47H14.68Z"/><path class="cls-2" d="M14.68,16.09v1.25H2.86c3.81-.81,7.77-1.25,11.82-1.25Z"/><path class="cls-2" d="M14.68,3.48v12.61c-4.05,0-8,.43-11.82,1.25H.87V3.48H14.68Z"/><path class="cls-2" d="M14.68,.79V3.48H.87v-1.35C5.34,1.25,9.96,.79,14.68,.79Z"/><polygon class="cls-2" points="14.68 72.72 .87 86.54 .87 72.72 14.68 72.72"/><path class="cls-2" d="M8.55,159.64l6.12,3.06-13.81,6.9v-10.84c2.53,.4,5.09,.7,7.69,.88Z"/><path class="cls-2" d="M14.59,252.64h-.09l-1.14-1.14c.22,0,.44,0,.66,0l.57,1.14Z"/><path class="cls-2" d="M13.36,251.5l1.14,1.14H.87v-1.66c4.12,.32,8.29,.49,12.5,.52Z"/><path class="cls-2" d="M14.02,251.5c-.22,0-.44,0-.66,0L.87,239v-.18H7.68l6.34,12.68Z"/><path class="cls-2" d="M.87,239l12.5,12.5c-4.2-.03-8.37-.2-12.5-.52v-11.98Z"/><path class="cls-2" d="M.87,155.79l7.69,3.84c-2.6-.18-5.16-.48-7.69-.88v-2.97Z"/><path class="cls-2" d="M6.29,236.04l1.39,2.79H.87v-3.15c1.8,.16,3.61,.28,5.43,.37Z"/><path class="cls-2" d="M.87,225.17l5.43,10.86c-1.82-.09-3.63-.21-5.43-.37v-10.49Z"/><path class="cls-2" d="M2.93,128.07H.87v-.48c.68,.18,1.37,.34,2.07,.48Z"/><path class="cls-2" d="M.87,17.34h1.99c-.67,.14-1.33,.3-1.99,.47v-.47Z"/></g><line class="cls-1" x1="10.83" y1="140.17" x2="109.65" y2="249.64"/></svg>