<?xml version="1.0" encoding="UTF-8"?><svg id="Layer_7" xmlns="http://www.w3.org/2000/svg" viewBox="0 0 500.89 501"><defs><style>.cls-1{fill:none;stroke:#1d1d1b;stroke-miterlimit:10;}</style></defs><rect class="cls-1" x="7.4" y=".8" width="500" height="500"/><line class="cls-1" x1="7.49" y1=".88" x2="507.51" y2="500.9"/><line class="cls-1" x1="507.3" y1=".9" x2="7.47" y2="500.73"/><line class="cls-1" x1="7.49" y1=".88" x2="257.36" y2="501.04"/><line class="cls-1" x1="507.3" y1=".9" x2="257.36" y2="501.04"/><line class="cls-1" x1="7.47" y1="500.73" x2="257.36" y2=".81"/><line class="cls-1" x1="507.4" y1="500.8" x2="257.36" y2=".81"/><line class="cls-1" x1="7.49" y1=".88" x2="507.45" y2="250.84"/><line class="cls-1" x1="507.3" y1=".9" x2="7.24" y2="250.84"/><line class="cls-1" x1="257.36" y1="501.04" x2="7.24" y2="250.84"/><line class="cls-1" x1="257.36" y1="501.04" x2="507.45" y2="250.84"/><line class="cls-1" x1="7.47" y1="500.73" x2="507.45" y2="250.84"/><line class="cls-1" x1="507.4" y1="500.8" x2="7.24" y2="250.84"/><line class="cls-1" x1="257.36" y1=".81" x2="7.24" y2="250.84"/><line class="cls-1" x1="257.36" y1=".81" x2="507.45" y2="250.84"/><g><circle class="cls-1" cx="257.4" cy="250.8" r="248.43"/><ellipse class="cls-1" cx="257.4" cy="250.84" rx="227.23" ry="227.19"/><ellipse class="cls-1" cx="257.39" cy="250.78" rx="205.97" ry="205.94"/><ellipse class="cls-1" cx="257.4" cy="250.79" rx="184.77" ry="184.76"/><circle class="cls-1" cx="257.4" cy="250.8" r="163.53"/><ellipse class="cls-1" cx="257.4" cy="250.81" rx="121.09" ry="121.07"/><ellipse class="cls-1" cx="257.4" cy="250.78" rx="99.87" ry="99.88"/><circle class="cls-1" cx="257.4" cy="250.8" r="78.64"/><ellipse class="cls-1" cx="257.41" cy="250.8" rx="63.46" ry="63.45"/><circle class="cls-1" cx="257.4" cy="250.8" r="48.26"/><ellipse class="cls-1" cx="257.4" cy="250.8" rx="142.3" ry="142.31"/></g><g><line class="cls-1" x1="7.14" y1="20" x2="511.28" y2="20"/><line class="cls-1" x1="5.4" y1="39.23" x2="511.79" y2="39.23"/><line class="cls-1" x1="6.84" y1="58.47" x2="510.98" y2="58.47"/><line class="cls-1" x1="6.68" y1="77.71" x2="510.82" y2="77.71"/><line class="cls-1" x1="6.46" y1="96.93" x2="510.6" y2="96.93"/><line class="cls-1" x1="6.29" y1="116.17" x2="510.43" y2="116.17"/><line class="cls-1" x1="6.09" y1="135.4" x2="510.23" y2="135.4"/><line class="cls-1" x1="5.97" y1="154.64" x2="510.11" y2="154.64"/><line class="cls-1" x1="5.81" y1="173.89" x2="509.95" y2="173.89"/><line class="cls-1" x1="5.63" y1="193.14" x2="509.77" y2="193.14"/><line class="cls-1" x1="5.53" y1="212.36" x2="509.67" y2="212.36"/><line class="cls-1" x1="5.31" y1="231.61" x2="509.45" y2="231.61"/><line class="cls-1" x1="7.24" y1="250.84" x2="507.45" y2="250.84"/><line class="cls-1" x1="4.29" y1="270.03" x2="508.43" y2="270.03"/><line class="cls-1" x1="4.12" y1="289.25" x2="508.26" y2="289.25"/><line class="cls-1" x1="3.94" y1="308.49" x2="508.08" y2="308.49"/><line class="cls-1" x1="3.8" y1="327.73" x2="507.94" y2="327.73"/><line class="cls-1" x1="3.68" y1="346.96" x2="507.82" y2="346.96"/><line class="cls-1" x1="3.46" y1="366.19" x2="507.6" y2="366.19"/><line class="cls-1" x1="3.29" y1="385.44" x2="507.43" y2="385.44"/><line class="cls-1" x1="3.13" y1="404.67" x2="507.27" y2="404.67"/><line class="cls-1" x1="2.98" y1="423.89" x2="512.21" y2="423.89"/><line class="cls-1" x1="2.82" y1="443.11" x2="509.15" y2="443.11"/><line class="cls-1" x1="2.65" y1="462.36" x2="510.85" y2="462.36"/><line class="cls-1" x1="2.51" y1="481.59" x2="511.87" y2="481.59"/><line class="cls-1" x1="2.34" y1="500.83" x2="510" y2="500.83"/></g><g><line class="cls-1" x1="488.2" y1=".53" x2="488.2" y2="504.67"/><line class="cls-1" x1="468.97" y1="-.95" x2="468.97" y2="505.18"/><line class="cls-1" x1="449.74" y1=".23" x2="449.74" y2="504.37"/><line class="cls-1" x1="430.49" y1=".07" x2="430.49" y2="504.21"/><line class="cls-1" x1="411.27" y1="-.15" x2="411.27" y2="503.99"/><line class="cls-1" x1="392.03" y1="-.32" x2="392.03" y2="503.82"/><line class="cls-1" x1="372.8" y1="-.51" x2="372.8" y2="503.63"/><line class="cls-1" x1="353.56" y1="-.64" x2="353.56" y2="503.5"/><line class="cls-1" x1="334.31" y1="-.8" x2="334.31" y2="503.34"/><line class="cls-1" x1="315.07" y1="-.97" x2="315.07" y2="503.17"/><line class="cls-1" x1="295.84" y1="-1.08" x2="295.84" y2="503.06"/><line class="cls-1" x1="276.59" y1="-1.3" x2="276.59" y2="502.84"/><line class="cls-1" x1="257.36" y1=".81" x2="257.36" y2="501.04"/><line class="cls-1" x1="238.17" y1="-2.32" x2="238.17" y2="501.82"/><line class="cls-1" x1="218.95" y1="-2.49" x2="218.95" y2="501.65"/><line class="cls-1" x1="199.71" y1="-2.67" x2="199.71" y2="501.47"/><line class="cls-1" x1="180.48" y1="-2.81" x2="180.48" y2="501.33"/><line class="cls-1" x1="161.24" y1="-2.93" x2="161.24" y2="501.21"/><line class="cls-1" x1="142.01" y1="-3.14" x2="142.01" y2="501"/><line class="cls-1" x1="122.76" y1="-3.31" x2="122.76" y2="500.83"/><line class="cls-1" x1="103.53" y1="-3.47" x2="103.53" y2="500.67"/><line class="cls-1" x1="84.31" y1="-3.63" x2="84.31" y2="502.76"/><line class="cls-1" x1="65.09" y1="-3.79" x2="65.09" y2="502.16"/><line class="cls-1" x1="45.84" y1="-3.96" x2="45.84" y2="500.69"/><line class="cls-1" x1="26.61" y1="-4.1" x2="26.61" y2="500.76"/></g></svg>