<?xml version="1.0" encoding="UTF-8"?><svg id="Layer_7" xmlns="http://www.w3.org/2000/svg" viewBox="0 0 158.81 255.28"><defs><style>.cls-1,.cls-2{fill:none;stroke:#e30613;stroke-miterlimit:10;}.cls-3{fill:#e30613;}.cls-2{stroke-width:6px;}.cls-4{fill:#1d1d1b;}</style></defs><ellipse class="cls-2" cx="71.58" cy="111.05" rx="28.64" ry="28.76"/><path class="cls-4" d="M67.52,108.57c0-2.62,.64-4.97,1.66-6.63,.18-.29,1.64,4.67,1.93,4.52,.25-.13-.96-5.77-.74-5.97,.72-.64,1.53-1,2.38-1,2.89,0,5.23,4.06,5.23,9.07s-2.34,9.07-5.23,9.07-5.23-4.06-5.23-9.07Z"/><g><g><polygon class="cls-3" points="158.28 242.27 158.28 251.78 155.26 242.27 158.28 242.27"/><polygon class="cls-3" points="158.28 232.74 158.28 242.27 155.26 242.27 152.25 232.76 152.25 232.74 158.28 232.74"/><rect class="cls-3" x="152.25" y="223.2" width="6.03" height="9.54"/><rect class="cls-3" x="152.25" y="213.68" width="6.03" height="9.52"/><polygon class="cls-3" points="158.28 204.16 158.28 213.68 152.25 213.68 152.25 204.16 158.24 204.16 158.28 204.16"/><polygon class="cls-3" points="158.28 194.63 158.28 204.16 158.24 204.16 152.25 204.16 152.25 194.63 158.28 194.63"/><rect class="cls-3" x="152.25" y="185.09" width="6.03" height="9.54"/><rect class="cls-3" x="152.25" y="175.56" width="6.03" height="9.53"/><path class="cls-3" d="M158.28,166.03v9.53h-6.03v-2.02c.62-2.47,1.2-4.97,1.72-7.51h4.3Z"/><path class="cls-3" d="M158.28,156.5v9.53h-4.3c.64-3.12,1.21-6.3,1.7-9.53h2.61Z"/><path class="cls-3" d="M158.28,146.97v9.53h-2.61c.47-3.13,.87-6.31,1.19-9.53h1.42Z"/><path class="cls-3" d="M158.28,137.44v9.52h-1.42c.31-3.14,.54-6.31,.7-9.52h.72Z"/><path class="cls-3" d="M158.28,127.96v9.48h-.72c.14-2.87,.22-5.78,.23-8.7l.5-.78Z"/><path class="cls-3" d="M158.28,127.95h0s-.5,.8-.5,.8c0-.13,0-.27,0-.41l.5-.39Z"/><path class="cls-3" d="M158.28,127.94h0s-.5,.4-.5,.4c0-.13,0-.27,0-.4h.49Z"/><path class="cls-3" d="M158.28,127.93h0s-.49,0-.49,0v-.4l.49,.39Z"/><path class="cls-3" d="M158.28,127.91h0s-.49-.38-.49-.38c0-.13,0-.27,0-.41l.5,.78Z"/><path class="cls-3" d="M158.28,118.41v9.5l-.5-.78c0-2.93-.09-5.84-.23-8.72h.72Z"/><path class="cls-3" d="M158.28,108.87v9.54h-.72c-.16-3.22-.39-6.4-.7-9.54h1.42Z"/><path class="cls-3" d="M158.28,99.34v9.53h-1.42c-.31-3.22-.71-6.4-1.18-9.53h2.61Z"/><path class="cls-3" d="M158.28,89.81v9.53h-2.61c-.49-3.23-1.05-6.41-1.7-9.53h4.3Z"/><path class="cls-3" d="M158.28,80.27v9.54h-4.3c-.52-2.55-1.1-5.05-1.73-7.52v-2.02h6.03Z"/><rect class="cls-3" x="152.25" y="70.74" width="6.03" height="9.53"/><rect class="cls-3" x="152.25" y="61.2" width="6.03" height="9.53"/><rect class="cls-3" x="152.25" y="51.68" width="6.03" height="9.53"/><rect class="cls-3" x="152.25" y="42.15" width="6.03" height="9.52"/><rect class="cls-3" x="152.25" y="32.61" width="6.03" height="9.54"/><rect class="cls-3" x="152.25" y="23.09" width="6.03" height="9.53"/><polygon class="cls-3" points="158.28 13.55 158.28 23.09 152.25 23.09 152.25 23.03 155.25 13.55 158.28 13.55"/><polygon class="cls-3" points="158.28 4.09 158.28 13.55 155.25 13.55 158.25 4.09 158.28 4.09"/><polygon class="cls-3" points="155.26 242.27 158.28 251.78 152.25 242.27 155.26 242.27"/><polygon class="cls-3" points="158.25 4.09 155.25 13.55 152.25 13.55 158.25 4.09"/><path class="cls-3" d="M157.78,127.54v.4h-5.53v-4.77l5.53,4.37Z"/><path class="cls-3" d="M157.78,127.94c0,.13,0,.27,0,.4l-5.53,4.37v-4.77h5.53Z"/><path class="cls-3" d="M157.78,127.13c0,.13,0,.27,0,.41l-5.53-4.37v-4.76h0l5.52,8.72Z"/><path class="cls-3" d="M157.78,128.34c0,.13,0,.27,0,.41l-5.51,8.7h-.02v-4.74l5.53-4.37Z"/><path class="cls-3" d="M152.27,137.44l5.51-8.7c0,2.92-.09,5.83-.23,8.7h-5.28Z"/><path class="cls-3" d="M157.78,127.13l-5.52-8.72h5.3c.14,2.88,.22,5.79,.23,8.72Z"/><path class="cls-3" d="M157.56,118.41h-5.31v-9.54h4.61c.31,3.14,.54,6.32,.7,9.54Z"/><path class="cls-3" d="M152.27,137.44h5.28c-.16,3.21-.39,6.39-.7,9.52h-4.61v-9.49l.02-.03Z"/><path class="cls-3" d="M156.86,108.87h-4.61v-9.53h3.42c.47,3.13,.87,6.31,1.18,9.53Z"/><path class="cls-3" d="M152.25,146.97h4.61c-.32,3.22-.71,6.4-1.19,9.53h-3.42v-9.53Z"/><path class="cls-3" d="M155.67,99.34h-3.42v-9.53h1.73c.64,3.12,1.21,6.3,1.7,9.53Z"/><path class="cls-3" d="M152.25,156.5h3.42c-.48,3.23-1.05,6.41-1.7,9.53h-1.72v-9.53Z"/><polygon class="cls-3" points="152.25 232.76 155.26 242.27 152.25 242.27 152.25 232.76"/><polygon class="cls-3" points="155.25 13.55 152.25 23.03 152.25 13.56 152.25 13.55 155.25 13.55"/><path class="cls-3" d="M153.98,89.81h-1.73v-7.52c.62,2.47,1.2,4.97,1.73,7.52Z"/><path class="cls-3" d="M152.25,166.03h1.72c-.52,2.54-1.1,5.04-1.72,7.51v-7.51Z"/><polygon class="cls-3" points="152.25 232.76 152.25 242.27 146.21 232.74 152.24 232.74 152.25 232.76"/><polygon class="cls-3" points="152.25 223.2 152.25 232.74 152.24 232.74 149.22 223.2 152.25 223.2"/><polygon class="cls-3" points="152.25 213.68 152.25 223.2 149.22 223.2 146.21 213.71 146.21 213.68 152.25 213.68"/><rect class="cls-3" x="146.21" y="204.16" width="6.04" height="9.52"/><rect class="cls-3" x="146.21" y="194.63" width="6.04" height="9.53"/><path class="cls-3" d="M152.25,185.09v9.54h-6.04v-2.17c.94-2.4,1.83-4.86,2.66-7.37h3.37Z"/><path class="cls-3" d="M152.25,175.56v9.53h-3.37c1.04-3.1,1.98-6.28,2.85-9.53h.52Z"/><path class="cls-3" d="M152.25,173.54v2.02h-.52c.18-.67,.35-1.34,.52-2.02Z"/><path class="cls-3" d="M152.25,166.03v7.51c-.17,.68-.35,1.35-.52,2.02h-5.51v-6.47c.25-1.02,.5-2.04,.73-3.07h5.31Z"/><path class="cls-3" d="M152.25,156.5v9.53h-5.31c.71-3.12,1.34-6.29,1.87-9.53h3.43Z"/><path class="cls-3" d="M152.25,146.97v9.53h-3.43c.52-3.13,.95-6.31,1.3-9.53h2.13Z"/><path class="cls-3" d="M152.25,137.48v9.49h-2.13c.25-2.34,.46-4.71,.62-7.1l1.51-2.39Z"/><path class="cls-3" d="M152.25,137.44v.03l-1.51,2.39c.05-.8,.1-1.61,.14-2.42h1.37Z"/><path class="cls-3" d="M152.25,132.7v4.74h-1.37c.07-1.25,.12-2.52,.16-3.79l1.21-.96Z"/><path class="cls-3" d="M152.25,127.94v4.77l-1.21,.96c.06-1.89,.09-3.81,.09-5.72h1.12Z"/><path class="cls-3" d="M152.25,123.17v4.77h-1.12c0-1.92-.03-3.83-.09-5.72l1.21,.96Z"/><path class="cls-3" d="M152.25,118.41v4.76l-1.21-.96c-.04-1.27-.09-2.54-.16-3.81h1.37Z"/><path class="cls-3" d="M152.25,118.4h0s-1.37,0-1.37,0c-.04-.8-.09-1.6-.14-2.39l1.51,2.38Z"/><path class="cls-3" d="M152.25,108.87v9.53l-1.51-2.38c-.16-2.4-.37-4.79-.62-7.14h2.14Z"/><path class="cls-3" d="M152.25,99.34v9.53h-2.14c-.35-3.23-.78-6.4-1.3-9.53h3.44Z"/><path class="cls-3" d="M152.25,89.81v9.53h-3.44c-.54-3.24-1.16-6.42-1.87-9.53h5.31Z"/><path class="cls-3" d="M152.25,82.29v7.52h-5.31c-.23-1.02-.47-2.03-.72-3.04v-6.5h5.52c.18,.67,.35,1.34,.52,2.02Z"/><path class="cls-3" d="M152.25,80.27v2.02c-.17-.68-.35-1.35-.52-2.02h.52Z"/><path class="cls-3" d="M152.25,70.74v9.53h-.52c-.87-3.25-1.82-6.43-2.85-9.53h3.37Z"/><path class="cls-3" d="M152.25,61.2v9.53h-3.37c-.83-2.51-1.72-4.97-2.66-7.37v-2.16h6.04Z"/><rect class="cls-3" x="146.21" y="51.68" width="6.04" height="9.53"/><rect class="cls-3" x="146.21" y="42.15" width="6.04" height="9.52"/><polygon class="cls-3" points="152.25 32.61 152.25 42.15 146.21 42.15 146.21 42.1 149.21 32.61 152.25 32.61"/><polygon class="cls-3" points="152.25 23.09 152.25 32.61 149.21 32.61 152.23 23.09 152.25 23.09"/><polygon class="cls-3" points="152.25 13.56 152.25 23.03 152.23 23.09 146.21 23.09 152.25 13.56"/><polygon class="cls-3" points="149.22 223.2 152.24 232.74 146.21 232.74 146.21 223.2 149.22 223.2"/><polygon class="cls-3" points="152.23 23.09 149.21 32.61 146.21 32.61 146.21 23.09 152.23 23.09"/><path class="cls-3" d="M151.73,80.27h-5.52v-9.53h2.66c1.04,3.1,1.99,6.28,2.85,9.53Z"/><path class="cls-3" d="M146.21,175.56h5.51c-.87,3.25-1.81,6.43-2.85,9.53h-2.66v-9.53Z"/><path class="cls-3" d="M151.13,127.94h-4.92v-9.53h0l4.82,3.81c.06,1.89,.09,3.81,.09,5.72Z"/><path class="cls-3" d="M146.21,127.94h4.92c0,1.92-.03,3.83-.09,5.72l-4.8,3.79h-.03v-9.51Z"/><path class="cls-3" d="M151.04,122.21l-4.82-3.81h4.66c.07,1.26,.12,2.53,.16,3.81Z"/><path class="cls-3" d="M146.24,137.44l4.8-3.79c-.04,1.27-.09,2.53-.16,3.79h-4.64Z"/><path class="cls-3" d="M146.24,137.44h4.64c-.04,.81-.09,1.62-.14,2.42l-4.5,7.1h-.03v-9.5l.03-.02Z"/><path class="cls-3" d="M150.88,118.41h-4.66v-9.53l4.52,7.14c.05,.79,.1,1.59,.14,2.39Z"/><path class="cls-3" d="M150.74,116.01l-4.52-7.14h0s3.9,0,3.9,0c.26,2.36,.46,4.74,.62,7.14Z"/><path class="cls-3" d="M146.24,146.97l4.5-7.1c-.16,2.39-.37,4.76-.62,7.1h-3.87Z"/><path class="cls-3" d="M146.24,146.97h3.87c-.35,3.23-.78,6.41-1.3,9.53h-2.6v-9.49l.03-.04Z"/><path class="cls-3" d="M150.11,108.87h-3.9v-9.53h2.6c.52,3.13,.95,6.3,1.3,9.53Z"/><polygon class="cls-3" points="146.21 213.71 149.22 223.2 146.21 223.2 146.21 213.71"/><polygon class="cls-3" points="149.21 32.61 146.21 42.1 146.21 32.61 149.21 32.61"/><path class="cls-3" d="M148.88,70.74h-2.66v-7.37c.94,2.4,1.83,4.86,2.66,7.37Z"/><path class="cls-3" d="M146.21,185.09h2.66c-.83,2.51-1.72,4.96-2.66,7.37v-7.37Z"/><path class="cls-3" d="M146.21,156.5h2.6c-.54,3.24-1.16,6.41-1.87,9.53h-.73v-9.53Z"/><path class="cls-3" d="M148.81,99.34h-2.6v-9.53h.72c.71,3.12,1.34,6.3,1.87,9.53Z"/><path class="cls-3" d="M146.21,166.03h.73c-.23,1.03-.47,2.05-.73,3.07v-3.07Z"/><path class="cls-3" d="M146.94,89.81h-.72v-3.04c.25,1.01,.49,2.02,.72,3.04Z"/><polygon class="cls-3" points="13.39 223.2 13.39 232.74 7.37 232.74 10.39 223.2 13.39 223.2"/><polygon class="cls-3" points="13.39 213.72 13.39 223.2 10.39 223.2 13.39 213.72"/><polygon class="cls-3" points="13.39 213.68 13.39 213.72 10.39 223.2 7.35 223.2 7.35 213.68 13.39 213.68"/><rect class="cls-3" x="7.35" y="204.16" width="6.04" height="9.52"/><rect class="cls-3" x="7.35" y="194.63" width="6.04" height="9.53"/><path class="cls-3" d="M13.39,192.46v2.17H7.35v-9.54h3.37c.83,2.51,1.72,4.96,2.66,7.37Z"/><path class="cls-3" d="M13.39,185.09v7.37c-.94-2.4-1.83-4.86-2.66-7.37h2.66Z"/><path class="cls-3" d="M13.39,175.56v9.53h-2.66c-1.04-3.1-1.98-6.28-2.85-9.53h5.51Z"/><path class="cls-3" d="M13.39,169.1v6.47H7.88c-.18-.67-.35-1.34-.52-2.02v-7.51h5.31c.23,1.03,.47,2.05,.73,3.07Z"/><path class="cls-3" d="M13.39,166.03v3.07c-.25-1.02-.5-2.04-.73-3.07h.73Z"/><path class="cls-3" d="M13.39,156.5v9.53h-.73c-.71-3.12-1.34-6.29-1.87-9.53h2.6Z"/><path class="cls-3" d="M13.39,147.07v9.43h-2.6c-.52-3.13-.95-6.31-1.3-9.53h3.84l.06,.1Z"/><path class="cls-3" d="M13.39,137.49v9.47h-.06l-4.45-7.04c-.06-.83-.11-1.65-.15-2.49h4.61l.06,.05Z"/><path class="cls-3" d="M13.39,127.94v9.51h-.06l-4.76-3.76c-.06-1.9-.09-3.83-.09-5.75h4.92Z"/><path class="cls-3" d="M13.39,118.41v9.53h-4.92c0-1.93,.03-3.85,.09-5.75l4.78-3.78h.04Z"/><path class="cls-3" d="M13.39,108.87v9.51l-.04,.03h-4.62c.04-.82,.09-1.65,.14-2.46l4.49-7.08h.03Z"/><path class="cls-3" d="M13.39,99.34v9.47l-.03,.05h-3.86c.35-3.23,.78-6.4,1.3-9.53h2.6Z"/><path class="cls-3" d="M13.39,89.81v9.53h-2.6c.54-3.24,1.16-6.42,1.87-9.53h.72Z"/><path class="cls-3" d="M13.39,86.77v3.04h-.72c.23-1.02,.47-2.03,.72-3.04Z"/><path class="cls-3" d="M13.39,80.27v6.5c-.25,1.01-.49,2.02-.72,3.04H7.35v-7.52c.17-.68,.35-1.35,.52-2.02h5.52Z"/><path class="cls-3" d="M13.39,70.74v9.53H7.87c.87-3.25,1.82-6.43,2.85-9.53h2.66Z"/><path class="cls-3" d="M13.39,63.36v7.37h-2.66c.83-2.51,1.72-4.97,2.66-7.37Z"/><path class="cls-3" d="M13.39,61.2v2.16c-.94,2.4-1.83,4.86-2.66,7.37h-3.37v-9.53h6.04Z"/><rect class="cls-3" x="7.35" y="51.68" width="6.04" height="9.53"/><rect class="cls-3" x="7.35" y="42.15" width="6.04" height="9.52"/><polygon class="cls-3" points="13.39 42.12 13.39 42.15 7.35 42.15 7.35 32.61 10.38 32.61 13.39 42.12"/><polygon class="cls-3" points="13.39 32.61 13.39 42.12 10.38 32.61 13.39 32.61"/><polygon class="cls-3" points="13.39 23.09 13.39 32.61 10.38 32.61 7.37 23.09 13.39 23.09"/><polygon class="cls-3" points="13.39 232.74 7.35 242.27 7.35 232.78 7.37 232.74 13.39 232.74"/><polygon class="cls-3" points="13.39 23.09 7.37 23.09 7.35 23.05 7.35 13.56 13.39 23.09"/><path class="cls-3" d="M13.36,108.87l-4.49,7.08c.16-2.38,.37-4.74,.62-7.08h3.86Z"/><path class="cls-3" d="M13.35,118.41l-4.78,3.78c.04-1.26,.09-2.52,.16-3.78h4.62Z"/><path class="cls-3" d="M13.33,137.44h-4.61c-.07-1.24-.12-2.5-.16-3.76l4.76,3.76Z"/><path class="cls-3" d="M13.33,146.97h-3.84c-.25-2.32-.46-4.67-.62-7.04l4.45,7.04Z"/><path class="cls-3" d="M7.35,89.81h5.31c-.71,3.12-1.34,6.3-1.87,9.53h-3.44v-9.53Z"/><path class="cls-3" d="M12.66,166.03H7.35v-9.53h3.43c.54,3.24,1.16,6.41,1.87,9.53Z"/><path class="cls-3" d="M7.35,99.34h3.44c-.52,3.13-.95,6.3-1.3,9.53h-2.14v-9.53Z"/><path class="cls-3" d="M10.79,156.5h-3.43v-9.53h2.13c.35,3.23,.78,6.41,1.3,9.53Z"/><path class="cls-3" d="M7.35,70.74h3.37c-1.04,3.1-1.99,6.28-2.85,9.53h-.52v-9.53Z"/><path class="cls-3" d="M10.73,185.09h-3.37v-9.53h.52c.87,3.25,1.81,6.43,2.85,9.53Z"/><polygon class="cls-3" points="10.39 223.2 7.37 232.74 7.35 232.74 7.35 223.2 10.39 223.2"/><polygon class="cls-3" points="10.38 32.61 7.35 32.61 7.35 23.09 7.37 23.09 10.38 32.61"/><path class="cls-3" d="M7.35,108.87h2.14c-.25,2.33-.46,4.69-.62,7.08l-1.52,2.4v-9.47Z"/><path class="cls-3" d="M9.49,146.97h-2.13v-9.43l1.52,2.39c.16,2.37,.36,4.72,.62,7.04Z"/><path class="cls-3" d="M8.87,139.93l-1.52-2.39v-.09h1.37c.04,.83,.09,1.66,.15,2.49Z"/><path class="cls-3" d="M7.35,118.34l1.52-2.4c-.05,.82-.1,1.64-.14,2.46h-1.37v-.06Z"/><path class="cls-3" d="M7.35,118.41h1.37c-.07,1.25-.12,2.51-.16,3.78l-1.21,.96v-4.73Z"/><path class="cls-3" d="M8.72,137.44h-1.37v-4.71l1.21,.96c.04,1.26,.09,2.51,.16,3.76Z"/><path class="cls-3" d="M7.35,123.14l1.21-.96c-.06,1.9-.09,3.83-.09,5.75h-1.12v-4.8Z"/><path class="cls-3" d="M8.56,133.69l-1.21-.96v-4.8h1.12c0,1.93,.03,3.85,.09,5.75Z"/><path class="cls-3" d="M7.88,175.56h-.52v-2.02c.17,.68,.35,1.35,.52,2.02Z"/><path class="cls-3" d="M7.35,80.27h.52c-.18,.67-.35,1.34-.52,2.02v-2.02Z"/><polygon class="cls-3" points="7.35 232.78 7.35 242.27 4.35 242.27 7.35 232.78"/><polygon class="cls-3" points="7.35 232.74 7.35 232.78 4.35 242.27 1.32 242.27 1.32 232.74 7.35 232.74"/><rect class="cls-3" x="1.32" y="223.2" width="6.03" height="9.54"/><rect class="cls-3" x="1.32" y="213.68" width="6.03" height="9.52"/><rect class="cls-3" x="1.32" y="204.16" width="6.03" height="9.52"/><rect class="cls-3" x="1.32" y="194.63" width="6.03" height="9.53"/><rect class="cls-3" x="1.32" y="185.09" width="6.03" height="9.54"/><rect class="cls-3" x="1.32" y="175.56" width="6.03" height="9.53"/><path class="cls-3" d="M7.35,173.54v2.02H1.32v-9.53H5.63c.52,2.54,1.1,5.04,1.72,7.51Z"/><path class="cls-3" d="M7.35,166.03v7.51c-.62-2.47-1.2-4.97-1.72-7.51h1.72Z"/><path class="cls-3" d="M7.35,156.5v9.53h-1.72c-.64-3.12-1.21-6.3-1.7-9.53h3.42Z"/><path class="cls-3" d="M7.35,146.97v9.53H3.93c-.47-3.13-.87-6.31-1.19-9.53H7.35Z"/><path class="cls-3" d="M7.35,137.54v9.43H2.75c-.31-3.14-.54-6.31-.7-9.52H7.29l.06,.09Z"/><path class="cls-3" d="M7.35,132.73v4.71h-.06l-5.47-8.64c0-.14,0-.29,0-.44l5.53,4.37Z"/><path class="cls-3" d="M7.35,127.94v4.8l-5.53-4.37c0-.14,0-.29,0-.43H7.35Z"/><path class="cls-3" d="M7.35,123.14v4.8H1.82v-.02c0-.13,0-.27,0-.41l5.53-4.37Z"/><path class="cls-3" d="M7.35,118.41v4.73l-5.53,4.37c0-.14,0-.29,0-.44l5.49-8.66h.04Z"/><path class="cls-3" d="M7.35,108.87v9.47l-.04,.06H2.05c.16-3.22,.39-6.4,.7-9.54H7.35Z"/><path class="cls-3" d="M7.35,99.34v9.53H2.75c.31-3.22,.71-6.4,1.18-9.53h3.42Z"/><path class="cls-3" d="M7.35,89.81v9.53H3.93c.49-3.23,1.05-6.41,1.7-9.53h1.73Z"/><path class="cls-3" d="M7.35,82.29v7.52h-1.73c.52-2.55,1.1-5.05,1.73-7.52Z"/><path class="cls-3" d="M7.35,80.27v2.02c-.62,2.47-1.2,4.97-1.73,7.52H1.32v-9.54H7.35Z"/><rect class="cls-3" x="1.32" y="70.74" width="6.03" height="9.53"/><rect class="cls-3" x="1.32" y="61.2" width="6.03" height="9.53"/><rect class="cls-3" x="1.32" y="51.68" width="6.03" height="9.53"/><rect class="cls-3" x="1.32" y="42.15" width="6.03" height="9.52"/><rect class="cls-3" x="1.32" y="32.61" width="6.03" height="9.54"/><rect class="cls-3" x="1.32" y="23.09" width="6.03" height="9.53"/><polygon class="cls-3" points="7.35 23.05 7.35 23.09 1.32 23.09 1.32 13.55 4.35 13.55 7.35 23.05"/><polygon class="cls-3" points="7.35 13.56 7.35 23.05 4.35 13.55 7.35 13.55 7.35 13.56"/><polygon class="cls-3" points="7.35 242.27 1.34 251.75 4.35 242.27 7.35 242.27"/><polygon class="cls-3" points="7.35 13.55 4.35 13.55 1.35 4.08 7.35 13.55"/><path class="cls-3" d="M7.31,118.41l-5.49,8.66c.01-2.91,.09-5.8,.23-8.66H7.31Z"/><path class="cls-3" d="M1.82,128.8l5.47,8.64H2.05c-.14-2.85-.21-5.74-.23-8.64Z"/><path class="cls-3" d="M5.63,166.03H1.32v-9.53H3.93c.48,3.23,1.05,6.41,1.7,9.53Z"/><path class="cls-3" d="M1.32,89.81H5.63c-.64,3.12-1.21,6.3-1.7,9.53H1.32v-9.53Z"/><polygon class="cls-3" points="4.35 13.55 1.32 13.55 1.32 4.04 1.35 4.04 1.35 4.08 4.35 13.55"/><polygon class="cls-3" points="4.35 242.27 1.34 251.75 1.34 251.78 1.32 251.78 1.32 242.27 4.35 242.27"/><path class="cls-3" d="M3.93,156.5H1.32v-9.53h1.43c.32,3.22,.71,6.4,1.19,9.53Z"/><path class="cls-3" d="M1.32,99.34H3.93c-.47,3.13-.87,6.31-1.18,9.53H1.32v-9.53Z"/><path class="cls-3" d="M1.32,108.87h1.43c-.31,3.14-.54,6.32-.7,9.54h-.73v-9.54Z"/><path class="cls-3" d="M2.75,146.97H1.32v-9.52h.73c.16,3.21,.39,6.39,.7,9.52Z"/><path class="cls-3" d="M1.32,118.41h.73c-.14,2.86-.21,5.75-.23,8.66l-.5,.79v-9.45Z"/><path class="cls-3" d="M2.05,137.44h-.73v-9.43l.5,.79c.01,2.9,.09,5.79,.23,8.64Z"/><path class="cls-3" d="M1.82,128.37c0,.14,0,.29,0,.44l-.5-.79v-.04l.5,.39Z"/><path class="cls-3" d="M1.82,127.07c0,.14,0,.29,0,.44l-.5,.39v-.04l.5-.79Z"/><path class="cls-3" d="M1.82,127.94c0,.14,0,.29,0,.43l-.5-.39v-.04h.5Z"/><path class="cls-3" d="M1.82,127.51c0,.13,0,.27,0,.41v.02h-.5v-.04l.5-.39Z"/></g><g><polyline class="cls-1" points="140.18 223.21 146.21 232.74 152.25 242.27"/><polyline class="cls-1" points="134.14 213.68 134.94 214.95 140.17 223.2"/><polyline class="cls-1" points="128.1 204.16 130.24 207.53 134.13 213.68"/><polyline class="cls-1" points="122.07 194.63 125.51 200.06 128.1 204.15"/><polyline class="cls-1" points="116.1 185.21 119.06 189.89 120.81 192.65 122.06 194.62"/><line class="cls-1" x1="111.39" y1="177.77" x2="116.03" y2="185.09"/><line class="cls-1" x1="109.99" y1="175.56" x2="111.39" y2="177.77"/><polyline class="cls-1" points="103.95 166.03 105.97 169.22 106.68 170.34 109.99 175.56"/><polyline class="cls-1" points="97.91 156.5 101.97 162.9 103.94 166.02"/><polyline class="cls-1" points="91.87 146.97 93.89 150.14 97.26 155.47 97.9 156.48"/><line class="cls-1" x1="53.64" y1="86.62" x2="55.65" y2="89.79"/><polyline class="cls-1" points="49.62 80.27 52.93 85.49 53.64 86.62"/><line class="cls-1" x1="48.21" y1="78.06" x2="49.61" y2="80.27"/><line class="cls-1" x1="43.58" y1="70.74" x2="48.21" y2="78.06"/><polyline class="cls-1" points="37.54 61.2 38.79 63.18 40.55 65.96 43.5 70.62"/><polyline class="cls-1" points="31.5 51.68 34.08 55.75 37.54 61.2"/><polyline class="cls-1" points="25.47 42.15 29.37 48.32 31.5 51.67"/><polyline class="cls-1" points="19.43 32.62 24.66 40.87 25.47 42.15"/><polyline class="cls-1" points="7.35 13.56 13.39 23.09 19.43 32.61"/><path class="cls-1" d="M116.1,185.21l-.07,.11"/><path class="cls-1" d="M116.17,185.09s-.05,.07-.08,.11"/><line class="cls-1" x1="62.34" y1="100.36" x2="62.35" y2="100.36"/><line class="cls-1" x1="48.21" y1="78.06" x2="48.21" y2="78.06"/><line class="cls-1" x1="111.39" y1="177.77" x2="111.39" y2="177.77"/></g></g><line class="cls-2" x1="4.53" y1="2.77" x2="54.91" y2="86.38"/><line class="cls-2" x1="87.87" y1="137.45" x2="155.04" y2="253.2"/></svg>