<?xml version="1.0" encoding="UTF-8"?><svg id="Layer_6" xmlns="http://www.w3.org/2000/svg" viewBox="0 0 126.13 223.15"><defs><style>.cls-1{fill:none;stroke:#e30613;stroke-linecap:round;stroke-miterlimit:10;stroke-width:6px;}.cls-2{fill:#1d1d1b;}</style></defs><path class="cls-2" d="M32.64,161.73c0-4.7,.94-8.93,2.43-11.9,.26-.51,2.4,8.39,2.82,8.12,.36-.23-1.4-10.37-1.09-10.72,1.05-1.14,2.24-1.79,3.49-1.79,4.23,0,7.66,7.29,7.66,16.29s-3.43,16.29-7.66,16.29-7.66-7.29-7.66-16.29Z"/><path class="cls-2" d="M74.44,49.7c0-4.7,.94-8.93,2.43-11.9,.26-.51,2.4,8.39,2.82,8.12,.36-.23-1.4-10.37-1.09-10.72,1.05-1.14,2.24-1.79,3.49-1.79,4.23,0,7.66,7.29,7.66,16.29s-3.43,16.29-7.66,16.29-7.66-7.29-7.66-16.29Z"/><g><line class="cls-1" x1="121.62" y1="5.76" x2="5.13" y2="5.76"/><line class="cls-1" x1="121.66" y1="113.21" x2="121.66" y2="218.86"/><line class="cls-1" x1="4.98" y1="112.92" x2="121.66" y2="112.92"/><line class="cls-1" x1="4.98" y1="6.79" x2="4.98" y2="112.05"/><line class="cls-1" x1="121.57" y1="218.92" x2="5.57" y2="218.92"/></g></svg>