<?xml version="1.0" encoding="UTF-8"?><svg id="Layer_5" xmlns="http://www.w3.org/2000/svg" viewBox="0 0 297.26 596.45"><defs><style>.cls-1{fill:none;stroke:#1d1d1b;stroke-miterlimit:10;}</style></defs><rect class="cls-1" x=".5" y=".5" width="296" height="595.45"/><ellipse class="cls-1" cx="74.54" cy="74.64" rx="73.66" ry="73.33"/><ellipse class="cls-1" cx="222.24" cy="74.51" rx="73.53" ry="73.2"/><ellipse class="cls-1" cx="148.33" cy="166.9" rx="147.45" ry="146.79"/><ellipse class="cls-1" cx="222.12" cy="521.73" rx="73.66" ry="73.33"/><ellipse class="cls-1" cx="74.41" cy="521.86" rx="73.53" ry="73.2"/><ellipse class="cls-1" cx="148.33" cy="429.47" rx="147.45" ry="146.79"/><ellipse class="cls-1" cx="148.71" cy="302.65" rx="147.57" ry="146.91"/><line class="cls-1" x1="296.5" y1=".5" x2=".5" y2="595.95"/><line class="cls-1" x1="296.5" y1="595.95" x2=".5" y2=".5"/><line class="cls-1" x1="296.91" y1="298.21" x2="1.14" y2="298.21"/><line class="cls-1" x1="148.46" y1="595.49" x2="148.46" y2=".76"/><line class="cls-1" x1=".5" y1=".5" x2="148.46" y2="595.49"/><line class="cls-1" x1="296.5" y1=".5" x2="148.46" y2="595.49"/><line class="cls-1" x1="296.5" y1="595.95" x2="148.46" y2=".76"/><line class="cls-1" x1=".5" y1="595.95" x2="148.46" y2=".76"/><line class="cls-1" x1="296.5" y1=".5" x2=".66" y2="298.18"/><line class="cls-1" x1=".5" y1=".5" x2="296.91" y2="298.21"/><line class="cls-1" x1="296.5" y1="595.95" x2=".66" y2="298.18"/><line class="cls-1" x1=".5" y1="595.95" x2="296.91" y2="298.21"/></svg>